<svg width="34" height="34" viewBox="0 0 34 34" fill="none" xmlns="http://www.w3.org/2000/svg">
<path d="M14.3438 7.96875H16.4688C16.6096 7.96875 16.7448 7.91278 16.8444 7.81315C16.944 7.71352 17 7.5784 17 7.4375V4.25C17 4.1091 16.944 3.97398 16.8444 3.87435C16.7448 3.77472 16.6096 3.71875 16.4688 3.71875H14.3438C14.2029 3.71875 14.0677 3.77472 13.9681 3.87435C13.8685 3.97398 13.8125 4.1091 13.8125 4.25V7.4375C13.8125 7.5784 13.8685 7.71352 13.9681 7.81315C14.0677 7.91278 14.2029 7.96875 14.3438 7.96875ZM14.875 4.78125H15.9375V6.90625H14.875V4.78125Z" fill="#616161"/>
<path d="M18.5938 7.96875H20.7188C20.8596 7.96875 20.9948 7.91278 21.0944 7.81315C21.194 7.71352 21.25 7.5784 21.25 7.4375V4.25C21.25 4.1091 21.194 3.97398 21.0944 3.87435C20.9948 3.77472 20.8596 3.71875 20.7188 3.71875H18.5938C18.4529 3.71875 18.3177 3.77472 18.2181 3.87435C18.1185 3.97398 18.0625 4.1091 18.0625 4.25V7.4375C18.0625 7.5784 18.1185 7.71352 18.2181 7.81315C18.3177 7.91278 18.4529 7.96875 18.5938 7.96875ZM19.125 4.78125H20.1875V6.90625H19.125V4.78125Z" fill="#616161"/>
<path d="M22.8438 7.96875H24.9688C25.1096 7.96875 25.2448 7.91278 25.3444 7.81315C25.444 7.71352 25.5 7.5784 25.5 7.4375V4.25C25.5 4.1091 25.444 3.97398 25.3444 3.87435C25.2448 3.77472 25.1096 3.71875 24.9688 3.71875H22.8438C22.7029 3.71875 22.5677 3.77472 22.4681 3.87435C22.3685 3.97398 22.3125 4.1091 22.3125 4.25V7.4375C22.3125 7.5784 22.3685 7.71352 22.4681 7.81315C22.5677 7.91278 22.7029 7.96875 22.8438 7.96875ZM23.375 4.78125H24.4375V6.90625H23.375V4.78125Z" fill="#616161"/>
<path d="M14.3438 13.2812H16.4688C16.6096 13.2812 16.7448 13.2253 16.8444 13.1257C16.944 13.026 17 12.8909 17 12.75V9.5625C17 9.4216 16.944 9.28648 16.8444 9.18685C16.7448 9.08722 16.6096 9.03125 16.4688 9.03125H14.3438C14.2029 9.03125 14.0677 9.08722 13.9681 9.18685C13.8685 9.28648 13.8125 9.4216 13.8125 9.5625V12.75C13.8125 12.8909 13.8685 13.026 13.9681 13.1257C14.0677 13.2253 14.2029 13.2812 14.3438 13.2812ZM14.875 10.0938H15.9375V12.2188H14.875V10.0938Z" fill="#616161"/>
<path d="M18.5938 13.2812H20.7188C20.8596 13.2812 20.9948 13.2253 21.0944 13.1257C21.194 13.026 21.25 12.8909 21.25 12.75V9.5625C21.25 9.4216 21.194 9.28648 21.0944 9.18685C20.9948 9.08722 20.8596 9.03125 20.7188 9.03125H18.5938C18.4529 9.03125 18.3177 9.08722 18.2181 9.18685C18.1185 9.28648 18.0625 9.4216 18.0625 9.5625V12.75C18.0625 12.8909 18.1185 13.026 18.2181 13.1257C18.3177 13.2253 18.4529 13.2812 18.5938 13.2812ZM19.125 10.0938H20.1875V12.2188H19.125V10.0938Z" fill="#616161"/>
<path d="M22.8438 13.2812H24.9688C25.1096 13.2812 25.2448 13.2253 25.3444 13.1257C25.444 13.026 25.5 12.8909 25.5 12.75V9.5625C25.5 9.4216 25.444 9.28648 25.3444 9.18685C25.2448 9.08722 25.1096 9.03125 24.9688 9.03125H22.8438C22.7029 9.03125 22.5677 9.08722 22.4681 9.18685C22.3685 9.28648 22.3125 9.4216 22.3125 9.5625V12.75C22.3125 12.8909 22.3685 13.026 22.4681 13.1257C22.5677 13.2253 22.7029 13.2812 22.8438 13.2812ZM23.375 10.0938H24.4375V12.2188H23.375V10.0938Z" fill="#616161"/>
<path d="M10.0938 7.96875H12.2188C12.3596 7.96875 12.4948 7.91278 12.5944 7.81315C12.694 7.71352 12.75 7.5784 12.75 7.4375V4.25C12.75 4.1091 12.694 3.97398 12.5944 3.87435C12.4948 3.77472 12.3596 3.71875 12.2188 3.71875H10.0938C9.95285 3.71875 9.81773 3.77472 9.7181 3.87435C9.61847 3.97398 9.5625 4.1091 9.5625 4.25V7.4375C9.5625 7.5784 9.61847 7.71352 9.7181 7.81315C9.81773 7.91278 9.95285 7.96875 10.0938 7.96875ZM10.625 4.78125H11.6875V6.90625H10.625V4.78125Z" fill="#616161"/>
<path d="M10.0938 13.2812H12.2188C12.3596 13.2812 12.4948 13.2253 12.5944 13.1257C12.694 13.026 12.75 12.8909 12.75 12.75V9.5625C12.75 9.4216 12.694 9.28648 12.5944 9.18685C12.4948 9.08722 12.3596 9.03125 12.2188 9.03125H10.0938C9.95285 9.03125 9.81773 9.08722 9.7181 9.18685C9.61847 9.28648 9.5625 9.4216 9.5625 9.5625V12.75C9.5625 12.8909 9.61847 13.026 9.7181 13.1257C9.81773 13.2253 9.95285 13.2812 10.0938 13.2812ZM10.625 10.0938H11.6875V12.2188H10.625V10.0938Z" fill="#616161"/>
<path d="M14.3438 18.5938H16.4688C16.6096 18.5938 16.7448 18.5378 16.8444 18.4382C16.944 18.3385 17 18.2034 17 18.0625V14.875C17 14.7341 16.944 14.599 16.8444 14.4993C16.7448 14.3997 16.6096 14.3438 16.4688 14.3438H14.3438C14.2029 14.3438 14.0677 14.3997 13.9681 14.4993C13.8685 14.599 13.8125 14.7341 13.8125 14.875V18.0625C13.8125 18.2034 13.8685 18.3385 13.9681 18.4382C14.0677 18.5378 14.2029 18.5938 14.3438 18.5938ZM14.875 15.4062H15.9375V17.5312H14.875V15.4062Z" fill="#616161"/>
<path d="M10.0938 18.5938H12.2188C12.3596 18.5938 12.4948 18.5378 12.5944 18.4382C12.694 18.3385 12.75 18.2034 12.75 18.0625V14.875C12.75 14.7341 12.694 14.599 12.5944 14.4993C12.4948 14.3997 12.3596 14.3438 12.2188 14.3438H10.0938C9.95285 14.3438 9.81773 14.3997 9.7181 14.4993C9.61847 14.599 9.5625 14.7341 9.5625 14.875V18.0625C9.5625 18.2034 9.61847 18.3385 9.7181 18.4382C9.81773 18.5378 9.95285 18.5938 10.0938 18.5938ZM10.625 15.4062H11.6875V17.5312H10.625V15.4062Z" fill="#616161"/>
<path d="M18.5938 18.5938H20.7188C20.8596 18.5938 20.9948 18.5378 21.0944 18.4382C21.194 18.3385 21.25 18.2034 21.25 18.0625V14.875C21.25 14.7341 21.194 14.599 21.0944 14.4993C20.9948 14.3997 20.8596 14.3438 20.7188 14.3438H18.5938C18.4529 14.3438 18.3177 14.3997 18.2181 14.4993C18.1185 14.599 18.0625 14.7341 18.0625 14.875V18.0625C18.0625 18.2034 18.1185 18.3385 18.2181 18.4382C18.3177 18.5378 18.4529 18.5938 18.5938 18.5938ZM19.125 15.4062H20.1875V17.5312H19.125V15.4062Z" fill="#616161"/>
<path d="M22.8438 18.5938H24.9688C25.1096 18.5938 25.2448 18.5378 25.3444 18.4382C25.444 18.3385 25.5 18.2034 25.5 18.0625V14.875C25.5 14.7341 25.444 14.599 25.3444 14.4993C25.2448 14.3997 25.1096 14.3438 24.9688 14.3438H22.8438C22.7029 14.3438 22.5677 14.3997 22.4681 14.4993C22.3685 14.599 22.3125 14.7341 22.3125 14.875V18.0625C22.3125 18.2034 22.3685 18.3385 22.4681 18.4382C22.5677 18.5378 22.7029 18.5938 22.8438 18.5938ZM23.375 15.4062H24.4375V17.5312H23.375V15.4062Z" fill="#616161"/>
<path d="M14.3438 23.9062H16.4688C16.6096 23.9062 16.7448 23.8503 16.8444 23.7507C16.944 23.651 17 23.5159 17 23.375V20.1875C17 20.0466 16.944 19.9115 16.8444 19.8118C16.7448 19.7122 16.6096 19.6562 16.4688 19.6562H14.3438C14.2029 19.6562 14.0677 19.7122 13.9681 19.8118C13.8685 19.9115 13.8125 20.0466 13.8125 20.1875V23.375C13.8125 23.5159 13.8685 23.651 13.9681 23.7507C14.0677 23.8503 14.2029 23.9062 14.3438 23.9062ZM14.875 20.7188H15.9375V22.8438H14.875V20.7188Z" fill="#616161"/>
<path d="M10.0938 23.9062H12.2188C12.3596 23.9062 12.4948 23.8503 12.5944 23.7507C12.694 23.651 12.75 23.5159 12.75 23.375V20.1875C12.75 20.0466 12.694 19.9115 12.5944 19.8118C12.4948 19.7122 12.3596 19.6562 12.2188 19.6562H10.0938C9.95285 19.6562 9.81773 19.7122 9.7181 19.8118C9.61847 19.9115 9.5625 20.0466 9.5625 20.1875V23.375C9.5625 23.5159 9.61847 23.651 9.7181 23.7507C9.81773 23.8503 9.95285 23.9062 10.0938 23.9062ZM10.625 20.7188H11.6875V22.8438H10.625V20.7188Z" fill="#616161"/>
<path d="M18.5938 23.9062H20.7188C20.8596 23.9062 20.9948 23.8503 21.0944 23.7507C21.194 23.651 21.25 23.5159 21.25 23.375V20.1875C21.25 20.0466 21.194 19.9115 21.0944 19.8118C20.9948 19.7122 20.8596 19.6562 20.7188 19.6562H18.5938C18.4529 19.6562 18.3177 19.7122 18.2181 19.8118C18.1185 19.9115 18.0625 20.0466 18.0625 20.1875V23.375C18.0625 23.5159 18.1185 23.651 18.2181 23.7507C18.3177 23.8503 18.4529 23.9062 18.5938 23.9062ZM19.125 20.7188H20.1875V22.8438H19.125V20.7188Z" fill="#616161"/>
<path d="M22.8438 23.9062H24.9688C25.1096 23.9062 25.2448 23.8503 25.3444 23.7507C25.444 23.651 25.5 23.5159 25.5 23.375V20.1875C25.5 20.0466 25.444 19.9115 25.3444 19.8118C25.2448 19.7122 25.1096 19.6562 24.9688 19.6562H22.8438C22.7029 19.6562 22.5677 19.7122 22.4681 19.8118C22.3685 19.9115 22.3125 20.0466 22.3125 20.1875V23.375C22.3125 23.5159 22.3685 23.651 22.4681 23.7507C22.5677 23.8503 22.7029 23.9062 22.8438 23.9062ZM23.375 20.7188H24.4375V22.8438H23.375V20.7188Z" fill="#616161"/>
<path d="M32.4063 20.7188H27.625V2.125C27.625 1.9841 27.5691 1.84898 27.4694 1.74935C27.3698 1.64972 27.2347 1.59375 27.0938 1.59375H7.96878C7.82788 1.59375 7.69275 1.64972 7.59313 1.74935C7.4935 1.84898 7.43753 1.9841 7.43753 2.125V21.1884C6.99083 20.901 6.47495 20.7394 5.94416 20.7205C5.41337 20.7016 4.8873 20.8261 4.4213 21.0809C3.9553 21.3358 3.5666 21.7115 3.2961 22.1686C3.0256 22.6257 2.8833 23.1472 2.88418 23.6783C2.88474 23.9734 2.93042 24.2667 3.01965 24.548C2.3644 24.7829 1.81316 25.2416 1.46322 25.8433C1.11327 26.445 0.987117 27.151 1.10701 27.8367C1.2269 28.5224 1.58513 29.1437 2.11849 29.5909C2.65185 30.0382 3.32605 30.2827 4.02212 30.2812C4.47052 30.2785 4.9122 30.172 5.31253 29.9699V31.875C5.31253 32.0159 5.3685 32.151 5.46813 32.2507C5.56775 32.3503 5.70288 32.4062 5.84378 32.4062C5.98467 32.4062 6.1198 32.3503 6.21943 32.2507C6.31905 32.151 6.37503 32.0159 6.37503 31.875V29.9699C6.70735 30.134 7.068 30.233 7.43753 30.2616V31.875C7.43753 32.0159 7.4935 32.151 7.59313 32.2507C7.69275 32.3503 7.82788 32.4062 7.96878 32.4062H31.3438C31.4847 32.4062 31.6198 32.3503 31.7194 32.2507C31.8191 32.151 31.875 32.0159 31.875 31.875V23.9062H32.4063C32.5472 23.9062 32.6823 23.8503 32.7819 23.7507C32.8816 23.651 32.9375 23.5159 32.9375 23.375V21.25C32.9375 21.1091 32.8816 20.974 32.7819 20.8743C32.6823 20.7747 32.5472 20.7188 32.4063 20.7188ZM5.84378 27.0938C5.70288 27.0938 5.56775 27.1497 5.46813 27.2493C5.3685 27.349 5.31253 27.4841 5.31253 27.625V28.6875C4.96808 29.026 4.50506 29.2166 4.02212 29.2188C3.53649 29.2206 3.06876 29.0356 2.71587 28.7019C2.36298 28.3683 2.152 27.9117 2.12666 27.4267C2.10132 26.9417 2.26356 26.4656 2.57975 26.097C2.89594 25.7284 3.34184 25.4956 3.82503 25.4469C3.91363 25.4374 3.99842 25.4057 4.07159 25.3549C4.14477 25.304 4.20398 25.2356 4.24376 25.1559C4.28355 25.0761 4.30264 24.9877 4.29928 24.8986C4.29592 24.8096 4.27021 24.7228 4.22453 24.6463C4.04585 24.3549 3.95066 24.0201 3.94934 23.6783C3.94934 23.1752 4.14921 22.6927 4.50498 22.3369C4.86076 21.9811 5.34329 21.7812 5.84643 21.7812C6.34957 21.7812 6.83211 21.9811 7.18788 22.3369C7.54365 22.6927 7.74353 23.1752 7.74353 23.6783C7.74221 24.0201 7.64701 24.3549 7.46834 24.6463C7.42265 24.7228 7.39694 24.8096 7.39358 24.8986C7.39022 24.9877 7.40931 25.0761 7.4491 25.1559C7.48889 25.2356 7.54809 25.304 7.62127 25.3549C7.69444 25.4057 7.77923 25.4374 7.86784 25.4469C8.35127 25.4956 8.79739 25.7286 9.11363 26.0975C9.42987 26.4664 9.59196 26.9428 9.56626 27.428C9.54057 27.9133 9.32906 28.3699 8.97563 28.7034C8.6222 29.0368 8.15397 29.2213 7.66809 29.2188C7.18423 29.2173 6.72012 29.0267 6.37503 28.6875V27.625C6.37503 27.4841 6.31905 27.349 6.21943 27.2493C6.1198 27.1497 5.98467 27.0938 5.84378 27.0938ZM20.1875 31.3438H14.875V26.0312H20.1875V31.3438ZM26.5625 31.3438H21.25V25.5C21.25 25.3591 21.1941 25.224 21.0944 25.1243C20.9948 25.0247 20.8597 24.9688 20.7188 24.9688H14.3438C14.2029 24.9688 14.0678 25.0247 13.9681 25.1243C13.8685 25.224 13.8125 25.3591 13.8125 25.5V31.3438H8.50003V30.1596C9.09851 29.985 9.62634 29.6254 10.0078 29.1323C10.3893 28.6392 10.6048 28.038 10.6234 27.4148C10.6421 26.7917 10.4629 26.1786 10.1116 25.6636C9.76027 25.1486 9.25488 24.758 8.6679 24.548C8.75713 24.2667 8.80281 23.9734 8.80337 23.6783C8.80291 23.2286 8.69913 22.7849 8.50003 22.3816V2.65625H26.5625V31.3438ZM30.8125 31.3438H27.625V23.9062H30.8125V31.3438ZM31.875 22.8438H27.625V21.7812H31.875V22.8438Z" fill="#616161"/>
</svg>
