<svg width="34" height="34" viewBox="0 0 34 34" fill="none" xmlns="http://www.w3.org/2000/svg">
<g clip-path="url(#clip0_89_907)">
<path d="M27.486 0C23.8932 0 20.9701 2.92221 20.9701 6.51419V9.4083C20.9701 9.4083 16.3329 6.95712 16.2509 6.91189C15.6171 6.5622 15.4418 6.56213 14.8079 6.91189C14.7259 6.95712 5.76724 11.6904 5.76724 11.6904C5.00775 12.0899 4.90097 12.2047 4.58003 12.7384C4.5277 12.8255 0.217272 19.66 0.217272 19.66C0.00643192 19.9935 -0.0534665 20.3879 0.0486663 20.7704C0.156045 21.1726 0.436479 21.5187 0.817451 21.7197C1.05957 21.8479 1.32094 21.9089 1.5788 21.9089C1.99065 21.9089 2.39261 21.7524 2.69077 21.4648V25.7842C2.69077 26.0592 2.91376 26.2822 3.18882 26.2822C3.46387 26.2822 3.68687 26.0592 3.68687 25.7842V19.9709C3.68687 19.9709 6.94967 14.8008 6.98407 14.7459C7.13906 14.4983 7.20507 14.3951 7.28263 14.3264C7.37115 14.2479 7.52601 14.1627 7.85804 13.9872L15.3621 10.0261C15.4153 9.99793 15.461 9.97282 15.5011 9.95091C15.5104 9.9458 15.52 9.94055 15.5295 9.93537C15.539 9.94055 15.5485 9.9458 15.5579 9.95091C15.598 9.97289 15.6437 9.99793 15.698 10.0267C15.698 10.0267 23.5467 14.1714 23.6429 14.2309C23.7006 14.2667 23.7431 14.297 23.7764 14.3264C23.8538 14.3951 23.9199 14.4983 24.0749 14.746C24.1093 14.8009 27.372 19.9709 27.372 19.9709V30.6434H21.7328V23.7146H22.5711C23.0793 23.7146 23.4927 23.3012 23.4927 22.793V21.3699C23.4927 20.8618 23.0793 20.4483 22.5711 20.4483H16.9185C16.6435 20.4483 16.4205 20.6713 16.4205 20.9464C16.4205 21.2214 16.6435 21.4444 16.9185 21.4444H22.4966V22.7185H8.56394V21.4444H14.6202C14.8952 21.4444 15.1182 21.2214 15.1182 20.9464C15.1182 20.6713 14.8952 20.4483 14.6202 20.4483H8.48943C7.98129 20.4483 7.56785 20.8618 7.56785 21.3699V22.793C7.56785 23.3012 7.98129 23.7146 8.48943 23.7146H9.32781V30.6434H3.6868V28.0825C3.6868 27.8075 3.46381 27.5845 3.18875 27.5845C2.9137 27.5845 2.69071 27.8075 2.69071 28.0825V33.165C2.69071 33.6255 3.0653 34 3.5257 34H33.1367C33.6126 34 33.9999 33.6127 33.9999 33.1368V6.51419C34 2.92221 31.0778 0 27.486 0ZM9.32788 33.0039H3.6868V31.6395H9.32781L9.32788 33.0039ZM19.9385 23.7146L15.5303 27.6887L11.1221 23.7146H19.9385ZM10.324 24.3361L14.7865 28.3593L10.324 32.3824V24.3361ZM11.1222 33.0039L15.5304 29.0298L19.9385 33.0039H11.1222ZM20.7367 32.3824L16.2741 28.3593L20.7367 24.3361V32.3824ZM27.3719 33.0039H21.7328V31.6395H27.3719V33.0039ZM30.921 19.8008C30.898 19.753 30.8723 19.7061 30.8436 19.6602L27.3941 14.1973H33.0039V19.8008H30.921ZM21.9662 6.51419C21.9662 3.47152 24.4424 0.996094 27.4861 0.996094C30.5285 0.996094 33.0039 3.47145 33.0039 6.51419V6.59965H21.9662V6.51419ZM21.9662 7.59575H33.0039V13.2012H26.7651C26.7651 13.2012 26.5311 12.8256 26.4788 12.7386C26.1579 12.205 26.0511 12.0901 25.2922 11.6909L21.9662 9.93444V7.59575H21.9662ZM28.2912 19.5606C28.2912 19.5606 24.9526 14.271 24.9191 14.2174C24.6004 13.7084 24.4865 13.5649 24.0371 13.3081C24.0025 13.2884 16.0731 9.09746 16.0364 9.07734C15.6976 8.89173 15.5153 8.85687 15.235 8.97295C15.2326 8.97394 15.23 8.9752 15.2275 8.97626C15.1866 8.99346 7.3926 13.1065 7.3926 13.1065C6.61385 13.5183 6.53191 13.591 6.13965 14.2174C6.10611 14.271 2.76754 19.5607 2.76754 19.5607C2.76687 19.5618 2.76647 19.5629 2.76581 19.5639L2.08222 20.647C1.92451 20.8972 1.55861 20.9854 1.28276 20.8392C1.14596 20.7671 1.04689 20.6484 1.01096 20.5138C0.989975 20.4351 0.981342 20.3156 1.05937 20.1921C1.05937 20.1921 5.37823 13.3441 5.43368 13.2519C5.66265 12.8711 5.66265 12.8711 6.23169 12.5717C6.23169 12.5717 15.475 7.68161 15.5294 7.65677C15.5838 7.68161 24.827 12.5717 24.827 12.5717C24.8272 12.5718 24.8275 12.572 24.8278 12.5721C25.3961 12.8711 25.3961 12.8711 25.6251 13.252C25.6805 13.3441 25.7457 13.4525 25.8282 13.5831L30.0007 20.1912C30.0782 20.3147 30.0693 20.4348 30.0482 20.5138C30.0121 20.6488 29.9133 20.7675 29.7778 20.8391C29.4972 20.9873 29.1373 20.9005 28.9764 20.6468L28.2929 19.5639C28.2922 19.5628 28.2918 19.5616 28.2912 19.5606ZM33.0039 33.0039H28.368V27.3985H33.0039V33.0039ZM28.368 26.4024V21.4625C28.8536 21.9301 29.614 22.0518 30.2432 21.7198C30.6151 21.5229 30.8904 21.1875 31.0027 20.797H33.0039V26.4025H28.368V26.4024Z" fill="#616161"/>
<path d="M18.9432 15.7962C18.9432 13.9138 17.4117 12.3823 15.5293 12.3823C13.648 12.3823 12.1175 13.9138 12.1175 15.7962C12.1175 17.6786 13.6481 19.2101 15.5293 19.2101C17.4118 19.21 18.9432 17.6786 18.9432 15.7962ZM13.1136 15.7962C13.1136 14.463 14.1973 13.3784 15.5293 13.3784C16.8625 13.3784 17.9471 14.463 17.9471 15.7962C17.9471 17.1294 16.8625 18.214 15.5293 18.214C14.1973 18.2139 13.1136 17.1293 13.1136 15.7962Z" fill="#616161"/>
</g>
<defs>
<clipPath id="clip0_89_907">
<rect width="34" height="34" fill="white"/>
</clipPath>
</defs>
</svg>
