<svg width="34" height="34" viewBox="0 0 34 34" fill="none" xmlns="http://www.w3.org/2000/svg">
<g clip-path="url(#clip0_89_923)">
<path d="M33.9869 16.2586C33.9229 15.6563 33.6282 15.1157 33.1381 14.7207L30.0334 12.4229V6.79998H25.5001V9.06831L17.0337 2.80334L0.885089 14.1671C0.405131 14.536 0.0974356 15.0703 0.0192369 15.6704C-0.0589618 16.2711 0.101402 16.8655 0.470296 17.3455C1.23302 18.336 2.65759 18.5218 3.62601 17.7773L3.96714 17.541V18.8992C3.29962 19.2188 2.83382 19.8954 2.83382 20.6836C2.83382 21.4719 3.29962 22.1485 3.96714 22.4681V24.5658C3.29962 24.8854 2.83382 25.562 2.83382 26.3502C2.83382 27.1384 3.29962 27.815 3.96714 28.1346V30.2324C3.29962 30.552 2.83382 31.2286 2.83382 32.0168C2.83382 33.1104 3.72348 34.0001 4.81712 34.0001H13.0337H14.167H19.8335H20.9669H29.1834C30.277 34.0001 31.1667 33.1104 31.1667 32.0168C31.1667 31.0206 30.4255 30.2012 29.4667 30.0624V28.3046C30.4255 28.1658 31.1667 27.3464 31.1667 26.3502C31.1667 25.354 30.4255 24.5346 29.4667 24.3958V22.6381C30.4255 22.4992 31.1667 21.6798 31.1667 20.6836C31.1667 19.6875 30.4255 18.8681 29.4667 18.7292V17.6486L30.3207 18.2714C30.7366 18.6034 31.2347 18.7644 31.7305 18.7644C32.3924 18.7644 33.0491 18.4765 33.4968 17.9229C33.877 17.452 34.0515 16.861 33.9869 16.2586ZM26.6334 7.93386H28.9001V11.5843L26.6334 9.90696V7.93386ZM13.0337 28.3335V30.0335H5.10045V28.3335H13.0337ZM5.10045 24.3669V22.6669H13.0337V24.3669H5.10045ZM4.81712 25.5002H13.0337V27.2002H4.81712C4.3485 27.2002 3.96714 26.8188 3.96714 26.3502C3.96714 25.8816 4.3485 25.5002 4.81712 25.5002ZM13.0337 32.8668H4.81712C4.3485 32.8668 3.96714 32.4854 3.96714 32.0168C3.96714 31.5482 4.3485 31.1668 4.81712 31.1668H13.0337V32.8668ZM19.8335 32.8668H14.167V30.6001V30.0335V28.3335V27.7669V24.9336V24.3669V22.6669H19.8335V24.3669V24.9336V27.7669V28.3335V30.0335V30.6001V32.8668ZM20.9669 24.3669V22.6669H28.3334V24.3669H20.9669ZM20.9669 30.0335V28.3335H28.3334V30.0335H20.9669ZM30.0334 32.0168C30.0334 32.4854 29.652 32.8668 29.1834 32.8668H20.9669V31.1668H29.1834C29.652 31.1668 30.0334 31.5482 30.0334 32.0168ZM30.0334 26.3502C30.0334 26.8188 29.652 27.2002 29.1834 27.2002H20.9669V25.5002H29.1834C29.652 25.5002 30.0334 25.8816 30.0334 26.3502ZM30.0334 20.6836C30.0334 21.1523 29.652 21.5336 29.1834 21.5336H20.9669H13.0337H4.81712C4.3485 21.5336 3.96714 21.1523 3.96714 20.6836C3.96714 20.215 4.3485 19.8337 4.81712 19.8337H13.6003H20.4002H29.1834C29.652 19.8337 30.0334 20.215 30.0334 20.6836ZM19.2669 18.7003H17.5669V17.0004H19.2669V18.7003ZM19.2669 15.8671H17.5669V14.1671H19.2669V15.8671ZM16.4336 15.8671H14.7336V14.1671H16.4336V15.8671ZM14.7336 17.0004H16.4336V18.7003H14.7336V17.0004ZM22.6668 17.0004H28.3334V18.7003H20.4002V13.0338H13.6003V18.7003H5.10045V17.0004H11.3337C11.647 17.0004 11.9003 16.7471 11.9003 16.4337C11.9003 16.1204 11.647 15.8671 11.3337 15.8671H6.3811L8.83302 14.1671H11.9003V13.0338H10.4678L12.9198 11.3338H20.8127L22.1704 12.3243L23.1428 13.0338H22.1007V14.1671H24.696L27.0261 15.8671H22.6674C22.354 15.8671 22.1007 16.1204 22.1007 16.4337C22.1007 16.7471 22.3535 17.0004 22.6668 17.0004ZM14.554 10.2005L16.9668 8.52772L19.2595 10.2005H14.554ZM32.6145 17.2112C32.2224 17.6962 31.5067 17.7739 31.0205 17.3806L29.4338 16.2229L28.9488 15.8671H28.9465L26.617 14.1671H26.6181L21.1816 10.2005L16.9827 7.13657L12.5645 10.2005L6.84349 14.1671H6.84462L4.35756 15.8914L4.35417 15.892L4.15357 16.0331L2.95792 16.8621C2.46153 17.2429 1.74867 17.15 1.36845 16.6553C1.18372 16.415 1.10382 16.1175 1.14292 15.8172C1.18202 15.5169 1.33615 15.25 1.55601 15.0794L17.0173 4.20129L25.5001 10.4781L26.7451 11.3995L32.4456 15.6177C32.6808 15.8076 32.8287 16.0784 32.8599 16.3793C32.8922 16.6796 32.8049 16.9754 32.6145 17.2112Z" fill="#616161"/>
<path d="M15.3003 28.3335C15.6133 28.3335 15.867 28.0798 15.867 27.7669C15.867 27.4539 15.6133 27.2002 15.3003 27.2002C14.9873 27.2002 14.7336 27.4539 14.7336 27.7669C14.7336 28.0798 14.9873 28.3335 15.3003 28.3335Z" fill="#616161"/>
<path d="M26.6334 6.2339C26.7808 6.2339 26.9281 6.17157 27.0358 6.06957C27.1378 5.9619 27.2001 5.81457 27.2001 5.66724C27.2001 5.51991 27.1378 5.37201 27.0358 5.26491C26.8261 5.05525 26.4408 5.05525 26.2311 5.26491C26.1285 5.37201 26.0668 5.51991 26.0668 5.66724C26.0668 5.81457 26.1285 5.9619 26.2311 6.06957C26.3382 6.171 26.4861 6.2339 26.6334 6.2339Z" fill="#616161"/>
<path d="M28.9 6.23381C29.2134 6.23381 29.4667 5.98051 29.4667 5.66715V3.40052C29.4667 3.08716 29.2134 2.83386 28.9 2.83386C28.5867 2.83386 28.3334 3.08716 28.3334 3.40052V5.66715C28.3334 5.97994 28.5867 6.23381 28.9 6.23381Z" fill="#616161"/>
<path d="M28.9 2.26724C29.2134 2.26724 29.4667 2.01394 29.4667 1.70058V0.567268C29.4667 0.253906 29.2134 0.000610352 28.9 0.000610352C28.5867 0.000610352 28.3334 0.253906 28.3334 0.567268V1.70058C28.3334 2.01338 28.5867 2.26724 28.9 2.26724Z" fill="#616161"/>
<path d="M26.6334 4.53384C26.9468 4.53384 27.2001 4.28054 27.2001 3.96718V2.83387C27.2001 2.52051 26.9468 2.26721 26.6334 2.26721C26.3201 2.26721 26.0668 2.52051 26.0668 2.83387V3.96718C26.0668 4.27998 26.3201 4.53384 26.6334 4.53384Z" fill="#616161"/>
<path d="M26.6334 1.70058C26.9468 1.70058 27.2001 1.44729 27.2001 1.13392V0.567268C27.2001 0.253906 26.9468 0.000610352 26.6334 0.000610352C26.3201 0.000610352 26.0668 0.253906 26.0668 0.567268V1.13392C26.0668 1.44672 26.3201 1.70058 26.6334 1.70058Z" fill="#616161"/>
</g>
<defs>
<clipPath id="clip0_89_923">
<rect width="34" height="34" fill="white"/>
</clipPath>
</defs>
</svg>
