<svg width="34" height="34" viewBox="0 0 34 34" fill="none" xmlns="http://www.w3.org/2000/svg">
<path d="M27.625 29.75H26.0312L25.0006 11.6875H25.5C25.8461 11.6863 26.1824 11.5725 26.4581 11.3632C26.7338 11.1539 26.9339 10.8606 27.0281 10.5276C27.1223 10.1945 27.1055 9.83987 26.9803 9.5172C26.8551 9.19453 26.6283 8.92139 26.3341 8.73906L28.0659 6.13594C28.124 6.0495 28.1554 5.94789 28.1562 5.84375V0.53125C28.1562 0.390354 28.1003 0.255228 28.0007 0.1556C27.901 0.0559708 27.7659 0 27.625 0L24.9688 0C24.8279 0 24.6927 0.0559708 24.5931 0.1556C24.4935 0.255228 24.4375 0.390354 24.4375 0.53125V2.125H22.3125V0.53125C22.3125 0.390354 22.2565 0.255228 22.1569 0.1556C22.0573 0.0559708 21.9221 0 21.7812 0L18.5938 0C18.4529 0 18.3177 0.0559708 18.2181 0.1556C18.1185 0.255228 18.0625 0.390354 18.0625 0.53125V2.125H15.9375V0.53125C15.9375 0.390354 15.8815 0.255228 15.7819 0.1556C15.6823 0.0559708 15.5471 0 15.4062 0L12.2188 0C12.0779 0 11.9427 0.0559708 11.8431 0.1556C11.7435 0.255228 11.6875 0.390354 11.6875 0.53125V2.125H9.5625V0.53125C9.5625 0.390354 9.50653 0.255228 9.4069 0.1556C9.30727 0.0559708 9.17215 0 9.03125 0L6.375 0C6.2341 0 6.09898 0.0559708 5.99935 0.1556C5.89972 0.255228 5.84375 0.390354 5.84375 0.53125V5.84375C5.84299 5.94735 5.87253 6.04891 5.92875 6.13594L7.66062 8.73906C7.36604 8.92163 7.139 9.19524 7.0139 9.51844C6.88879 9.84164 6.87245 10.1968 6.96734 10.5301C7.06223 10.8635 7.26319 11.1568 7.53976 11.3656C7.81633 11.5745 8.15343 11.6875 8.5 11.6875H8.99938L7.99531 29.75H6.375C5.67052 29.75 4.99489 30.0299 4.49675 30.528C3.9986 31.0261 3.71875 31.7018 3.71875 32.4062V33.4688C3.71875 33.6096 3.77472 33.7448 3.87435 33.8444C3.97398 33.944 4.1091 34 4.25 34H29.75C29.8909 34 30.026 33.944 30.1257 33.8444C30.2253 33.7448 30.2812 33.6096 30.2812 33.4688V32.4062C30.2812 31.7018 30.0014 31.0261 29.5033 30.528C29.0051 30.0299 28.3295 29.75 27.625 29.75ZM8.5 1.0625V2.65625C8.5 2.79715 8.55597 2.93227 8.6556 3.0319C8.75523 3.13153 8.89035 3.1875 9.03125 3.1875H12.2188C12.3596 3.1875 12.4948 3.13153 12.5944 3.0319C12.694 2.93227 12.75 2.79715 12.75 2.65625V1.0625H14.875V2.65625C14.875 2.79715 14.931 2.93227 15.0306 3.0319C15.1302 3.13153 15.2654 3.1875 15.4062 3.1875H18.5938C18.7346 3.1875 18.8698 3.13153 18.9694 3.0319C19.069 2.93227 19.125 2.79715 19.125 2.65625V1.0625H21.25V2.65625C21.25 2.79715 21.306 2.93227 21.4056 3.0319C21.5052 3.13153 21.6404 3.1875 21.7812 3.1875H24.9688C25.1096 3.1875 25.2448 3.13153 25.3444 3.0319C25.444 2.93227 25.5 2.79715 25.5 2.65625V1.0625H27.0938V5.3125H6.90625V1.0625H8.5ZM26.6316 6.375L25.2131 8.5H8.78688L7.36844 6.375H26.6316ZM7.96875 10.0938C7.96875 9.95285 8.02472 9.81773 8.12435 9.7181C8.22398 9.61847 8.3591 9.5625 8.5 9.5625H25.5C25.6409 9.5625 25.776 9.61847 25.8757 9.7181C25.9753 9.81773 26.0312 9.95285 26.0312 10.0938C26.0312 10.2346 25.9753 10.3698 25.8757 10.4694C25.776 10.569 25.6409 10.625 25.5 10.625H8.5C8.3591 10.625 8.22398 10.569 8.12435 10.4694C8.02472 10.3698 7.96875 10.2346 7.96875 10.0938ZM9.82812 15.9375H13.8125C13.9534 15.9375 14.0885 15.8815 14.1882 15.7819C14.2878 15.6823 14.3438 15.5471 14.3438 15.4062C14.3438 15.2654 14.2878 15.1302 14.1882 15.0306C14.0885 14.931 13.9534 14.875 13.8125 14.875H9.88656L10.0938 11.6875H23.9594L24.4322 20.1875H20.1875C20.0466 20.1875 19.9115 20.2435 19.8118 20.3431C19.7122 20.4427 19.6562 20.5779 19.6562 20.7188C19.6562 20.8596 19.7122 20.9948 19.8118 21.0944C19.9115 21.194 20.0466 21.25 20.1875 21.25H24.4375L24.7669 27.0938H21.7812C21.6404 27.0938 21.5052 27.1497 21.4056 27.2493C21.306 27.349 21.25 27.4841 21.25 27.625C21.25 27.7659 21.306 27.901 21.4056 28.0007C21.5052 28.1003 21.6404 28.1562 21.7812 28.1562H24.8519L24.9369 29.75H20.1875V27.625C20.1875 26.7796 19.8517 25.9689 19.2539 25.3711C18.6561 24.7733 17.8454 24.4375 17 24.4375C16.1546 24.4375 15.3439 24.7733 14.7461 25.3711C14.1483 25.9689 13.8125 26.7796 13.8125 27.625V29.75H9.06312L9.82812 15.9375ZM19.125 29.75H14.875V27.625C14.875 27.0614 15.0989 26.5209 15.4974 26.1224C15.8959 25.7239 16.4364 25.5 17 25.5C17.5636 25.5 18.1041 25.7239 18.5026 26.1224C18.9011 26.5209 19.125 27.0614 19.125 27.625V29.75ZM29.2188 32.9375H4.78125V32.4062C4.78125 31.9836 4.94916 31.5782 5.24805 31.2793C5.54693 30.9804 5.95231 30.8125 6.375 30.8125H27.625C28.0477 30.8125 28.4531 30.9804 28.752 31.2793C29.0508 31.5782 29.2188 31.9836 29.2188 32.4062V32.9375Z" fill="#616161"/>
<path d="M11.1562 22.3125H14.3438C14.4846 22.3125 14.6198 22.2565 14.7194 22.1569C14.819 22.0573 14.875 21.9221 14.875 21.7812V20.1875C14.875 19.6239 14.6511 19.0834 14.2526 18.6849C13.8541 18.2864 13.3136 18.0625 12.75 18.0625C12.1864 18.0625 11.6459 18.2864 11.2474 18.6849C10.8489 19.0834 10.625 19.6239 10.625 20.1875V21.7812C10.625 21.9221 10.681 22.0573 10.7806 22.1569C10.8802 22.2565 11.0154 22.3125 11.1562 22.3125ZM11.6875 20.1875C11.6875 19.9057 11.7994 19.6355 11.9987 19.4362C12.198 19.2369 12.4682 19.125 12.75 19.125C13.0318 19.125 13.302 19.2369 13.5013 19.4362C13.7006 19.6355 13.8125 19.9057 13.8125 20.1875V21.25H11.6875V20.1875Z" fill="#616161"/>
<path d="M19.6562 17H22.8438C22.9846 17 23.1198 16.944 23.2194 16.8444C23.319 16.7448 23.375 16.6096 23.375 16.4688V14.875C23.375 14.3114 23.1511 13.7709 22.7526 13.3724C22.3541 12.9739 21.8136 12.75 21.25 12.75C20.6864 12.75 20.1459 12.9739 19.7474 13.3724C19.3489 13.7709 19.125 14.3114 19.125 14.875V16.4688C19.125 16.6096 19.181 16.7448 19.2806 16.8444C19.3802 16.944 19.5154 17 19.6562 17ZM20.1875 14.875C20.1875 14.5932 20.2994 14.323 20.4987 14.1237C20.698 13.9244 20.9682 13.8125 21.25 13.8125C21.5318 13.8125 21.802 13.9244 22.0013 14.1237C22.2006 14.323 22.3125 14.5932 22.3125 14.875V15.9375H20.1875V14.875Z" fill="#616161"/>
<path d="M18.5938 20.1875H17.5312C17.3904 20.1875 17.2552 20.2435 17.1556 20.3431C17.056 20.4427 17 20.5779 17 20.7188C17 20.8596 17.056 20.9948 17.1556 21.0944C17.2552 21.194 17.3904 21.25 17.5312 21.25H18.5938C18.7346 21.25 18.8698 21.194 18.9694 21.0944C19.069 20.9948 19.125 20.8596 19.125 20.7188C19.125 20.5779 19.069 20.4427 18.9694 20.3431C18.8698 20.2435 18.7346 20.1875 18.5938 20.1875Z" fill="#616161"/>
<path d="M13.8125 23.9062H18.0625C18.2034 23.9062 18.3385 23.8503 18.4382 23.7507C18.5378 23.651 18.5938 23.5159 18.5938 23.375C18.5938 23.2341 18.5378 23.099 18.4382 22.9993C18.3385 22.8997 18.2034 22.8438 18.0625 22.8438H13.8125C13.6716 22.8438 13.5365 22.8997 13.4368 22.9993C13.3372 23.099 13.2812 23.2341 13.2812 23.375C13.2812 23.5159 13.3372 23.651 13.4368 23.7507C13.5365 23.8503 13.6716 23.9062 13.8125 23.9062Z" fill="#616161"/>
<path d="M19.125 23.375C19.125 23.5159 19.181 23.651 19.2806 23.7507C19.3802 23.8503 19.5154 23.9062 19.6562 23.9062H20.7188C20.8596 23.9062 20.9948 23.8503 21.0944 23.7507C21.194 23.651 21.25 23.5159 21.25 23.375C21.25 23.2341 21.194 23.099 21.0944 22.9993C20.9948 22.8997 20.8596 22.8438 20.7188 22.8438H19.6562C19.5154 22.8438 19.3802 22.8997 19.2806 22.9993C19.181 23.099 19.125 23.2341 19.125 23.375Z" fill="#616161"/>
<path d="M20.1875 18.0625H15.9375C15.7966 18.0625 15.6615 18.1185 15.5618 18.2181C15.4622 18.3177 15.4062 18.4529 15.4062 18.5938C15.4062 18.7346 15.4622 18.8698 15.5618 18.9694C15.6615 19.069 15.7966 19.125 15.9375 19.125H20.1875C20.3284 19.125 20.4635 19.069 20.5632 18.9694C20.6628 18.8698 20.7188 18.7346 20.7188 18.5938C20.7188 18.4529 20.6628 18.3177 20.5632 18.2181C20.4635 18.1185 20.3284 18.0625 20.1875 18.0625Z" fill="#616161"/>
<path d="M22.8438 18.0625H21.7812C21.6404 18.0625 21.5052 18.1185 21.4056 18.2181C21.306 18.3177 21.25 18.4529 21.25 18.5938C21.25 18.7346 21.306 18.8698 21.4056 18.9694C21.5052 19.069 21.6404 19.125 21.7812 19.125H22.8438C22.9846 19.125 23.1198 19.069 23.2194 18.9694C23.319 18.8698 23.375 18.7346 23.375 18.5938C23.375 18.4529 23.319 18.3177 23.2194 18.2181C23.1198 18.1185 22.9846 18.0625 22.8438 18.0625Z" fill="#616161"/>
<path d="M15.4062 15.9375H16.4688C16.6096 15.9375 16.7448 15.8815 16.8444 15.7819C16.944 15.6823 17 15.5471 17 15.4062C17 15.2654 16.944 15.1302 16.8444 15.0306C16.7448 14.931 16.6096 14.875 16.4688 14.875H15.4062C15.2654 14.875 15.1302 14.931 15.0306 15.0306C14.931 15.1302 14.875 15.2654 14.875 15.4062C14.875 15.5471 14.931 15.6823 15.0306 15.7819C15.1302 15.8815 15.2654 15.9375 15.4062 15.9375Z" fill="#616161"/>
<path d="M12.2188 27.0938H11.1562C11.0154 27.0938 10.8802 27.1497 10.7806 27.2493C10.681 27.349 10.625 27.4841 10.625 27.625C10.625 27.7659 10.681 27.901 10.7806 28.0007C10.8802 28.1003 11.0154 28.1562 11.1562 28.1562H12.2188C12.3596 28.1562 12.4948 28.1003 12.5944 28.0007C12.694 27.901 12.75 27.7659 12.75 27.625C12.75 27.4841 12.694 27.349 12.5944 27.2493C12.4948 27.1497 12.3596 27.0938 12.2188 27.0938Z" fill="#616161"/>
<path d="M13.8125 12.75H12.75C12.6091 12.75 12.474 12.806 12.3743 12.9056C12.2747 13.0052 12.2188 13.1404 12.2188 13.2812C12.2188 13.4221 12.2747 13.5573 12.3743 13.6569C12.474 13.7565 12.6091 13.8125 12.75 13.8125H13.8125C13.9534 13.8125 14.0885 13.7565 14.1882 13.6569C14.2878 13.5573 14.3438 13.4221 14.3438 13.2812C14.3438 13.1404 14.2878 13.0052 14.1882 12.9056C14.0885 12.806 13.9534 12.75 13.8125 12.75Z" fill="#616161"/>
</svg>
