<svg width="34" height="34" viewBox="0 0 34 34" fill="none" xmlns="http://www.w3.org/2000/svg">
<path d="M26.2484 22.3874H7.78751C7.56776 22.3874 7.38947 22.2091 7.38947 21.9894V10.0368C7.38947 9.81709 7.56776 9.63879 7.78751 9.63879H26.2491C26.4689 9.63879 26.6472 9.81709 26.6472 10.0368V21.9894C26.6465 22.2091 26.4689 22.3874 26.2484 22.3874ZM8.18556 21.5913H25.8511V10.4349H8.18556V21.5913Z" fill="#616161"/>
<path d="M27.6443 10.4349H22.431C22.3101 10.4349 22.1954 10.3797 22.12 10.285L18.2024 5.37571C18.1071 5.25616 18.0884 5.09238 18.1547 4.95486C18.2211 4.81734 18.3607 4.72957 18.5134 4.72957H23.1829C23.2948 4.72957 23.4019 4.77656 23.4773 4.86018L27.938 9.77014C28.0438 9.88693 28.0714 10.0549 28.0071 10.1986C27.9443 10.3423 27.8019 10.4349 27.6443 10.4349ZM22.6224 9.63884H26.7446L23.0067 5.52498H19.3399L22.6224 9.63884ZM11.6049 10.4349H6.39158C6.23402 10.4349 6.09166 10.3423 6.02739 10.1979C5.96381 10.0542 5.99077 9.88555 6.0965 9.76945L10.558 4.85949C10.6333 4.77656 10.7404 4.72888 10.8524 4.72888H15.5218C15.6745 4.72888 15.8141 4.81665 15.8805 4.95417C15.9468 5.09169 15.9282 5.25547 15.8328 5.37502L11.9159 10.285C11.8406 10.3803 11.7265 10.4349 11.6049 10.4349ZM7.29133 9.63884H11.4135L14.6953 5.52498H11.0293L7.29133 9.63884Z" fill="#616161"/>
<path d="M22.431 10.4349H11.6049C11.4522 10.4349 11.3126 10.3472 11.2463 10.2097C11.1799 10.0721 11.1986 9.90835 11.2939 9.7888L16.707 3.0047C16.7823 2.91002 16.897 2.85474 17.018 2.85474C17.1389 2.85474 17.2536 2.91002 17.3289 3.0047L22.742 9.7888C22.8373 9.90835 22.856 10.0721 22.7897 10.2097C22.7233 10.3479 22.5837 10.4349 22.431 10.4349ZM12.4321 9.63884H21.6038L17.018 3.89132L12.4321 9.63884Z" fill="#616161"/>
<path d="M17.018 9.03069C16.0913 9.03069 15.338 8.27675 15.338 7.35074C15.338 6.42403 16.092 5.67078 17.018 5.67078C17.9447 5.67078 18.6979 6.42472 18.6979 7.35074C18.6979 8.27675 17.9447 9.03069 17.018 9.03069ZM17.018 6.46618C16.5308 6.46618 16.1341 6.86285 16.1341 7.35004C16.1341 7.83724 16.5308 8.23391 17.018 8.23391C17.5052 8.23391 17.9018 7.83724 17.9018 7.35004C17.9018 6.86285 17.5052 6.46618 17.018 6.46618Z" fill="#616161"/>
<path d="M27.6699 24.0294H6.36604C6.14628 24.0294 5.96799 23.8511 5.96799 23.6313V21.9894C5.96799 21.7696 6.14628 21.5913 6.36604 21.5913H27.6699C27.8897 21.5913 28.068 21.7696 28.068 21.9894V23.6313C28.068 23.8511 27.8897 24.0294 27.6699 24.0294ZM6.76408 23.2333H27.2712V22.3874H6.76408V23.2333Z" fill="#616161"/>
<path d="M19.0269 22.3875H15.0084C14.7886 22.3875 14.6103 22.2092 14.6103 21.9895V16.5923C14.6103 15.819 15.2392 15.1895 16.0132 15.1895H18.0228C18.7961 15.1895 19.4256 15.8183 19.4256 16.5923V21.9895C19.4249 22.2092 19.2473 22.3875 19.0269 22.3875ZM15.4064 21.5914H18.6288V16.5923C18.6288 16.2578 18.3565 15.9856 18.0221 15.9856H16.0125C15.678 15.9856 15.4057 16.2578 15.4057 16.5923V21.5914H15.4064Z" fill="#616161"/>
<path d="M13.2918 19.1423H9.13648C8.91673 19.1423 8.73843 18.964 8.73843 18.7442V15.3808C8.73843 15.1611 8.91673 14.9828 9.13648 14.9828H13.2918C13.5116 14.9828 13.6899 15.1611 13.6899 15.3808V18.7442C13.6899 18.964 13.5116 19.1423 13.2918 19.1423ZM9.53453 18.3462H12.8938V15.7789H9.53453V18.3462Z" fill="#616161"/>
<path d="M11.2145 19.1423C10.9947 19.1423 10.8164 18.964 10.8164 18.7442V15.3808C10.8164 15.1611 10.9947 14.9828 11.2145 14.9828C11.4342 14.9828 11.6125 15.1611 11.6125 15.3808V18.7442C11.6125 18.964 11.4342 19.1423 11.2145 19.1423Z" fill="#616161"/>
<path d="M24.8546 19.2604H20.6992C20.4795 19.2604 20.3012 19.0821 20.3012 18.8624V15.499C20.3012 15.2792 20.4795 15.101 20.6992 15.101H24.8546C25.0743 15.101 25.2526 15.2792 25.2526 15.499V18.8624C25.2526 19.0821 25.0743 19.2604 24.8546 19.2604ZM21.0973 18.4643H24.4565V15.897H21.0973V18.4643Z" fill="#616161"/>
<path d="M22.7772 19.2604C22.5575 19.2604 22.3792 19.0821 22.3792 18.8624V15.499C22.3792 15.2792 22.5575 15.101 22.7772 15.101C22.997 15.101 23.1753 15.2792 23.1753 15.499V18.8624C23.1753 19.0821 22.997 19.2604 22.7772 19.2604Z" fill="#616161"/>
<path d="M13.2918 17.6683H9.13648C8.91673 17.6683 8.73843 17.49 8.73843 17.2702C8.73843 17.0505 8.91673 16.8722 9.13648 16.8722H13.2918C13.5116 16.8722 13.6899 17.0505 13.6899 17.2702C13.6899 17.49 13.5116 17.6683 13.2918 17.6683Z" fill="#616161"/>
<path d="M24.8546 17.7865H20.6992C20.4795 17.7865 20.3012 17.6082 20.3012 17.3884C20.3012 17.1686 20.4795 16.9904 20.6992 16.9904H24.8546C25.0743 16.9904 25.2526 17.1686 25.2526 17.3884C25.2526 17.6082 25.0743 17.7865 24.8546 17.7865Z" fill="#616161"/>
<path d="M30.6332 24.0294H3.40278C3.18302 24.0294 3.00473 23.8511 3.00473 23.6313C3.00473 23.4116 3.18302 23.2333 3.40278 23.2333H30.6332C30.8529 23.2333 31.0312 23.4116 31.0312 23.6313C31.0312 23.8511 30.8529 24.0294 30.6332 24.0294Z" fill="#616161"/>
<path d="M13.8288 26.9926C12.5448 26.9926 11.3962 26.7535 10.2684 26.5185C8.19457 26.0866 6.23611 25.6789 3.52441 26.7404C3.31985 26.8205 3.08904 26.7196 3.00888 26.5144C2.92872 26.3098 3.02961 26.079 3.23416 25.9989C6.16632 24.8517 8.33416 25.303 10.4308 25.7397C12.4252 26.1551 14.3083 26.5469 16.8922 25.6817C19.6799 24.7481 21.7586 25.1807 23.7689 25.5994C25.8428 26.0314 27.8012 26.4391 30.5129 25.3776C30.7182 25.2975 30.9483 25.3983 31.0285 25.6036C31.1086 25.8088 31.0077 26.039 30.8025 26.1191C27.8703 27.2663 25.7025 26.815 23.6058 26.3783C21.6114 25.9629 19.7283 25.5711 17.1444 26.4363C15.9206 26.8461 14.8329 26.9926 13.8288 26.9926Z" fill="#616161"/>
<path d="M13.8288 29.1204C12.5448 29.1204 11.3962 28.8813 10.2684 28.6464C8.19457 28.2144 6.23611 27.8067 3.52441 28.8682C3.31985 28.9483 3.08904 28.8475 3.00888 28.6422C2.92872 28.4377 3.02961 28.2068 3.23416 28.1267C6.16632 26.9795 8.33416 27.4308 10.4308 27.8675C12.4252 28.2829 14.3083 28.6747 16.8922 27.8095C19.6799 26.8759 21.7586 27.3085 23.7689 27.7273C25.8428 28.1592 27.8012 28.5669 30.5129 27.5054C30.7182 27.4253 30.9483 27.5262 31.0285 27.7314C31.1086 27.9366 31.0077 28.1668 30.8025 28.2469C27.8703 29.3941 25.7025 28.9428 23.6058 28.5061C21.6114 28.0907 19.7283 27.6989 17.1444 28.5641C15.9206 28.9739 14.8329 29.1204 13.8288 29.1204Z" fill="#616161"/>
<path d="M13.8288 31.2475C12.5448 31.2475 11.3962 31.0084 10.2684 30.7734C8.19457 30.3415 6.23611 29.9338 3.52441 30.9953C3.31985 31.0754 3.08904 30.9745 3.00888 30.7693C2.92872 30.5647 3.02961 30.3339 3.23416 30.2538C6.16632 29.1066 8.33416 29.5579 10.4308 29.9946C12.4252 30.4099 14.3083 30.8018 16.8922 29.9366C19.6799 29.0029 21.7586 29.4355 23.7689 29.8543C25.8428 30.2862 27.8012 30.694 30.5129 29.6332C30.7182 29.553 30.9483 29.6539 31.0285 29.8592C31.1086 30.0644 31.0077 30.2945 30.8025 30.3747C27.8703 31.5218 25.7025 31.0706 23.6058 30.6338C21.6114 30.2185 19.7283 29.8267 17.1444 30.6919C15.9206 31.101 14.8329 31.2475 13.8288 31.2475Z" fill="#616161"/>
<path d="M30.0264 22.442C28.7494 22.442 27.7107 21.4033 27.7107 20.1263C27.7107 19.5112 27.9595 18.9204 28.3886 18.4892C28.3119 18.2915 28.2725 18.0807 28.2725 17.8651C28.2725 16.9129 29.0472 16.1382 29.9995 16.1382C30.9518 16.1382 31.7264 16.9129 31.7264 17.8651C31.7264 18.0655 31.6919 18.2632 31.6248 18.4491C32.0796 18.8831 32.3428 19.4884 32.3428 20.1256C32.3428 21.4027 31.3042 22.442 30.0264 22.442ZM29.9995 16.9343C29.486 16.9343 29.0686 17.3517 29.0686 17.8651C29.0686 18.0448 29.1198 18.2196 29.2172 18.3696C29.3312 18.5458 29.2891 18.7801 29.1205 18.9052C28.7307 19.1954 28.5068 19.6405 28.5068 20.1256C28.5068 20.9638 29.1889 21.6459 30.0271 21.6459C30.8654 21.6459 31.5474 20.9638 31.5474 20.1256C31.5474 19.6329 31.307 19.1685 30.9041 18.8838C30.7327 18.7628 30.685 18.5292 30.7949 18.3509C30.884 18.2051 30.9317 18.0372 30.9317 17.8651C30.9303 17.3517 30.5129 16.9343 29.9995 16.9343Z" fill="#616161"/>
<path d="M30.0264 24.0294C29.8067 24.0294 29.6284 23.8511 29.6284 23.6314V19.2901C29.6284 19.0704 29.8067 18.8921 30.0264 18.8921C30.2462 18.8921 30.4245 19.0704 30.4245 19.2901V23.6314C30.4245 23.8511 30.2469 24.0294 30.0264 24.0294Z" fill="#616161"/>
<path d="M30.0271 20.5209C29.9221 20.5209 29.8171 20.4794 29.739 20.3972C29.5876 20.2376 29.5938 19.986 29.7528 19.8347L30.486 19.1374C30.6456 18.9861 30.8972 18.9923 31.0485 19.1512C31.1999 19.3109 31.1936 19.5624 31.0347 19.7137L30.3015 20.411C30.2241 20.485 30.1253 20.5209 30.0271 20.5209Z" fill="#616161"/>
<path d="M30.0264 21.3599C29.9276 21.3599 29.8295 21.3233 29.7521 21.25L29.0189 20.5528C28.8599 20.4014 28.853 20.1492 29.005 19.9902C29.1564 19.8313 29.4086 19.8244 29.5676 19.9764L30.3008 20.6737C30.4597 20.825 30.4666 21.0773 30.3146 21.2362C30.2372 21.3191 30.1322 21.3599 30.0264 21.3599Z" fill="#616161"/>
<path d="M4.00952 22.442C2.73245 22.442 1.69379 21.4033 1.69379 20.1263C1.69379 19.5112 1.94257 18.9204 2.37171 18.4892C2.29501 18.2915 2.25562 18.0807 2.25562 17.8651C2.25562 16.9129 3.03029 16.1382 3.98257 16.1382C4.93484 16.1382 5.70952 16.9129 5.70952 17.8651C5.70952 18.0655 5.67497 18.2632 5.60793 18.4491C6.06265 18.8831 6.32594 19.4884 6.32594 20.1256C6.32525 21.4027 5.28659 22.442 4.00952 22.442ZM3.98188 16.9343C3.46842 16.9343 3.05102 17.3517 3.05102 17.8651C3.05102 18.0448 3.10216 18.2196 3.1996 18.3696C3.31362 18.5458 3.27147 18.7801 3.10285 18.9052C2.7131 19.1954 2.48919 19.6405 2.48919 20.1256C2.48919 20.9638 3.17127 21.6459 4.00952 21.6459C4.84777 21.6459 5.52984 20.9638 5.52984 20.1256C5.52984 19.6329 5.28936 19.1685 4.88647 18.8838C4.71509 18.7628 4.6674 18.5292 4.77728 18.3509C4.86643 18.2051 4.91411 18.0372 4.91411 17.8651C4.91273 17.3517 4.49533 16.9343 3.98188 16.9343Z" fill="#616161"/>
<path d="M4.00953 24.0294C3.78977 24.0294 3.61148 23.8511 3.61148 23.6314V19.2901C3.61148 19.0704 3.78977 18.8921 4.00953 18.8921C4.22929 18.8921 4.40758 19.0704 4.40758 19.2901V23.6314C4.40689 23.8511 4.22929 24.0294 4.00953 24.0294Z" fill="#616161"/>
<path d="M4.00952 20.5209C3.90448 20.5209 3.79944 20.4794 3.72135 20.3972C3.57001 20.2376 3.57623 19.986 3.73517 19.8347L4.46839 19.1374C4.62802 18.9861 4.87957 18.9923 5.03091 19.1512C5.18225 19.3109 5.17603 19.5624 5.01708 19.7137L4.28387 20.411C4.20648 20.485 4.10765 20.5209 4.00952 20.5209Z" fill="#616161"/>
<path d="M4.00884 21.3599C3.91002 21.3599 3.81189 21.3233 3.73449 21.25L3.00128 20.5527C2.84234 20.4014 2.83543 20.1492 2.98746 19.9902C3.1388 19.8313 3.39104 19.825 3.54998 19.9764L4.28319 20.6737C4.44213 20.825 4.44904 21.0772 4.29701 21.2362C4.21961 21.3191 4.11457 21.3599 4.00884 21.3599Z" fill="#616161"/>
</svg>
