<svg width="34" height="34" viewBox="0 0 34 34" fill="none" xmlns="http://www.w3.org/2000/svg">
<g clip-path="url(#clip0_89_922)">
<path d="M7.32284 31.2991L6.89691 30.3259C11.138 28.4694 15.5516 27.0351 20.0739 26.0437C20.2881 25.9968 20.5039 25.9556 20.7187 25.9107V21.25H20.1875C20.0824 21.25 19.9797 21.2188 19.8924 21.1605C19.805 21.1021 19.7369 21.0191 19.6967 20.9221C19.6565 20.825 19.646 20.7182 19.6665 20.6151C19.687 20.5121 19.7376 20.4174 19.8119 20.3431L24.0619 16.0931C24.1112 16.0438 24.1698 16.0047 24.2342 15.978C24.2987 15.9512 24.3678 15.9375 24.4375 15.9375C24.5073 15.9375 24.5764 15.9512 24.6408 15.978C24.7053 16.0047 24.7638 16.0438 24.8131 16.0931L29.0631 20.3431C29.1374 20.4174 29.188 20.5121 29.2085 20.6151C29.229 20.7182 29.2185 20.825 29.1783 20.9221C29.1381 21.0191 29.07 21.1021 28.9826 21.1605C28.8953 21.2188 28.7926 21.25 28.6875 21.25H28.1562V24.7659C29.9189 24.5907 31.6856 24.4813 33.4563 24.4375L33.4812 25.5C29.0474 25.605 24.6339 26.1345 20.3011 27.0813C15.8471 28.0581 11.5001 29.4708 7.32284 31.2991ZM23.9062 25.3207C24.2601 25.2636 24.6139 25.206 24.9687 25.1543V23.375H23.9062V25.3207ZM21.7812 25.6929C22.1345 25.6248 22.4892 25.5631 22.8437 25.5003V22.8437C22.8437 22.774 22.8575 22.7049 22.8842 22.6404C22.9108 22.576 22.95 22.5174 22.9993 22.468C23.0486 22.4187 23.1072 22.3796 23.1717 22.3529C23.2361 22.3262 23.3052 22.3125 23.375 22.3125H25.5C25.5698 22.3125 25.6389 22.3262 25.7033 22.3529C25.7678 22.3796 25.8264 22.4187 25.8757 22.468C25.925 22.5174 25.9642 22.576 25.9908 22.6404C26.0175 22.7049 26.0313 22.774 26.0312 22.8437V25.0119C26.3851 24.9659 26.7391 24.9212 27.0937 24.8805V21.25H21.7812V25.6929ZM27.405 20.1875L24.4375 17.22L21.47 20.1875H27.405Z" fill="#616161"/>
<path d="M11.2582 32.3736L10.8919 31.3764C13.8885 30.2775 16.9562 29.3833 20.0739 28.6999C24.4732 27.7384 28.9544 27.2006 33.4563 27.0938L33.4812 28.1563C29.0474 28.2613 24.6339 28.7908 20.3011 29.7375C17.2307 30.4108 14.2094 31.2915 11.2582 32.3736Z" fill="#616161"/>
<path d="M16.0835 33.5169L15.7915 32.4949C17.2018 32.0923 18.6428 31.7291 20.0739 31.4158C24.4732 30.4543 28.9544 29.9164 33.4563 29.8096L33.4812 30.8721C29.0474 30.9771 24.6339 31.5066 20.3011 32.4534C18.8915 32.7621 17.4724 33.12 16.0835 33.5169Z" fill="#616161"/>
<path d="M4.78132 7.88618V4.78126H4.25007C4.14155 4.78128 4.03562 4.74805 3.94655 4.68605C3.85748 4.62405 3.78954 4.53625 3.75187 4.43447C3.71421 4.33269 3.70863 4.22182 3.73588 4.11677C3.76313 4.01172 3.8219 3.91754 3.90429 3.84691L7.62304 0.659407C7.7192 0.576569 7.84191 0.531006 7.96882 0.531006C8.09574 0.531006 8.21844 0.576569 8.3146 0.659407L12.0334 3.84691C12.1157 3.91754 12.1745 4.01172 12.2018 4.11677C12.229 4.22182 12.2234 4.33269 12.1858 4.43447C12.1481 4.53625 12.0802 4.62405 11.9911 4.68605C11.902 4.74805 11.7961 4.78128 11.6876 4.78126H11.1563V8.90748C12.9833 9.25968 14.7973 9.66047 16.5983 10.1099C18.3011 10.5375 19.8508 10.9673 21.2501 11.3835V9.51088C20.7706 9.43263 20.339 9.17471 20.0429 8.78956C19.7469 8.40441 19.6086 7.92095 19.6563 7.43751C19.6563 6.60847 20.235 2.55095 21.7813 2.55095C23.3276 2.55095 23.9063 6.60847 23.9063 7.43751C23.954 7.92095 23.8158 8.4044 23.5197 8.78955C23.2237 9.17469 22.792 9.43261 22.3126 9.51086V11.7056C23.7337 12.1452 24.9766 12.5638 26.0313 12.9409V11.1046C25.5519 11.0264 25.1202 10.7684 24.8242 10.3833C24.5281 9.99815 24.3899 9.5147 24.4376 9.03126C24.4376 8.20222 25.0163 4.1447 26.5626 4.1447C28.1089 4.1447 28.6876 8.20222 28.6876 9.03126C28.7353 9.5147 28.597 9.99815 28.301 10.3833C28.0049 10.7684 27.5733 11.0264 27.0938 11.1046V13.3302C28.2976 13.7811 29.1871 14.1503 29.7332 14.3879C30.8987 14.8947 32.0567 15.4348 33.1749 15.9935L32.7002 16.944C31.5986 16.3935 30.4577 15.8618 29.3094 15.3622C25.1046 13.6139 20.7676 12.2021 16.3394 11.1402C11.1348 9.83463 5.83338 8.95101 0.486698 8.49794L0.575951 7.43959C1.97849 7.55804 3.38028 7.7069 4.78132 7.88618ZM27.6251 9.03126C27.6251 7.83025 26.9911 5.60304 26.5626 5.23365C26.134 5.60304 25.5001 7.83025 25.5001 9.03126C25.5001 9.76588 25.8277 10.0938 26.5626 10.0938C27.2975 10.0938 27.6251 9.76588 27.6251 9.03126ZM22.8438 7.43751C22.8438 6.2365 22.2099 4.00929 21.7813 3.6399C21.3528 4.00929 20.7188 6.2365 20.7188 7.43751C20.7188 8.17213 21.0464 8.50001 21.7813 8.50001C22.5162 8.50001 22.8438 8.17213 22.8438 7.43751ZM7.43757 8.26341C7.79185 8.31808 8.14635 8.37109 8.50007 8.42952V6.90626H7.43757V8.26341ZM5.84382 8.03044C6.02086 8.05487 6.19813 8.07719 6.37507 8.10255V6.37501C6.37506 6.30524 6.38878 6.23615 6.41548 6.17169C6.44217 6.10723 6.4813 6.04866 6.53063 5.99932C6.57997 5.94999 6.63854 5.91086 6.703 5.88417C6.76746 5.85747 6.83655 5.84375 6.90632 5.84376H9.03132C9.10109 5.84375 9.17019 5.85747 9.23465 5.88417C9.29911 5.91086 9.35768 5.94999 9.40701 5.99932C9.45635 6.04866 9.49548 6.10723 9.52217 6.17169C9.54886 6.23615 9.56259 6.30524 9.56257 6.37501V8.61467C9.73971 8.64586 9.91688 8.6766 10.0938 8.70873V4.78126H5.84382V8.03044ZM10.2515 3.71876L7.96882 1.76237L5.68611 3.71876H10.2515Z" fill="#616161"/>
<path d="M16.5979 13.1527C17.65 13.4162 18.7281 13.7062 19.8025 14.0139L19.5099 15.0349C18.4469 14.7309 17.3802 14.444 16.3393 14.183C11.1347 12.8775 5.83324 11.9938 0.486563 11.5408L0.575811 10.4824C5.97962 10.9401 11.3377 11.8331 16.5979 13.1527Z" fill="#616161"/>
<path d="M16.598 15.9536L17.1318 16.089L16.8683 17.1183L16.3394 16.9839C11.1348 15.6784 5.83336 14.7947 0.486685 14.3417L0.575933 13.2833C5.97975 13.741 11.3378 14.634 16.598 15.9536Z" fill="#616161"/>
<path d="M14.996 18.6078L14.7542 19.6423C10.0592 18.546 5.29086 17.7914 0.486727 17.3845L0.575976 16.3262C5.43149 16.7371 10.2508 17.4996 14.996 18.6078Z" fill="#616161"/>
</g>
<defs>
<clipPath id="clip0_89_922">
<rect width="34" height="34" fill="white" transform="matrix(-1 0 0 1 34 0)"/>
</clipPath>
</defs>
</svg>
