<svg width="34" height="34" viewBox="0 0 34 34" fill="none" xmlns="http://www.w3.org/2000/svg">
<path d="M31.3425 27.6919C31.3433 27.6694 31.3437 27.6471 31.3437 27.625C31.3431 27.0616 31.119 26.5215 30.7206 26.1231C30.3223 25.7247 29.7821 25.5006 29.2187 25.5V15.6719L31.1312 14.2375C31.1977 14.1877 31.2515 14.123 31.2884 14.0486C31.3253 13.9742 31.3442 13.8922 31.3437 13.8092C31.3432 13.7262 31.3232 13.6444 31.2854 13.5705C31.2476 13.4966 31.193 13.4326 31.1259 13.3836L26.5625 10.0487V4.25C26.7034 4.25 26.8385 4.19403 26.9381 4.0944C27.0378 3.99477 27.0937 3.85965 27.0937 3.71875V1.59375C27.0937 1.45285 27.0378 1.31773 26.9381 1.2181C26.8385 1.11847 26.7034 1.0625 26.5625 1.0625H21.25C21.1091 1.0625 20.974 1.11847 20.8743 1.2181C20.7747 1.31773 20.7187 1.45285 20.7187 1.59375V3.71875C20.7187 3.85965 20.7747 3.99477 20.8743 4.0944C20.974 4.19403 21.1091 4.25 21.25 4.25V6.16655L17.3134 3.28983C17.2224 3.22335 17.1127 3.18752 17 3.18752C16.8873 3.18752 16.7775 3.22335 16.6866 3.28983L2.87405 13.3836C2.80702 13.4326 2.75239 13.4966 2.71457 13.5705C2.67675 13.6444 2.65678 13.7262 2.65626 13.8092C2.65575 13.8922 2.6747 13.9742 2.7116 14.0486C2.7485 14.123 2.80232 14.1877 2.86874 14.2375L4.78124 15.6719V25.5C4.21785 25.5006 3.67772 25.7247 3.27934 26.1231C2.88096 26.5215 2.65687 27.0616 2.65624 27.625C2.65624 27.6471 2.65664 27.6694 2.65744 27.6919C2.15626 27.8208 1.71933 28.1281 1.42862 28.5562C1.13791 28.9843 1.0134 29.5038 1.07845 30.0171C1.1435 30.5305 1.39364 31.0025 1.78194 31.3446C2.17024 31.6866 2.67002 31.8752 3.18749 31.875H30.8125C31.33 31.8752 31.8297 31.6866 32.218 31.3446C32.6063 31.0025 32.8565 30.5305 32.9215 30.0171C32.9866 29.5038 32.8621 28.9843 32.5714 28.5562C32.2807 28.1281 31.8437 27.8208 31.3425 27.6919ZM21.7812 2.125H26.0312V3.1875H21.7812V2.125ZM22.3125 6.90625V4.25H25.5V9.2723L22.2622 6.90625H22.3125ZM17 4.3767L29.9197 13.8181L28.6826 14.7458L17.3125 6.4766C17.2217 6.41054 17.1123 6.37496 17 6.37496C16.8877 6.37496 16.7783 6.41054 16.6875 6.4766L5.31734 14.7458L4.08032 13.8181L17 4.3767ZM2.12499 29.75C2.12529 29.471 2.23514 29.2034 2.4309 29.0046C2.62665 28.8059 2.89264 28.692 3.17155 28.6875H3.17282C3.19998 28.6913 3.22714 28.6945 3.25483 28.6963C3.34286 28.7019 3.4309 28.6854 3.51098 28.6485C3.59107 28.6115 3.66069 28.5551 3.71356 28.4845C3.76642 28.4139 3.80088 28.3313 3.8138 28.244C3.82673 28.1567 3.81773 28.0676 3.7876 27.9847C3.74364 27.8698 3.72033 27.748 3.71874 27.625C3.71908 27.3433 3.83112 27.0733 4.03031 26.8741C4.22949 26.6749 4.49955 26.5628 4.78124 26.5625V30.8125H3.18749C2.9058 30.8122 2.63574 30.7001 2.43656 30.5009C2.23737 30.3017 2.12533 30.0317 2.12499 29.75ZM24.9687 30.8125H18.5937V19.125H24.9687V30.8125ZM26.0312 30.8125V18.5938C26.0312 18.4529 25.9753 18.3177 25.8756 18.2181C25.776 18.1185 25.6409 18.0625 25.5 18.0625H18.0625C17.9216 18.0625 17.7865 18.1185 17.6868 18.2181C17.5872 18.3177 17.5312 18.4529 17.5312 18.5938V30.8125H5.84374V15.6768L17 7.56314L28.1562 15.6768V30.8125H26.0312ZM30.8125 30.8125H29.2187V26.5625C29.5004 26.5628 29.7705 26.6749 29.9697 26.8741C30.1689 27.0733 30.2809 27.3433 30.2812 27.625C30.2797 27.7481 30.2564 27.87 30.2124 27.985C30.1823 28.0679 30.1733 28.157 30.1862 28.2443C30.1991 28.3315 30.2336 28.4142 30.2864 28.4848C30.3393 28.5554 30.4089 28.6117 30.489 28.6487C30.5691 28.6857 30.6571 28.7022 30.7452 28.6966C30.7728 28.6948 30.8 28.6916 30.8272 28.6878H30.8284C31.1102 28.6899 31.3796 28.8038 31.5774 29.0046C31.7752 29.2054 31.8851 29.4764 31.883 29.7582C31.8808 30.04 31.7669 30.3094 31.5661 30.5072C31.3654 30.705 31.0943 30.8149 30.8125 30.8128V30.8125Z" fill="#616161"/>
<path d="M14.875 18.0625H8.5C8.3591 18.0625 8.22398 18.1185 8.12435 18.2181C8.02472 18.3177 7.96875 18.4529 7.96875 18.5938V26.0312C7.96875 26.1721 8.02472 26.3073 8.12435 26.4069C8.22398 26.5065 8.3591 26.5625 8.5 26.5625H14.875C15.0159 26.5625 15.151 26.5065 15.2507 26.4069C15.3503 26.3073 15.4062 26.1721 15.4062 26.0312V18.5938C15.4062 18.4529 15.3503 18.3177 15.2507 18.2181C15.151 18.1185 15.0159 18.0625 14.875 18.0625ZM14.3438 21.7812H12.2188V19.125H14.3438V21.7812ZM11.1562 19.125V21.7812H9.03125V19.125H11.1562ZM9.03125 22.8438H11.1562V25.5H9.03125V22.8438ZM12.2188 25.5V22.8438H14.3438V25.5H12.2188Z" fill="#616161"/>
<path d="M20.6783 24.6408C20.7906 24.3697 20.6619 24.0589 20.3908 23.9467C20.1198 23.8344 19.809 23.9631 19.6967 24.2342C19.5844 24.5052 19.7132 24.816 19.9842 24.9283C20.2553 25.0406 20.5661 24.9118 20.6783 24.6408Z" fill="#616161"/>
</svg>
