<svg width="34" height="34" viewBox="0 0 34 34" fill="none" xmlns="http://www.w3.org/2000/svg">
<g clip-path="url(#clip0_89_920)">
<path fill-rule="evenodd" clip-rule="evenodd" d="M19.0227 20.8487L11.7311 30.6267C11.5433 30.8771 11.594 31.2322 11.8444 31.42C12.0947 31.6078 12.4499 31.5571 12.6377 31.3067L19.9311 21.5258C20.0525 21.3638 20.0784 21.1494 19.9989 20.9632C19.9193 20.777 19.7465 20.6475 19.5455 20.6232C19.3445 20.599 19.1459 20.6839 19.0245 20.8458L19.0227 20.8487Z" fill="#616161"/>
<path d="M1.23685 23.538L4.26162 24.5483C4.36315 24.5853 4.47032 24.6045 4.57836 24.605C4.75394 24.6043 4.92612 24.5565 5.07699 24.4667L15.424 18.2677C15.5551 18.6404 15.7136 19.003 15.8982 19.3522L14.085 21.7831C13.9333 21.9889 13.8684 22.2461 13.9043 22.4993L14.0539 23.5488L12.9291 23.882C12.5106 24.0035 12.2248 24.3892 12.2304 24.8249C12.2413 25.0619 12.2707 25.2978 12.3182 25.5303L12.3624 25.8137L11.2291 26.1485C10.7692 26.2883 10.48 26.7425 10.548 27.2184L10.671 28.0859L9.5819 28.4101C8.69574 28.6695 8.16404 29.5732 8.36757 30.4738L8.9909 33.2368C9.08467 33.6787 9.473 33.9961 9.92474 34C9.95024 34 9.97634 34 10.0024 33.9966L13.1813 33.779C13.4702 33.7666 13.738 33.6238 13.9094 33.3909L21.3517 23.4122C24.1646 23.98 27.0646 22.9818 28.9321 20.8031C30.7996 18.6243 31.3425 15.6058 30.3512 12.9128C32.7523 11.2703 33.9029 8.32527 33.2514 5.49002C32.6 2.65477 30.2791 0.507469 27.4019 0.0778358C24.5246 -0.351798 21.6777 1.02383 20.2263 3.54505C17.9761 3.51749 15.8207 4.45007 14.3003 6.1091C12.7798 7.76814 12.0383 9.99646 12.2615 12.2357L9.6481 13.7985C9.43475 13.9326 9.28149 14.144 9.22026 14.3884L8.96129 15.414L7.7951 15.2939C7.36062 15.2452 6.94726 15.493 6.78536 15.8991C6.70508 16.1268 6.64253 16.3604 6.59837 16.5978L6.53376 16.8692L5.36817 16.7513C4.88495 16.6944 4.43427 17.0044 4.31481 17.4761L4.10119 18.326L2.97245 18.2127C2.5974 18.1706 2.21897 18.2535 1.89585 18.4484C1.45041 18.7087 1.14382 19.1538 1.05949 19.6627L0.586361 22.45C0.493727 22.9256 0.774151 23.3945 1.23685 23.538ZM28.7623 19.1C27.2386 21.7001 24.1769 22.9765 21.2576 22.2285C21.0354 22.1719 20.801 22.255 20.6638 22.4388L13.0475 32.6531L10.0675 32.8571L9.4714 30.2289C9.43183 30.0514 9.47087 29.8655 9.57851 29.719C9.65926 29.6125 9.77208 29.5348 9.90037 29.4974L11.1255 29.133C11.5892 28.9984 11.8817 28.5412 11.8094 28.0638L11.6864 27.1962L12.8198 26.8613C13.2842 26.7264 13.5767 26.2679 13.5031 25.7898L13.4357 25.3523C13.4096 25.1868 13.3847 25.0344 13.3711 24.9318L14.5146 24.5936C14.9765 24.4574 15.2669 24.001 15.1946 23.5249L15.0348 22.4029L17.0254 19.7334C17.1623 19.5501 17.1755 19.3024 17.0588 19.1055C15.3275 16.1924 16.0053 12.4492 18.6484 10.3282C21.2914 8.20727 25.0926 8.35615 27.5616 10.6772C28.1072 11.1869 28.5636 11.7842 28.9119 12.4446C28.2597 12.7567 27.5554 12.9457 26.8346 13.0022C26.6584 11.943 25.761 11.1541 24.6879 11.1152C23.6148 11.0763 22.6627 11.798 22.4101 12.8417C22.1576 13.8853 22.6746 14.9625 23.6468 15.4184C24.6191 15.8743 25.7778 15.5829 26.4187 14.7214C26.547 14.5445 26.6484 14.3495 26.7196 14.1428C27.6329 14.098 28.5287 13.8752 29.3567 13.4872C29.9826 15.3559 29.7657 17.4041 28.7623 19.1ZM23.8892 12.489C24.0463 12.3595 24.2357 12.275 24.4371 12.2448C24.4921 12.2369 24.5476 12.2329 24.6031 12.2329C25.0817 12.2343 25.5078 12.5361 25.6678 12.9871C25.0525 12.9164 24.4523 12.7482 23.8897 12.489H23.8892ZM25.4536 14.1051C25.1685 14.4384 24.7158 14.5759 24.2934 14.4574C23.871 14.3389 23.5559 13.9861 23.4856 13.5531C24.1112 13.8326 24.7745 14.0185 25.4542 14.105L25.4536 14.1051ZM26.3575 1.13452C28.9271 1.1308 31.2079 2.77961 32.01 5.22089C32.812 7.66216 31.9536 10.3424 29.8826 11.8634C29.48 11.1116 28.9569 10.4309 28.3339 9.84838C28.1639 9.6914 27.9894 9.54916 27.8114 9.40865C27.7013 8.98652 27.5557 8.57442 27.3762 8.17679C26.446 6.11568 24.6733 4.55499 22.511 3.89354C22.1765 3.79294 21.8358 3.71438 21.491 3.6584C22.6025 2.07141 24.4201 1.12874 26.3575 1.13452ZM2.18205 19.8514C2.2114 19.6706 2.32037 19.5125 2.47894 19.4208C2.59196 19.3518 2.72477 19.3225 2.85631 19.3375L4.13067 19.4678C4.60984 19.5226 5.05415 19.2103 5.16478 18.7409L5.379 17.8909L6.55707 18.0121C7.03823 18.0574 7.48028 17.7443 7.59742 17.2755L7.69716 16.8568C7.7368 16.6908 7.77193 16.536 7.79856 16.4335L8.98513 16.5554C9.46377 16.6076 9.90701 16.2971 10.0215 15.8295L10.3014 14.7245L13.1567 13.0178C13.3528 12.9007 13.4593 12.6772 13.427 12.4512C12.942 9.14894 14.9276 5.98347 18.1117 4.98263C21.2959 3.98179 24.7354 5.44208 26.2269 8.428C24.9686 7.8449 23.5781 7.60658 22.1974 7.73726C19.9648 7.9374 17.9211 9.07271 16.5715 10.8626C15.222 12.6523 14.6926 14.9296 15.1143 17.1312L4.56137 23.4536L1.73096 22.5084L2.18205 19.8514Z" fill="#616161"/>
<path fill-rule="evenodd" clip-rule="evenodd" d="M13.7615 16.6205C14.0257 16.4578 14.1101 16.1131 13.9508 15.8469C13.7915 15.5807 13.4478 15.4921 13.1796 15.6481L4.11717 21.0805C3.94074 21.1832 3.83316 21.3728 3.83549 21.5769C3.83781 21.781 3.94983 21.9681 4.12859 22.0666C4.30735 22.1652 4.52529 22.1599 4.69914 22.053L13.7615 16.6205Z" fill="#616161"/>
</g>
<defs>
<clipPath id="clip0_89_920">
<rect width="34" height="34" fill="white"/>
</clipPath>
</defs>
</svg>
