<svg width="34" height="34" viewBox="0 0 34 34" fill="none" xmlns="http://www.w3.org/2000/svg">
<path d="M15.6028 29.2188H14.6784C14.1674 29.2173 13.6777 29.0137 13.3164 28.6524C12.955 28.291 12.7514 27.8013 12.75 27.2903V21.5847C12.7514 21.0737 12.955 20.584 13.3164 20.2226C13.6777 19.8613 14.1674 19.6577 14.6784 19.6562H15.6028C15.7586 19.6573 15.9138 19.677 16.065 19.7147C16.484 19.8162 16.8566 20.0559 17.1226 20.3952C17.3887 20.7345 17.5326 21.1535 17.5312 21.5847V27.2903C17.5298 27.8013 17.3262 28.291 16.9649 28.6524C16.6035 29.0137 16.1138 29.2173 15.6028 29.2188ZM14.6784 20.7188C14.5647 20.7188 14.4521 20.7411 14.3471 20.7847C14.242 20.8282 14.1465 20.892 14.0661 20.9724C13.9857 21.0528 13.9219 21.1482 13.8784 21.2533C13.8349 21.3584 13.8125 21.471 13.8125 21.5847V27.2903C13.8125 27.52 13.9037 27.7402 14.0661 27.9026C14.2285 28.065 14.4488 28.1562 14.6784 28.1562H15.6028C15.8325 28.1562 16.0527 28.065 16.2151 27.9026C16.3775 27.7402 16.4688 27.52 16.4688 27.2903V21.5847C16.4684 21.3913 16.4034 21.2036 16.284 21.0515C16.1646 20.8994 15.9978 20.7916 15.81 20.7453C15.7411 20.7378 15.6717 20.7378 15.6028 20.7453L14.6784 20.7188Z" fill="#616161"/>
<path d="M30.4778 29.2188H29.5534C29.0424 29.2173 28.5527 29.0137 28.1914 28.6524C27.83 28.291 27.6264 27.8013 27.625 27.2903V21.5847C27.6236 21.1535 27.7676 20.7345 28.0336 20.3952C28.2996 20.0559 28.6722 19.8162 29.0913 19.7147C29.2425 19.677 29.3976 19.6573 29.5534 19.6562H30.4778C30.9888 19.6577 31.4785 19.8613 31.8399 20.2226C32.2012 20.584 32.4049 21.0737 32.4063 21.5847V27.2903C32.4049 27.8013 32.2012 28.291 31.8399 28.6524C31.4785 29.0137 30.9888 29.2173 30.4778 29.2188ZM29.5534 20.7188C29.4846 20.7113 29.4151 20.7113 29.3463 20.7188C29.154 20.766 28.9838 20.8778 28.8639 21.0353C28.744 21.1929 28.6818 21.3868 28.6875 21.5847V27.2903C28.6875 27.52 28.7787 27.7402 28.9411 27.9026C29.1035 28.065 29.3238 28.1562 29.5534 28.1562H30.4778C30.7075 28.1562 30.9277 28.065 31.0901 27.9026C31.2525 27.7402 31.3438 27.52 31.3438 27.2903V21.5847C31.3438 21.471 31.3214 21.3584 31.2778 21.2533C31.2343 21.1482 31.1705 21.0528 31.0901 20.9724C31.0097 20.892 30.9143 20.8282 30.8092 20.7847C30.7041 20.7411 30.5915 20.7188 30.4778 20.7188H29.5534Z" fill="#616161"/>
<path d="M11.6875 26.5625H1.59375V20.1875H11.6875V26.5625ZM2.65625 25.5H10.625V21.25H2.65625V25.5Z" fill="#616161"/>
<path d="M10.625 25.5H11.6875V29.2188H10.625V25.5Z" fill="#616161"/>
<path d="M1.59375 25.5H2.65625V29.2188H1.59375V25.5Z" fill="#616161"/>
<path d="M27.0938 29.2188H18.0625C17.6398 29.2188 17.2344 29.0508 16.9355 28.752C16.6367 28.4531 16.4688 28.0477 16.4688 27.625V24.4375H28.6875V27.625C28.6875 28.0477 28.5196 28.4531 28.2207 28.752C27.9218 29.0508 27.5164 29.2188 27.0938 29.2188ZM17.5312 25.5V27.625C17.5312 27.7659 17.5872 27.901 17.6868 28.0007C17.7865 28.1003 17.9216 28.1562 18.0625 28.1562H27.0938C27.2346 28.1562 27.3698 28.1003 27.4694 28.0007C27.569 27.901 27.625 27.7659 27.625 27.625V25.5H17.5312Z" fill="#616161"/>
<path d="M28.6875 25.5H16.4688V23.9062C16.4688 23.2018 16.7486 22.5261 17.2467 22.028C17.7449 21.5299 18.4205 21.25 19.125 21.25H26.0312C26.7357 21.25 27.4114 21.5299 27.9095 22.028C28.4076 22.5261 28.6875 23.2018 28.6875 23.9062V25.5ZM17.5312 24.4375H27.625V23.9062C27.625 23.4836 27.4571 23.0782 27.1582 22.7793C26.8593 22.4804 26.4539 22.3125 26.0312 22.3125H19.125C18.7023 22.3125 18.2969 22.4804 17.998 22.7793C17.6992 23.0782 17.5312 23.4836 17.5312 23.9062V24.4375Z" fill="#616161"/>
<path d="M28.6875 23.9062H27.625C27.625 23.4836 27.4571 23.0782 27.1582 22.7793C26.8593 22.4804 26.4539 22.3125 26.0312 22.3125H19.125C18.7023 22.3125 18.2969 22.4804 17.998 22.7793C17.6992 23.0782 17.5312 23.4836 17.5312 23.9062H16.4688V21.5847C16.4684 21.3913 16.4034 21.2036 16.284 21.0515C16.1646 20.8994 15.9978 20.7916 15.81 20.7453L15.4062 20.6497V16.4688C15.4062 15.4825 15.798 14.5366 16.4954 13.8392C17.1928 13.1418 18.1387 12.75 19.125 12.75H26.0312C27.0175 12.75 27.9634 13.1418 28.6608 13.8392C29.3582 14.5366 29.75 15.4825 29.75 16.4688V20.6497L29.3463 20.7453C29.1585 20.7916 28.9916 20.8994 28.8722 21.0515C28.7528 21.2036 28.6878 21.3913 28.6875 21.5847V23.9062ZM19.125 21.25H26.0312C26.606 21.25 27.1652 21.4364 27.625 21.7812V21.5847C27.6235 21.2271 27.7223 20.8763 27.9101 20.5721C28.0979 20.2679 28.3672 20.0223 28.6875 19.8634V16.4688C28.6875 15.7643 28.4076 15.0886 27.9095 14.5905C27.4114 14.0924 26.7357 13.8125 26.0312 13.8125H19.125C18.4205 13.8125 17.7449 14.0924 17.2467 14.5905C16.7486 15.0886 16.4688 15.7643 16.4688 16.4688V19.8634C16.789 20.0223 17.0584 20.2679 17.2462 20.5721C17.434 20.8763 17.5327 21.2271 17.5312 21.5847V21.7812C17.991 21.4364 18.5503 21.25 19.125 21.25Z" fill="#616161"/>
<path d="M5.3125 22.8438H7.96875V23.9062H5.3125V22.8438Z" fill="#616161"/>
<path d="M8.36721 21.25H4.91408L3.54346 16.4688H9.73783L8.36721 21.25ZM5.71096 20.1875H7.57033L8.32471 17.5312H4.95658L5.71096 20.1875Z" fill="#616161"/>
<path d="M6.64062 17.5313C6.50498 17.5303 6.36975 17.5161 6.23687 17.4888C5.24113 17.3192 4.33677 16.8048 3.68215 16.0356C3.02753 15.2663 2.66436 14.2913 2.65625 13.2813V12.7501H3.1875C4.17602 12.7449 5.13495 13.0871 5.89688 13.7169L6.09344 13.871V14.1207C6.09015 14.7674 6.28074 15.4002 6.64062 15.9376C7.00672 15.404 7.2047 14.7731 7.20906 14.126V13.8763L7.40562 13.7222C8.1612 13.0952 9.11187 12.7514 10.0938 12.7501H10.625V13.2813C10.6288 14.3092 10.2627 15.3041 9.59362 16.0844C8.92452 16.8647 7.99706 17.3783 6.98063 17.5313C6.86757 17.5426 6.75368 17.5426 6.64062 17.5313ZM8.26094 14.3704C8.22191 15.0064 8.04034 15.6255 7.72969 16.1819C8.19868 15.9671 8.60854 15.6418 8.92407 15.2337C9.23961 14.8256 9.4514 14.3471 9.54125 13.8391C9.07958 13.9195 8.64197 14.1029 8.26094 14.3757V14.3704ZM3.75063 13.8391C3.84673 14.3447 4.0609 14.8204 4.37571 15.2276C4.69052 15.6347 5.09705 15.9617 5.56219 16.1819C5.25303 15.6249 5.07157 15.0061 5.03094 14.3704C4.64895 14.1014 4.21141 13.9216 3.75063 13.8444V13.8391Z" fill="#616161"/>
<path d="M6.64062 17.4834L6.26343 17.1115C6.17312 17.0159 6.0828 16.9202 5.9978 16.8193C5.31607 15.9961 4.96556 14.9483 5.01467 13.8806C5.06379 12.8129 5.509 11.8018 6.26343 11.0446L6.64062 10.6727L7.0178 11.0446C7.41745 11.4419 7.7341 11.9146 7.94934 12.4354C8.16458 12.9562 8.27411 13.5145 8.27155 14.078V14.1046C8.26855 15.0903 7.92299 16.0443 7.29405 16.8034C7.19843 16.9202 7.10812 17.0159 7.0178 17.1115L6.64062 17.4834ZM6.64062 12.2452C6.27057 12.7848 6.07253 13.4238 6.07253 14.078C6.07253 14.7323 6.27057 15.3713 6.64062 15.9109C7.00671 15.3773 7.20469 14.7464 7.20905 14.0993C7.21673 13.4372 7.01806 12.7892 6.64062 12.2452Z" fill="#616161"/>
<path d="M12.75 10.625H13.8125V23.375H12.75V10.625Z" fill="#616161"/>
<path d="M17.5843 11.6875H8.97803L9.61022 4.78125H16.9521L17.5843 11.6875ZM10.1468 10.625H16.4155L15.9852 5.84375H10.5771L10.1468 10.625Z" fill="#616161"/>
</svg>
