<svg width="34" height="34" viewBox="0 0 34 34" fill="none" xmlns="http://www.w3.org/2000/svg">
<g clip-path="url(#clip0_89_918)">
<path d="M32.9375 9.03125C33.0784 9.03125 33.2135 8.97528 33.3132 8.87565C33.4128 8.77602 33.4688 8.6409 33.4688 8.5V6.375C33.4688 6.2341 33.4128 6.09898 33.3132 5.99935C33.2135 5.89972 33.0784 5.84375 32.9375 5.84375H32.0344L24.2011 0.6205C24.1137 0.562456 24.0112 0.531416 23.9062 0.53125H10.0938C9.98884 0.531416 9.8863 0.562456 9.79891 0.6205L1.96563 5.84375H1.0625C0.921604 5.84375 0.786478 5.89972 0.68685 5.99935C0.587221 6.09898 0.53125 6.2341 0.53125 6.375V8.5C0.53125 8.6409 0.587221 8.77602 0.68685 8.87565C0.786478 8.97528 0.921604 9.03125 1.0625 9.03125H1.59375V21.5427C1.27156 21.7282 1.0038 21.9951 0.81731 22.3167C0.630824 22.6383 0.532173 23.0032 0.53125 23.375C0.53125 23.7977 0.699162 24.2031 0.998049 24.502C1.29693 24.8008 1.70231 24.9688 2.125 24.9688H6.375C6.79769 24.9688 7.20307 24.8008 7.50195 24.502C7.80084 24.2031 7.96875 23.7977 7.96875 23.375C7.96818 23.1956 7.94461 23.0171 7.89862 22.8438H8.5V24.4375C8.5 24.5784 8.55597 24.7135 8.6556 24.8132C8.75523 24.9128 8.89035 24.9688 9.03125 24.9688H11.1562C11.2971 24.9688 11.4323 24.9128 11.5319 24.8132C11.6315 24.7135 11.6875 24.5784 11.6875 24.4375V22.8438H13.5591L11.7528 27.3647C4.42956 28.1642 0.53125 30.6101 0.53125 32.9375C0.53125 33.0784 0.587221 33.2135 0.68685 33.3132C0.786478 33.4128 0.921604 33.4688 1.0625 33.4688H7.4375C7.5784 33.4688 7.71352 33.4128 7.81315 33.3132C7.91278 33.2135 7.96875 33.0784 7.96875 32.9375C7.96875 31.8283 11.4043 30.2812 17 30.2812C22.5957 30.2812 26.0312 31.8283 26.0312 32.9375C26.0312 33.0784 26.0872 33.2135 26.1868 33.3132C26.2865 33.4128 26.4216 33.4688 26.5625 33.4688H32.9375C33.0784 33.4688 33.2135 33.4128 33.3132 33.3132C33.4128 33.2135 33.4688 33.0784 33.4688 32.9375C33.4688 30.6101 29.5704 28.1642 22.2493 27.3647L20.4409 22.8438H22.3125V24.4375C22.3125 24.5784 22.3685 24.7135 22.4681 24.8132C22.5677 24.9128 22.7029 24.9688 22.8438 24.9688H24.9688C25.1096 24.9688 25.2448 24.9128 25.3444 24.8132C25.444 24.7135 25.5 24.5784 25.5 24.4375V22.8438H26.1014C26.0554 23.0171 26.0318 23.1956 26.0312 23.375C26.0312 23.7977 26.1992 24.2031 26.498 24.502C26.7969 24.8008 27.2023 24.9688 27.625 24.9688H31.875C32.2977 24.9688 32.7031 24.8008 33.0019 24.502C33.3008 24.2031 33.4688 23.7977 33.4688 23.375C33.4678 23.0032 33.3692 22.6383 33.1827 22.3167C32.9962 21.9951 32.7284 21.7282 32.4062 21.5427V9.03125H32.9375ZM32.4062 7.96875H23.6937L22.245 6.90625H32.4062V7.96875ZM9.5625 11.1562V10.0938H24.4375V11.1562H9.5625ZM17 4.3775L23.3458 9.03125H20.8893L17.3087 6.47381C17.2186 6.40951 17.1107 6.37495 17 6.37495C16.8893 6.37495 16.7814 6.40951 16.6913 6.47381L13.1107 9.03125H10.6542L17 4.3775ZM19.0607 9.03125H14.9393L17 7.55916L19.0607 9.03125ZM10.2531 1.59375H23.7469L30.1219 5.84375H20.7963L17.314 3.29003C17.2229 3.2233 17.1129 3.18733 17 3.18733C16.8871 3.18733 16.7771 3.2233 16.686 3.29003L13.2037 5.84375H3.87813L10.2531 1.59375ZM1.59375 6.90625H11.755L10.3062 7.96875H1.59375V6.90625ZM6.375 23.9062H2.125C1.9841 23.9062 1.84898 23.8503 1.74935 23.7507C1.64972 23.651 1.59375 23.5159 1.59375 23.375C1.59372 23.0959 1.70347 22.8281 1.89929 22.6293C2.09512 22.4305 2.36129 22.3167 2.64031 22.3125C2.65412 22.3125 2.71044 22.321 2.72372 22.3215C2.81185 22.3282 2.90022 22.3122 2.98039 22.275C3.06057 22.2378 3.12986 22.1806 3.18166 22.109C3.23442 22.0384 3.26879 21.9559 3.28168 21.8687C3.29457 21.7815 3.28557 21.6925 3.2555 21.6097C3.20127 21.4755 3.17857 21.3306 3.18916 21.1863C3.19976 21.042 3.24335 20.902 3.31659 20.7772C3.38865 20.6379 3.48939 20.5154 3.61217 20.4178C3.73496 20.3202 3.87701 20.2497 4.029 20.2109C4.28654 20.1543 4.55597 20.1992 4.78125 20.3363C4.86239 20.3835 4.95459 20.4083 5.04847 20.4083C5.14235 20.4083 5.23455 20.3835 5.31569 20.3363C5.54478 20.1967 5.81969 20.1532 6.08069 20.2151C6.28004 20.2637 6.46164 20.3675 6.60459 20.5147C6.74753 20.6618 6.84602 20.8464 6.88872 21.0471C6.92001 21.2083 6.913 21.3747 6.86825 21.5328C6.8235 21.6908 6.74225 21.8362 6.63106 21.9571C6.54326 22.0546 6.49467 22.1812 6.49467 22.3125C6.49467 22.4438 6.54326 22.5704 6.63106 22.6679C6.80761 22.8611 6.90574 23.1133 6.90625 23.375C6.90625 23.5159 6.85028 23.651 6.75065 23.7507C6.65102 23.8503 6.5159 23.9062 6.375 23.9062ZM7.89119 21.7812C7.9735 21.4782 7.98729 21.1606 7.93156 20.8516C7.85128 20.4479 7.65699 20.0758 7.37169 19.7792C7.0864 19.4826 6.72208 19.274 6.32187 19.1781C5.89638 19.0772 5.44979 19.1144 5.04688 19.2844C4.65378 19.1197 4.21942 19.0806 3.80322 19.1723C3.3549 19.2772 2.95255 19.5243 2.65625 19.8767V9.03125H8.857L8.71728 9.13378C8.64992 9.18314 8.59514 9.24767 8.55738 9.32216C8.51963 9.39665 8.49997 9.47899 8.5 9.5625V21.7812H7.89119ZM9.5625 23.9062V12.2188H10.625V23.9062H9.5625ZM20.1875 21.7812H19.125V17.5312C19.125 16.9677 18.9011 16.4272 18.5026 16.0286C18.1041 15.6301 17.5636 15.4062 17 15.4062C16.4364 15.4062 15.8959 15.6301 15.4974 16.0286C15.0989 16.4272 14.875 16.9677 14.875 17.5312V21.7812H13.8125V17.5312C13.8125 16.6859 14.1483 15.8751 14.7461 15.2773C15.3439 14.6796 16.1546 14.3438 17 14.3438C17.8454 14.3438 18.6561 14.6796 19.2539 15.2773C19.8517 15.8751 20.1875 16.6859 20.1875 17.5312V21.7812ZM18.0625 21.7812H15.9375V17.5312C15.9375 17.2495 16.0494 16.9792 16.2487 16.7799C16.448 16.5807 16.7182 16.4688 17 16.4688C17.2818 16.4688 17.552 16.5807 17.7513 16.7799C17.9506 16.9792 18.0625 17.2495 18.0625 17.5312V21.7812ZM32.2931 32.4062H27.0061C26.3054 30.3344 21.5215 29.2188 17 29.2188C12.4785 29.2188 7.69462 30.3344 6.99391 32.4062H1.70691C2.59516 30.2993 8.6275 28.1562 17 28.1562C25.3725 28.1562 31.4048 30.2993 32.2931 32.4062ZM21.0598 27.2531C19.7965 27.1506 18.445 27.0938 17 27.0938C15.555 27.0938 14.2035 27.1506 12.9402 27.2531L14.7034 22.8438H19.2966L21.0598 27.2531ZM21.25 21.7812V17.5312C21.25 16.4041 20.8022 15.3231 20.0052 14.526C19.2082 13.729 18.1272 13.2812 17 13.2812C15.8728 13.2812 14.7918 13.729 13.9948 14.526C13.1978 15.3231 12.75 16.4041 12.75 17.5312V21.7812H11.6875V12.2188H22.3125V21.7812H21.25ZM23.375 23.9062V12.2188H24.4375V23.9062H23.375ZM31.875 23.9062H27.625C27.4841 23.9062 27.349 23.8503 27.2493 23.7507C27.1497 23.651 27.0938 23.5159 27.0938 23.375C27.0947 23.1131 27.1934 22.8609 27.3705 22.6679C27.4583 22.5704 27.5069 22.4438 27.5069 22.3125C27.5069 22.1812 27.4583 22.0546 27.3705 21.9571C27.2593 21.8362 27.1781 21.6908 27.1333 21.5328C27.0886 21.3747 27.0816 21.2083 27.1129 21.0471C27.1556 20.8464 27.2541 20.6618 27.397 20.5147C27.54 20.3675 27.7216 20.2637 27.9209 20.2151C27.998 20.1969 28.077 20.1876 28.1562 20.1875C28.3435 20.1885 28.527 20.2399 28.6875 20.3363C28.7686 20.3835 28.8608 20.4083 28.9547 20.4083C29.0486 20.4083 29.1408 20.3835 29.2219 20.3363C29.4465 20.1994 29.7153 20.1547 29.9721 20.2114C30.124 20.2502 30.2661 20.3207 30.3889 20.4183C30.5117 20.5159 30.6124 20.6384 30.6845 20.7777C30.7577 20.9025 30.8013 21.0425 30.8119 21.1868C30.8225 21.3312 30.7998 21.476 30.7456 21.6102C30.7155 21.693 30.7065 21.782 30.7194 21.8692C30.7323 21.9564 30.7666 22.039 30.8194 22.1096C30.8712 22.1811 30.9405 22.2383 31.0207 22.2754C31.1009 22.3126 31.1892 22.3287 31.2773 22.3221C31.2906 22.3221 31.3305 22.3146 31.3453 22.313C31.6271 22.313 31.8974 22.425 32.0966 22.6242C32.2959 22.8235 32.4078 23.0937 32.4078 23.3755C32.4078 23.4454 32.3939 23.5145 32.3671 23.579C32.3403 23.6435 32.301 23.7021 32.2515 23.7514C32.202 23.8007 32.1433 23.8398 32.0787 23.8663C32.0141 23.8929 31.9449 23.9065 31.875 23.9062ZM31.3438 19.8767C31.0473 19.5247 30.645 19.278 30.1968 19.1733C29.7807 19.0808 29.3462 19.1196 28.9531 19.2844C28.5503 19.1141 28.1036 19.0769 27.6781 19.1781C27.2779 19.274 26.9136 19.4826 26.6283 19.7792C26.343 20.0758 26.1487 20.4479 26.0684 20.8516C26.0127 21.1606 26.0265 21.4782 26.1088 21.7812H25.5V9.5625C25.5 9.47899 25.4804 9.39665 25.4426 9.32216C25.4049 9.24767 25.3501 9.18314 25.2827 9.13378L25.143 9.03125H31.3438V19.8767Z" fill="#616161"/>
<path d="M5.3125 10.0938C4.88981 10.0938 4.48443 10.2617 4.18555 10.5605C3.88666 10.8594 3.71875 11.2648 3.71875 11.6875V14.875C3.71875 15.0159 3.77472 15.151 3.87435 15.2507C3.97398 15.3503 4.1091 15.4062 4.25 15.4062H6.375C6.5159 15.4062 6.65102 15.3503 6.75065 15.2507C6.85028 15.151 6.90625 15.0159 6.90625 14.875V11.6875C6.90625 11.2648 6.73834 10.8594 6.43945 10.5605C6.14057 10.2617 5.73519 10.0938 5.3125 10.0938ZM5.84375 14.3438H4.78125V11.6875C4.78125 11.5466 4.83722 11.4115 4.93685 11.3118C5.03648 11.2122 5.1716 11.1562 5.3125 11.1562C5.4534 11.1562 5.58852 11.2122 5.68815 11.3118C5.78778 11.4115 5.84375 11.5466 5.84375 11.6875V14.3438Z" fill="#616161"/>
<path d="M27.625 15.4062H29.75C29.8909 15.4062 30.026 15.3503 30.1257 15.2507C30.2253 15.151 30.2812 15.0159 30.2812 14.875V11.6875C30.2812 11.2648 30.1133 10.8594 29.8145 10.5605C29.5156 10.2617 29.1102 10.0938 28.6875 10.0938C28.2648 10.0938 27.8594 10.2617 27.5605 10.5605C27.2617 10.8594 27.0938 11.2648 27.0938 11.6875V14.875C27.0938 15.0159 27.1497 15.151 27.2493 15.2507C27.349 15.3503 27.4841 15.4062 27.625 15.4062ZM28.1562 11.6875C28.1562 11.5466 28.2122 11.4115 28.3118 11.3118C28.4115 11.2122 28.5466 11.1562 28.6875 11.1562C28.8284 11.1562 28.9635 11.2122 29.0632 11.3118C29.1628 11.4115 29.2188 11.5466 29.2188 11.6875V14.3438H28.1562V11.6875Z" fill="#616161"/>
</g>
<defs>
<clipPath id="clip0_89_918">
<rect width="34" height="34" fill="white"/>
</clipPath>
</defs>
</svg>
