<svg width="34" height="34" viewBox="0 0 34 34" fill="none" xmlns="http://www.w3.org/2000/svg">
<g clip-path="url(#clip0_89_915)">
<path d="M22.9694 8.69804C22.5734 8.69804 22.1469 8.77109 21.8072 8.8901C21.0886 7.23159 19.8383 6.0992 18.0856 5.52248C15.6736 4.72886 13.8508 5.07068 12.6861 5.55137C14.4372 3.68772 16.6523 3.74058 17.9942 4.00922C18.3318 4.07669 18.6671 3.94639 18.87 3.66912C19.0735 3.39099 19.096 3.03044 18.929 2.72833C18.423 1.81311 17.514 0.634363 16.0574 0.216565C14.909 -0.112639 13.6407 0.101341 12.2876 0.852991C10.6446 1.76582 9.80958 3.23525 9.87288 5.10236C9.8754 5.17634 9.87952 5.24926 9.88463 5.32152C9.33806 4.89828 8.60972 4.50146 7.64661 4.25169C7.3801 4.18255 7.10848 4.34254 7.03941 4.60879C6.97034 4.8751 7.13019 5.14692 7.39651 5.21599C8.60773 5.53005 9.36522 6.10691 9.82114 6.60872C8.11927 6.39334 6.37688 6.98919 4.62547 8.38982C3.02215 9.67197 1.76676 11.3707 1.07329 12.4231C0.815148 10.3033 1.18008 8.58779 2.15986 7.32045C2.92406 6.33198 3.80402 5.99221 3.81046 5.98976C3.97583 5.92939 4.09709 5.78614 4.1293 5.613C4.16151 5.43987 4.09995 5.26255 3.96732 5.14672L3.90384 5.09127C4.40518 5.02419 4.89211 4.98846 5.35341 4.98488C5.62855 4.98275 5.84984 4.75801 5.84765 4.48294C5.84552 4.20779 5.62138 3.98431 5.3457 3.9887C4.79216 3.99295 4.20707 4.0395 3.60684 4.1269C3.24476 4.17963 2.95561 4.43034 2.8522 4.78133C2.79456 4.97724 2.80239 5.17827 2.86861 5.35937C2.46681 5.6051 1.92084 6.01685 1.41305 6.65846C0.564376 7.73055 -0.346663 9.68352 0.132566 12.899C0.186625 13.2621 0.453933 13.546 0.813354 13.6223C0.875649 13.6356 0.937877 13.642 0.999308 13.642C1.29404 13.642 1.56972 13.4938 1.73356 13.2363C2.34143 12.2802 3.60638 10.4804 5.24761 9.1679C6.60202 8.08486 7.93172 7.5505 9.21819 7.5685C8.54663 7.92779 7.71947 8.45391 6.88234 9.19466C5.12309 10.7515 2.99034 13.5892 2.82059 18.2669C2.80883 18.5913 2.97646 18.8934 3.25798 19.0554C3.39353 19.1334 3.54388 19.1723 3.69397 19.1723C3.85562 19.1723 4.01693 19.1272 4.15919 19.0375C4.83493 18.6116 6.07424 17.664 7.26753 15.884C7.40972 16.052 7.60916 16.1594 7.83343 16.1852C8.11043 16.2167 8.37867 16.1184 8.56941 15.915C8.77402 15.6966 9.06145 15.3669 9.37645 14.9378C9.06278 19.6318 9.05966 26.9347 11.0947 33.581C11.1603 33.7954 11.3576 33.9335 11.5708 33.9335C11.6191 33.9335 11.6682 33.9264 11.7167 33.9115C11.9798 33.831 12.1277 33.5524 12.0472 33.2894C11.799 32.479 11.5821 31.658 11.3926 30.8331H11.9305C12.2056 30.8331 12.4285 30.6101 12.4285 30.335C12.4285 30.0598 12.2056 29.8369 11.9305 29.8369H11.1777C10.821 28.0764 10.5838 26.3086 10.4347 24.5935H11.4404C11.7155 24.5935 11.9385 24.3705 11.9385 24.0954C11.9385 23.8202 11.7155 23.5973 11.4404 23.5973H10.3573C10.3111 22.9216 10.2777 22.2561 10.2555 21.6047H10.9119C11.187 21.6047 11.41 21.3818 11.41 21.1066C11.41 20.8315 11.187 20.6086 10.9119 20.6086H10.2296C10.176 17.604 10.3465 14.8767 10.5277 12.9962C10.6544 12.7235 10.7747 12.4362 10.8841 12.1341C11.0606 12.6234 11.2655 13.0755 11.4828 13.4877C11.5385 14.9539 11.6342 16.3535 11.7623 17.6868H11.2481C10.9729 17.6868 10.75 17.9097 10.75 18.1849C10.75 18.46 10.9729 18.6829 11.2481 18.6829H11.8655C12.1774 21.4979 12.632 24.0017 13.1524 26.1953H11.9304C11.6552 26.1953 11.4323 26.4182 11.4323 26.6934C11.4323 26.9685 11.6552 27.1914 11.9304 27.1914H13.3984C14.0743 29.8232 14.8344 31.9675 15.5256 33.6268C15.6052 33.8182 15.7904 33.9335 15.9856 33.9335C16.0494 33.9335 16.1143 33.9212 16.1769 33.8951C16.4309 33.7893 16.5509 33.4977 16.4451 33.2438C14.9311 29.6092 13.0798 23.5968 12.563 15.1601C12.8019 15.4675 13.0237 15.7204 13.2061 15.915C13.3968 16.1184 13.665 16.217 13.942 16.1853C14.1663 16.1596 14.3657 16.0522 14.5079 15.8842C14.942 16.5325 15.416 17.1203 15.9228 17.6412C15.6757 18.7341 15.6871 19.791 15.7377 20.4699C15.7636 20.8165 16.008 21.1039 16.346 21.1851C16.4086 21.2002 16.4715 21.2074 16.5337 21.2074C16.8073 21.2074 17.066 21.0662 17.2131 20.8241C17.9137 19.6706 19.6394 17.3243 22.5232 16.3708C22.3434 16.5082 22.1607 16.6572 21.9775 16.8194C20.5623 18.0716 18.8469 20.3533 18.7105 24.1124C18.6998 24.4082 18.8527 24.6839 19.1095 24.8317C19.2331 24.9028 19.3703 24.9383 19.5073 24.9383C19.6548 24.9383 19.802 24.8972 19.9318 24.8153C20.4637 24.4799 21.4284 23.7444 22.3673 22.3771C22.486 22.4771 22.6331 22.5421 22.7903 22.5601C23.039 22.5888 23.2903 22.4965 23.4618 22.3135C23.5553 22.2137 23.6624 22.0936 23.7771 21.9564C23.7172 22.8544 23.6373 23.7412 23.5376 24.6071C23.5061 24.8803 23.7022 25.1274 23.9755 25.1589C23.9948 25.1611 24.014 25.1622 24.0331 25.1622C24.2827 25.1622 24.4981 24.975 24.5273 24.721C24.6907 23.3012 24.8023 21.8271 24.8595 20.3383C24.9928 20.0838 25.1201 19.8107 25.2358 19.5197C25.2922 19.6614 25.3512 19.7988 25.4124 19.9318C25.5381 21.2182 25.6676 23.0793 25.6601 25.2367H25.5069C25.2318 25.2367 25.0088 25.4596 25.0088 25.7348C25.0088 26.0099 25.2318 26.2329 25.5069 26.2329H25.6468C25.6389 26.5722 25.6275 26.9173 25.6118 27.2674H25.1707C24.8956 27.2674 24.6726 27.4903 24.6726 27.7654C24.6726 28.0406 24.8956 28.2635 25.1707 28.2635H25.5564C25.4475 29.9028 25.2428 31.6246 24.895 33.3361C24.8402 33.6056 25.0143 33.8686 25.2839 33.9234C25.3174 33.9302 25.3507 33.9335 25.3836 33.9335C25.6155 33.9335 25.8232 33.7705 25.8712 33.5344C26.7522 29.1983 26.7387 24.809 26.5576 21.7937C26.7299 22.0114 26.8844 22.186 27.0038 22.3135C27.1752 22.4965 27.4264 22.5888 27.6753 22.5601C27.8325 22.5421 27.9796 22.4771 28.0983 22.3771C29.0372 23.7444 30.0019 24.4799 30.5338 24.8152C30.6636 24.8971 30.8108 24.9383 30.9583 24.9383C31.0953 24.9382 31.2325 24.9028 31.3561 24.8317C31.6129 24.6839 31.7658 24.4082 31.7551 24.1124C31.6187 20.3533 29.9032 18.0716 28.4881 16.8194C27.9638 16.3554 27.4439 15.9961 26.9839 15.723C27.8533 15.8149 28.748 16.2255 29.6585 16.9536C30.9532 17.9891 31.9525 19.4113 32.433 20.167C32.5824 20.4018 32.8336 20.5369 33.1024 20.5369C33.1584 20.5369 33.2152 20.531 33.2719 20.519C33.5999 20.4492 33.8439 20.19 33.8933 19.8586C34.2801 17.2635 33.5412 15.6827 32.8533 14.8137C32.4306 14.2797 31.9736 13.9404 31.6427 13.7413C31.6538 13.6231 31.6419 13.5013 31.6054 13.3813C31.4981 13.0285 31.2043 12.7803 30.8387 12.7336C29.0307 12.5027 27.7364 12.7777 26.8244 13.2105C26.9928 12.0623 26.6327 10.9961 25.7613 10.0916C24.8875 9.18417 23.9481 8.7153 22.9694 8.69804ZM22.4764 11.8895C23.2223 12.292 23.9381 12.9661 24.3717 14.0868C24.2869 14.0361 24.1975 13.9861 24.1038 13.9375C23.6885 13.7223 23.1435 13.5145 22.4725 13.4086C22.5048 12.888 22.5056 12.3802 22.4764 11.8895ZM22.9519 9.69402C23.6563 9.7065 24.3603 10.0727 25.0441 10.7826C26.2281 12.0117 25.9043 13.3458 25.4659 14.2056C24.6425 11.4249 22.4478 10.629 21.1369 10.4044C21.6035 10.0287 22.231 9.68346 22.9519 9.69402ZM17.7744 6.46879C19.2595 6.95751 20.314 7.92228 20.9137 9.33632C20.6077 9.53642 20.3433 9.7597 20.1265 9.96936C19.9002 10.1883 19.8236 10.5087 19.9269 10.8056C20.0299 11.1018 20.2879 11.3051 20.6002 11.3362C20.8534 11.3614 21.1407 11.4072 21.4436 11.4866C21.5059 12.0732 21.5181 12.6932 21.4787 13.3367C21.4018 13.3374 21.3236 13.3395 21.2443 13.3431C19.8896 11.1453 17.0047 7.6482 12.1096 6.98873C13.0927 6.32095 14.9728 5.54712 17.7744 6.46879ZM12.7715 1.72392C13.5623 1.28454 14.3025 1.06392 14.9821 1.06392C15.2592 1.06392 15.5264 1.10064 15.7827 1.17416C16.8004 1.46611 17.4952 2.27759 17.9261 2.98448C16.3247 2.72202 13.0976 2.70675 11.0063 6.12909C10.7196 4.90585 10.6544 2.90001 12.7715 1.72392ZM7.95503 15.1112L7.70785 14.6841C7.61918 14.5307 7.45575 14.4362 7.27869 14.4354C7.27803 14.4354 7.27736 14.4354 7.27677 14.4354C7.10044 14.4354 6.9372 14.5287 6.84761 14.6806C5.7455 16.5513 4.54763 17.5716 3.82653 18.0642C3.99947 14.7183 5.23812 11.9958 7.51014 9.96929C8.58249 9.0129 9.65159 8.43916 10.3218 8.13712C10.274 8.82355 10.3008 9.47512 10.3827 10.0889C10.0097 12.5605 8.64053 14.3498 7.95503 15.1112ZM14.9278 14.6807C14.838 14.5281 14.6734 14.434 14.4967 14.4354C14.3197 14.4362 14.1562 14.5308 14.0676 14.684L13.8203 15.1113C12.8675 14.0562 11.0357 11.5438 11.3252 8.07921C12.1053 8.41612 13.5719 9.18072 14.9262 10.6107C15.1154 10.8105 15.4307 10.8188 15.6304 10.6298C15.8302 10.4407 15.8387 10.1254 15.6495 9.92566C15.0844 9.32888 14.5032 8.83963 13.952 8.44096C17.0312 9.4886 19.0304 11.7804 20.1498 13.4792C19.9545 13.5185 19.7538 13.5664 19.5474 13.6245C19.0444 13.7657 18.6063 13.9594 18.2239 14.1924C17.9254 13.3274 17.5368 12.5079 17.063 11.7512C16.9169 11.518 16.6095 11.4476 16.3764 11.5935C16.1433 11.7395 16.0727 12.0469 16.2187 12.28C16.7112 13.0664 17.1036 13.9281 17.3889 14.8422C16.88 15.3426 16.5189 15.931 16.2658 16.5449C15.7814 15.9923 15.3328 15.368 14.9278 14.6807ZM16.7031 19.7765C16.6749 17.94 17.1369 15.3362 19.8168 14.5836C20.4589 14.4032 21.0347 14.3298 21.5468 14.3298C22.656 14.3298 23.4659 14.6745 24.0024 15.0245C20.1758 15.4806 17.8076 18.1528 16.7031 19.7765ZM22.9162 21.4314L22.79 21.2134C22.7013 21.0601 22.538 20.9655 22.3608 20.9648C22.3602 20.9648 22.3595 20.9648 22.3589 20.9648C22.1826 20.9648 22.0194 21.058 21.9298 21.21C21.1448 22.5423 20.3 23.3253 19.7271 23.7486C19.9033 21.2136 20.8706 19.1444 22.6057 17.5937C23.4361 16.8516 24.2649 16.4012 24.7938 16.16C24.9528 18.697 23.6698 20.5651 22.9162 21.4314ZM30.7386 23.7486C30.1658 23.3253 29.3209 22.5422 28.536 21.2099C28.446 21.0574 28.284 20.965 28.1049 20.9647C27.9278 20.9655 27.7644 21.0601 27.6757 21.2134L27.5498 21.431C26.9898 20.7841 26.0167 19.4324 25.7372 17.6041C25.7949 17.1646 25.8168 16.7009 25.7934 16.2151C26.3134 16.4626 27.065 16.89 27.828 17.5652C29.5832 19.1184 30.5613 21.1972 30.7386 23.7486ZM32.9723 19.1745C31.8108 17.4692 29.4841 14.7005 26.6268 14.7005C26.537 14.7005 26.4468 14.7032 26.3559 14.7088C27.0174 14.0972 28.2816 13.4419 30.5808 13.7057C30.5144 13.8104 30.4885 13.9379 30.5119 14.0633C30.5441 14.2364 30.6654 14.3797 30.8308 14.4401C30.8568 14.4495 33.3092 15.3922 32.9723 19.1745Z" fill="#616161"/>
<path d="M24.2449 29.52H23.7431C23.9274 28.6638 24.0903 27.7893 24.231 26.8994C24.2739 26.6276 24.0885 26.3726 23.8168 26.3297C23.5448 26.2868 23.29 26.4722 23.247 26.7439C22.8826 29.0501 22.3662 31.25 21.7123 33.2825C21.628 33.5443 21.772 33.8249 22.0339 33.9092C22.0847 33.9255 22.136 33.9332 22.1866 33.9332C22.3971 33.9332 22.5927 33.7987 22.6607 33.5876C22.7793 33.2188 22.8933 32.8446 23.003 32.4656H24.0454C24.3205 32.4656 24.5435 32.2426 24.5435 31.9675C24.5435 31.6924 24.3205 31.4694 24.0454 31.4694H23.2778C23.3605 31.1547 23.4402 30.8368 23.5167 30.5161H24.245C24.5201 30.5161 24.7431 30.2932 24.7431 30.018C24.7431 29.7429 24.52 29.52 24.2449 29.52Z" fill="#616161"/>
</g>
<defs>
<clipPath id="clip0_89_915">
<rect width="34" height="34" fill="white"/>
</clipPath>
</defs>
</svg>
