<svg width="34" height="34" viewBox="0 0 34 34" fill="none" xmlns="http://www.w3.org/2000/svg">
<g clip-path="url(#clip0_89_913)">
<path d="M33.7804 21.7181C33.5531 21.5639 33.2431 21.6234 33.088 21.8503C33.0462 21.9114 32.0429 23.3477 30.2003 23.3477C28.3578 23.3477 27.3545 21.9114 27.3137 21.8519C27.1302 21.5611 26.6685 21.5615 26.4852 21.8523C26.4752 21.8673 25.4604 23.3478 23.6014 23.3478C22.0431 23.3478 21.0853 22.3208 20.8021 21.9677V14.2349H33.5009C33.7766 14.2349 34 14.0115 34 13.7358C34 13.4602 33.7766 13.2368 33.5009 13.2368H29.4879V9.59971C29.4879 6.30012 26.8353 3.59008 23.5749 3.55854C21.9709 3.5424 20.4582 4.15746 19.3161 5.28855C18.7631 5.83621 18.3316 6.47224 18.0323 7.16413C17.1099 5.0635 15.0354 3.58185 12.6297 3.55854C12.6099 3.55834 12.5901 3.55827 12.5703 3.55827C10.9882 3.55827 9.49886 4.1714 8.37081 5.28855C7.22849 6.41992 6.59929 7.92621 6.59929 9.52992V13.2368H0.536803C0.261151 13.2368 0.03776 13.4602 0.03776 13.7359C0.03776 14.0115 0.261151 14.2349 0.536803 14.2349H6.59929V16.2056C6.59929 16.4813 6.82269 16.7046 7.09834 16.7046C7.37399 16.7046 7.59738 16.4813 7.59738 16.2056V9.52992C7.59738 8.19456 8.12146 6.94014 9.07319 5.99764C10.0246 5.05547 11.2832 4.54069 12.6202 4.55656C15.3354 4.58279 17.5446 6.84518 17.5446 9.59971V13.2368H16.2832V9.52992C16.2832 7.51781 14.6468 5.85274 12.6355 5.81827C12.6142 5.81794 12.5933 5.81774 12.5721 5.81774C11.6089 5.81774 10.6963 6.19447 9.99624 6.88263C9.27334 7.59325 8.85877 8.57892 8.85877 9.5869V22.9805C8.19351 22.6464 7.76712 22.1747 7.59731 21.962V18.2016C7.59731 17.926 7.37392 17.7026 7.09827 17.7026C6.82262 17.7026 6.59923 17.926 6.59923 18.2016V21.967C6.31501 22.3214 5.3573 23.3477 3.79967 23.3477C1.9571 23.3477 0.953834 21.9114 0.913061 21.8519C0.759264 21.6232 0.449213 21.5625 0.22051 21.7163C-0.00819309 21.87 -0.0689548 22.18 0.084842 22.4088C0.137967 22.4879 1.41456 24.3458 3.79961 24.3458C5.43021 24.3458 6.54265 23.4775 7.10026 22.9028C7.65788 23.4775 8.77038 24.3458 10.4009 24.3458C12.0311 24.3458 13.1423 23.478 13.6995 22.9031C14.2572 23.4778 15.3696 24.3458 16.9998 24.3458C18.6304 24.3458 19.7428 23.4775 20.3004 22.9028C20.858 23.4775 21.9705 24.3458 23.6011 24.3458C25.2313 24.3458 26.3425 23.478 26.8996 22.9031C27.4574 23.4778 28.5697 24.3458 30.1999 24.3458C32.5851 24.3458 33.8616 22.4879 33.9147 22.4088C34.0684 22.1807 34.0079 21.8724 33.7804 21.7181ZM9.85685 17.7027H17.5446V19.0999H9.85685V17.7027ZM17.5446 16.7046H9.85685V14.2349H17.5446V16.7046ZM10.696 7.59444C11.219 7.08033 11.9015 6.80401 12.6184 6.81623C14.0889 6.84146 15.2852 8.05882 15.2852 9.52999V13.2369H9.85692V9.58696C9.85685 8.84481 10.1627 8.11859 10.696 7.59444ZM14.1134 21.8519C13.9301 21.5627 13.4707 21.5625 13.286 21.8507C13.2443 21.9118 12.2433 23.3477 10.4011 23.3477C10.2105 23.3477 10.0294 23.3317 9.85685 23.304V20.0979H17.5446V23.304C17.372 23.3316 17.1908 23.3477 17 23.3477C15.1575 23.3477 14.1541 21.9114 14.1134 21.8519ZM18.5426 22.9803V9.52992C18.5426 8.19456 19.0667 6.94014 20.0184 5.99764C20.9698 5.05547 22.2285 4.54069 23.5653 4.55656C26.2806 4.58279 28.4898 6.84518 28.4898 9.59971V13.2368H27.2284V12.1275C27.2284 11.8518 27.005 11.6284 26.7294 11.6284C26.4537 11.6284 26.2303 11.8518 26.2303 12.1275V13.2368H20.802V9.58683C20.802 8.84474 21.1079 8.11852 21.6411 7.59431C22.1641 7.08019 22.8454 6.80388 23.5635 6.8161C25.034 6.84133 26.2303 8.05869 26.2303 9.52985V10.1314C26.2303 10.407 26.4537 10.6304 26.7294 10.6304C27.005 10.6304 27.2284 10.407 27.2284 10.1314V9.52985C27.2284 7.51774 25.592 5.85267 23.5807 5.81821C23.5595 5.81788 23.5385 5.81768 23.5173 5.81768C22.5541 5.81768 21.6416 6.1944 20.9415 6.88257C20.2186 7.59318 19.804 8.57885 19.804 9.58683V21.9613C19.6337 22.1749 19.2073 22.6464 18.5426 22.9803Z" fill="#616161"/>
<path d="M13.7017 29.4437C11.8591 29.4437 10.8559 28.0074 10.8151 27.9479C10.6319 27.6588 10.1728 27.6585 9.98794 27.9463C9.94617 28.0074 8.94284 29.4437 7.10033 29.4437C5.25783 29.4437 4.25449 28.0074 4.21372 27.9479C4.05992 27.7192 3.74987 27.6585 3.52117 27.8123C3.29247 27.966 3.2317 28.2761 3.3855 28.5048C3.43863 28.5838 4.71515 30.4418 7.10027 30.4418C8.73087 30.4418 9.84331 29.5734 10.4009 28.9988C10.9585 29.5734 12.071 30.4418 13.7016 30.4418C13.9773 30.4418 14.2007 30.2184 14.2007 29.9427C14.2007 29.6671 13.9774 29.4437 13.7017 29.4437Z" fill="#616161"/>
<path d="M30.4792 27.8137C30.2516 27.6598 29.9418 27.7197 29.7868 27.9466C29.7451 28.0077 28.7441 29.4436 26.9019 29.4436C25.0593 29.4436 24.0561 28.0073 24.0153 27.9478C23.8319 27.6572 23.3705 27.6573 23.1871 27.9478C23.177 27.9628 22.1598 29.4436 20.3004 29.4436C18.4579 29.4436 17.4546 28.0073 17.4138 27.9478C17.2305 27.6586 16.7711 27.6584 16.5864 27.9466C16.5824 27.9524 16.1797 28.535 15.4369 28.9686C15.1989 29.1075 15.1185 29.4131 15.2575 29.6511C15.3965 29.8891 15.7019 29.9694 15.9401 29.8306C16.3985 29.563 16.753 29.2519 16.9994 28.9982C17.5569 29.5729 18.6694 30.4417 20.3004 30.4417C21.9311 30.4417 23.0435 29.5734 23.6011 28.9987C24.1587 29.5734 25.2712 30.4417 26.9018 30.4417C29.2872 30.4417 30.5613 28.5834 30.6144 28.5043C30.7677 28.2759 30.7068 27.9677 30.4792 27.8137Z" fill="#616161"/>
</g>
<defs>
<clipPath id="clip0_89_913">
<rect width="34" height="34" fill="white"/>
</clipPath>
</defs>
</svg>
