<svg width="34" height="34" viewBox="0 0 34 34" fill="none" xmlns="http://www.w3.org/2000/svg">
<path d="M32.2734 25.6063C32.0344 25.5531 31.7687 25.7125 31.7156 25.9781L31.6094 26.5625C30.0687 24.8891 25.6594 19.8156 23.2156 13.8922C23.1359 13.7328 23.0031 13.6266 22.7906 13.6H14.0781C13.9984 13.4938 13.9187 13.3875 13.839 13.2812V12.0063C14.264 12.4313 14.7687 12.8031 15.3 13.0688C15.539 13.175 15.8047 13.0953 15.9375 12.8563C16.0437 12.6172 15.964 12.325 15.725 12.2188C14.9547 11.8203 14.3172 11.2359 13.839 10.5453V9.48281C14.1578 9.775 14.5031 10.0141 14.875 10.2C15.114 10.3063 15.3797 10.2 15.4859 9.9875C15.5922 9.74844 15.5125 9.48281 15.2734 9.37656C14.689 9.08437 14.1844 8.63281 13.839 8.075V6.93281C14.025 7.09219 14.2375 7.19844 14.45 7.30469C14.689 7.41094 14.9547 7.33125 15.0875 7.09219C15.1937 6.85313 15.114 6.5875 14.875 6.45469C14.1844 6.08281 13.9187 5.60469 13.7859 5.44531C13.6 5.17969 13.2015 5.17969 13.0156 5.44531C12.9359 5.525 12.6437 6.08281 11.9265 6.45469C11.6875 6.56094 11.6078 6.85313 11.714 7.09219C11.8203 7.30469 12.0859 7.41094 12.325 7.30469C12.5375 7.19844 12.75 7.06563 12.9359 6.93281V8.075C12.564 8.63281 12.0859 9.05781 11.5015 9.37656C11.2625 9.48281 11.1562 9.775 11.289 9.9875C11.4219 10.2 11.6875 10.3328 11.9 10.2C12.2719 10.0141 12.6172 9.775 12.9359 9.48281V10.5453C12.4578 11.2625 11.8203 11.8469 11.05 12.2188C10.8109 12.325 10.7312 12.6172 10.8375 12.8297C10.9437 13.0422 11.2359 13.1484 11.4484 13.0422C11.9797 12.7766 12.4844 12.4047 12.9094 11.9797V13.2547C12.8297 13.3609 12.75 13.4672 12.6703 13.5734H11.2094C10.9969 13.5734 10.8375 13.7063 10.7844 13.8656C10.3062 14.9812 9.80155 16.0703 9.21717 17.1328C8.68592 16.7078 8.23436 16.2031 7.86249 15.6453V14.3703C8.28749 14.7953 8.79217 15.1672 9.32342 15.4328C9.56249 15.5391 9.82811 15.4594 9.96092 15.2203C10.0672 14.9812 9.98749 14.6891 9.74842 14.5828C8.97811 14.1844 8.34061 13.6 7.86249 12.9094V11.8469C8.18124 12.1391 8.52655 12.3781 8.89842 12.5641C9.13749 12.6703 9.40311 12.5906 9.53592 12.3516C9.64217 12.1125 9.56249 11.8203 9.32342 11.7141C8.73905 11.4219 8.23436 10.9703 7.88905 10.4391V9.29688C8.07499 9.45625 8.28749 9.5625 8.49999 9.66875C8.73905 9.775 9.00467 9.66875 9.11092 9.45625C9.21717 9.21719 9.13749 8.95156 8.89842 8.84531C8.2078 8.47344 7.94217 7.99531 7.80936 7.83594C7.62342 7.57031 7.22499 7.57031 7.03905 7.83594C6.95936 7.91563 6.66717 8.47344 5.94999 8.84531C5.71092 8.97812 5.63124 9.24375 5.76405 9.48281C5.8703 9.69531 6.13592 9.775 6.37499 9.69531C6.58749 9.58906 6.79999 9.45625 6.98592 9.32344V10.4656C6.61405 11.0234 6.13592 11.4484 5.55155 11.7406C5.31249 11.8469 5.2328 12.1391 5.33905 12.3516C5.4453 12.5641 5.73749 12.6703 5.94999 12.5641C6.32186 12.3781 6.66717 12.1391 6.98592 11.8469V12.9094C6.5078 13.6266 5.8703 14.2109 5.09999 14.5828C4.86092 14.6891 4.78124 14.9812 4.88749 15.1938C4.99374 15.4062 5.28592 15.5125 5.49842 15.4062C6.02967 15.1406 6.53436 14.7688 6.95936 14.3438V15.6719C6.37499 16.5484 5.57811 17.2656 4.64842 17.7438C4.40936 17.85 4.30311 18.1156 4.43592 18.3547C4.54217 18.5938 4.8078 18.7 5.04686 18.5672H5.07342C5.79061 18.2219 6.42811 17.7172 6.98592 17.1328V20.825C5.55155 22.8703 4.03749 24.7828 2.39061 26.5625L2.2578 25.9516C2.20467 25.7125 1.96561 25.5266 1.69999 25.5797C1.43436 25.6328 1.27499 25.8719 1.32811 26.1375L1.91249 28.9266C1.96561 29.1656 2.20467 29.3516 2.4703 29.2984C2.70936 29.2453 2.8953 29.0062 2.84217 28.7406L2.62967 27.6781C4.1703 26.0312 5.60467 24.3047 6.90624 22.4984V23.2687L4.67499 28.6609C4.54217 28.9797 4.78124 29.2984 5.09999 29.2984H28.8734C29.1922 29.2984 29.4312 28.9531 29.2984 28.6609L26.2969 21.3828C27.8109 23.6141 29.5109 25.7125 31.3437 27.6516L31.1312 28.7141C31.0781 28.9531 31.2375 29.2188 31.5031 29.2719C31.7422 29.325 32.0078 29.1656 32.0609 28.9L32.6453 26.1109C32.6984 25.8984 32.539 25.6594 32.2734 25.6063ZM14.3437 28.3688L14.1844 27.6516C16.0172 25.6859 17.7172 23.5875 19.2312 21.3828L16.3359 28.3688H14.3437ZM23.2422 23.375L25.0484 28.3953H23.2422V23.375ZM23.9859 22.7109L27.1203 26.0578L25.8453 27.8375L23.9859 22.7109ZM23.2422 20.5328V16.4156L26.2969 23.8266L23.2422 20.5328ZM7.86249 17.1859C8.12811 17.4781 8.44686 17.7437 8.76561 17.9828C8.47342 18.4875 8.18124 18.9922 7.86249 19.4703V17.1859ZM11.5281 14.5562H22.0734C19.6031 20.1609 15.4594 24.9422 13.9719 26.5625L13.839 25.9516C13.7859 25.7125 13.5469 25.5266 13.2812 25.5797C13.0422 25.6328 12.8562 25.8719 12.9094 26.1375L13.3875 28.3688H5.81717L11.5281 14.5562ZM22.3125 16.4156V20.7188V28.3688H17.3719L22.3125 16.4156ZM26.6156 28.3688L27.5984 26.9875L28.1828 28.3688H26.6156Z" fill="#616161"/>
<path d="M23.8 5.55155C24.0125 5.39217 24.039 5.09999 23.9062 4.91405C23.8265 4.8078 23.6937 4.72811 23.5609 4.72811C21.6484 4.5953 20.0015 6.05624 19.8687 7.96874C19.7359 9.88124 21.1969 11.5281 23.1094 11.6609C24.3578 11.7406 25.5797 11.1297 26.2437 10.0672C26.3765 9.85468 26.3234 9.56249 26.1109 9.42967C26.0047 9.34999 25.8453 9.34999 25.739 9.37655C24.5969 9.72186 23.375 9.11092 23.0297 7.96874C22.7375 7.03905 23.0562 6.0828 23.8 5.55155ZM24.65 10.3594C23.4547 11.0765 21.8875 10.7047 21.1703 9.50936C20.3734 8.18124 20.9312 6.42811 22.3656 5.84374C21.5687 7.3578 22.1265 9.21717 23.6406 10.0406C23.9328 10.1734 24.2781 10.3062 24.65 10.3594Z" fill="#616161"/>
</svg>
