<svg width="34" height="34" viewBox="0 0 34 34" fill="none" xmlns="http://www.w3.org/2000/svg">
<g clip-path="url(#clip0_89_924)">
<path d="M1.74198 17.701C1.94046 17.8093 2.14927 17.8976 2.36532 17.9645C2.09988 18.9429 2.37846 19.9886 3.09552 20.7053C3.81257 21.422 4.85839 21.7001 5.83672 21.4342C6.2344 22.7129 7.35292 23.6337 8.68422 23.7785C8.87508 24.3216 9.20185 24.8067 9.63338 25.1878V28.9C9.63338 30.5173 9.31322 32.2241 8.46152 32.7193C8.35838 31.5781 7.97588 29.3805 6.54788 28.4285C6.2875 28.2548 5.93561 28.3251 5.76192 28.5855C5.58822 28.8459 5.6585 29.1978 5.91888 29.3715C6.54287 29.9013 6.96169 30.6329 7.10265 31.4392C6.54503 30.9477 5.84148 30.6529 5.10005 30.6C4.79095 30.6003 4.53984 30.8496 4.53735 31.1587C4.53507 31.4693 4.78163 31.7247 5.09212 31.7333C5.83316 31.8338 6.49593 32.2462 6.91338 32.8666H3.96672C3.65375 32.8666 3.40005 33.1204 3.40005 33.4333C3.40005 33.7463 3.65375 34 3.96672 34H33.4334C33.7463 34 34 33.7463 34 33.4333C34 33.1204 33.7463 32.8666 33.4334 32.8666H32.3V8.49998C33.2389 8.49998 34 7.73887 34 6.79998V6.57615C34.0009 6.24074 33.9023 5.91261 33.7167 5.63322L30.8437 1.32655C30.5287 0.851869 29.9968 0.566564 29.427 0.566651H15.3C15.1109 0.566685 14.9343 0.661061 14.8291 0.818251L14.654 1.08118C13.7129 0.414823 12.4594 0.393901 11.4966 1.02848C10.7766 0.287728 9.75839 -0.0847667 8.73035 0.0164825C7.7023 0.117732 6.77634 0.681701 6.21468 1.54868C6.02942 1.83657 5.88934 2.15112 5.79932 2.48142C4.05723 1.88637 2.13495 2.57205 1.16273 4.13529C0.190504 5.69854 0.425489 7.72588 1.72952 9.02528C1.3422 9.52304 1.13238 10.136 1.13338 10.7667C1.13501 11.1882 1.23186 11.6039 1.41672 11.9827C0.471969 12.6587 -0.0607577 13.7714 0.00509955 14.9312C0.0709568 16.091 0.726788 17.1363 1.74198 17.701ZM9.90482 32.8666C10.4658 31.9974 10.7667 30.6504 10.7667 28.9V25.8706C11.4997 26.132 12.3004 26.132 13.0334 25.8706V28.9C13.0334 30.6504 13.3343 31.9974 13.8953 32.8666H9.90482ZM31.1667 22.1H24.3667V20.9667H31.1667V22.1ZM23.2334 30.6H19.8334V28.9H23.2334V30.6ZM23.2334 27.7666H19.8334V26.0667H23.2334V27.7666ZM23.2334 24.9333H19.8334V23.2333H23.2334V24.9333ZM19.8334 31.7333H23.2334V32.8666H19.8334V31.7333ZM23.2334 22.1H19.8334V15.8667C19.8334 14.9278 20.5945 14.1667 21.5334 14.1667C22.4723 14.1667 23.2334 14.9278 23.2334 15.8667V22.1ZM18.7 22.1H14.1667V21.6393C14.477 21.4598 14.7573 21.2328 14.9974 20.9667H18.7V22.1ZM16.5093 32.8666C16.5708 32.3801 16.8428 31.945 17.2533 31.6767C17.5334 31.5368 17.6471 31.1963 17.5072 30.9162C17.3673 30.6361 17.0268 30.5224 16.7467 30.6623C15.9911 31.1055 15.4842 31.8745 15.3748 32.7437C14.4954 32.2733 14.1667 30.5433 14.1667 28.9V23.2333H18.7V32.8666H16.5093ZM24.3667 32.8666V23.2333H28.9V32.8666H24.3667ZM30.0334 32.8666V23.2333H31.1667V32.8666H30.0334ZM31.1667 19.8333H24.3667V15.8667C24.3667 14.3018 23.0982 13.0333 21.5334 13.0333C19.9686 13.0333 18.7 14.3018 18.7 15.8667V19.8333H15.6633C15.7954 19.4699 15.8642 19.0866 15.8667 18.7C15.8663 18.5522 15.8565 18.4045 15.8372 18.258C16.7688 17.7343 17.3988 16.8019 17.5371 15.7422C17.6753 14.6825 17.3055 13.6197 16.5393 12.8747C16.8405 12.4171 17.0007 11.8811 17 11.3333C16.991 10.1809 16.2891 9.14714 15.2213 8.71362C15.2354 8.64335 15.2434 8.57138 15.2541 8.49998H31.1667V19.8333ZM29.427 1.69998C29.6165 1.69996 29.7934 1.79458 29.8985 1.95215L32.7715 6.26165C32.8333 6.35493 32.8664 6.46427 32.8667 6.57615V6.79998C32.8667 7.11295 32.613 7.36665 32.3 7.36665H15.2587C15.0982 6.28659 14.5014 5.31972 13.608 4.69198L15.6026 1.69998H29.427ZM5.60325 16.7359C5.52415 16.6081 5.39749 16.5169 5.25114 16.4824C5.10479 16.448 4.95076 16.4731 4.82295 16.5523C4.07502 17.0713 3.10085 17.1325 2.29392 16.711C1.57756 16.3105 1.13366 15.554 1.13338 14.7333C1.13013 13.9957 1.49047 13.3039 2.09672 12.8837C2.43021 13.181 2.82537 13.4009 3.25385 13.5275C3.55398 13.6162 3.86921 13.4448 3.95793 13.1447C4.04666 12.8445 3.87528 12.5293 3.57515 12.4406C2.81399 12.2376 2.27987 11.5543 2.26672 10.7667C2.26404 9.98775 2.79532 9.30842 3.55192 9.12332C3.7487 9.07524 3.90488 8.92582 3.96163 8.73137C4.01838 8.53691 3.96708 8.32694 3.82705 8.18056C3.68702 8.03419 3.47953 7.97364 3.28275 8.02172C3.04337 8.08328 2.81319 8.17626 2.59822 8.29825C1.5874 7.35485 1.40667 5.81899 2.17087 4.66672C2.93508 3.51444 4.42026 3.08344 5.68258 3.64762C5.71564 4.07746 5.82301 4.49831 5.99992 4.89145C6.09086 5.09616 6.29385 5.22808 6.51785 5.22805C6.59712 5.22768 6.67545 5.21089 6.74792 5.17875C6.88523 5.11754 6.9926 5.00427 7.04637 4.86387C7.10015 4.72348 7.09593 4.56747 7.03465 4.43018C6.6858 3.70372 6.73525 2.84887 7.16555 2.16748C7.54009 1.58923 8.15768 1.21312 8.84333 1.14573C9.52898 1.07833 10.208 1.32699 10.6879 1.82125C10.5052 2.09541 10.3723 2.39965 10.2952 2.71998C10.2244 3.02409 10.413 3.32819 10.7168 3.39998C10.7597 3.4101 10.8037 3.41523 10.8477 3.41528C11.1104 3.41491 11.3384 3.23407 11.3985 2.97838C11.5797 2.22378 12.2574 1.69384 13.0334 1.69998C13.3898 1.70078 13.7367 1.81445 14.0245 2.02468L12.5857 4.18312C12.3026 4.08421 12.009 4.01805 11.7108 3.98592C11.5092 3.96658 11.3127 4.05624 11.1952 4.22111C11.0777 4.38598 11.057 4.60102 11.1411 4.78523C11.2251 4.96943 11.401 5.09482 11.6025 5.11415C11.9365 5.14432 12.2619 5.23596 12.5625 5.38445C13.5412 5.85674 14.1642 6.84658 14.1667 7.93332C14.1654 8.68113 13.8614 9.39657 13.3241 9.91665C13.1121 10.1377 13.114 10.4872 13.3285 10.7058C13.543 10.9244 13.8924 10.9331 14.1174 10.7253C14.4023 10.4461 14.6438 10.1258 14.8337 9.77498C15.4566 10.0436 15.8619 10.655 15.8667 11.3333C15.8663 11.6494 15.7763 11.9588 15.6072 12.2258C15.3602 12.1059 15.0992 12.0172 14.8303 11.9618C14.6303 11.9209 14.4239 11.9907 14.2897 12.1445C14.1556 12.2983 14.1145 12.5123 14.1822 12.7048C14.2498 12.8973 14.4158 13.0386 14.6166 13.0747C15.7596 13.3066 16.5409 14.3668 16.4239 15.5272C16.3068 16.6876 15.3296 17.5705 14.1633 17.5695C13.8504 17.5695 13.5966 17.8232 13.5966 18.1362C13.5966 18.4491 13.8504 18.7028 14.1633 18.7028C14.3522 18.7012 14.5406 18.684 14.7266 18.6513C14.7266 18.6677 14.73 18.6835 14.73 18.7C14.7279 19.6 14.1967 20.4147 13.3739 20.7796C12.8943 20.9833 12.3603 21.0206 11.857 20.8856C11.662 20.8309 11.4525 20.8844 11.3077 21.026C11.1628 21.1676 11.1046 21.3757 11.1549 21.5719C11.2052 21.7682 11.3564 21.9226 11.5515 21.977C11.8496 22.0596 12.1575 22.101 12.4667 22.1C12.6567 22.0986 12.8462 22.0816 13.0334 22.049V24.6228C12.2473 25.0677 11.2739 25.0127 10.5429 24.4823C9.80837 23.9394 9.47973 23.0032 9.71385 22.1204C9.79209 21.8171 9.60968 21.5079 9.30642 21.4296C9.00316 21.3514 8.69389 21.5338 8.61565 21.837C8.55451 22.0851 8.52106 22.3392 8.51591 22.5947C7.34113 22.3056 6.606 21.1384 6.85275 19.954C6.89162 19.7553 6.82153 19.551 6.66888 19.4179C6.51623 19.2849 6.30422 19.2435 6.1127 19.3091C5.92118 19.3748 5.77925 19.5377 5.74038 19.7364C5.70699 19.9163 5.68804 20.0986 5.68372 20.2816C5.49796 20.3561 5.30018 20.3963 5.10005 20.4C4.16116 20.4 3.40005 19.6389 3.40005 18.7C3.40345 18.5009 3.443 18.3041 3.51678 18.1192C4.19246 18.0867 4.84806 17.8789 5.41908 17.5162C5.54703 17.4372 5.63833 17.3106 5.67287 17.1642C5.70741 17.0179 5.68237 16.8638 5.60325 16.7359Z" fill="#616161"/>
<path d="M9.06667 17.5666C9.37963 17.5666 9.63333 17.3129 9.63333 16.9999C9.63333 16.687 9.88704 16.4333 10.2 16.4333C10.513 16.4333 10.7667 16.1796 10.7667 15.8666C10.7667 15.5536 10.513 15.2999 10.2 15.2999C9.26112 15.2999 8.5 16.061 8.5 16.9999C8.5 17.3129 8.75371 17.5666 9.06667 17.5666Z" fill="#616161"/>
<path d="M6.80007 10.7667C7.11303 10.7667 7.36673 10.513 7.36673 10.2C7.36673 9.88704 7.62044 9.63333 7.9334 9.63333C8.24636 9.63333 8.50007 9.37963 8.50007 9.06667C8.50007 8.75371 8.24636 8.5 7.9334 8.5C6.99451 8.5 6.2334 9.26112 6.2334 10.2C6.2334 10.513 6.4871 10.7667 6.80007 10.7667Z" fill="#616161"/>
<path d="M11.3334 11.8999C11.6464 11.8999 11.9001 12.1536 11.9001 12.4666C11.9001 12.7796 12.1538 13.0333 12.4667 13.0333C12.7797 13.0333 13.0334 12.7796 13.0334 12.4666C13.0334 11.5277 12.2723 10.7666 11.3334 10.7666C11.0204 10.7666 10.7667 11.0203 10.7667 11.3333C10.7667 11.6462 11.0204 11.8999 11.3334 11.8999Z" fill="#616161"/>
<path d="M26.6333 14.1666H28.9C29.5259 14.1666 30.0333 13.6592 30.0333 13.0333V10.7666C30.0333 10.1407 29.5259 9.6333 28.9 9.6333H26.6333C26.0074 9.6333 25.5 10.1407 25.5 10.7666V13.0333C25.5 13.6592 26.0074 14.1666 26.6333 14.1666ZM26.6333 10.7666H28.9V13.0333H26.6333V10.7666Z" fill="#616161"/>
<path d="M16.4334 6.23331H30.0334C30.3463 6.23331 30.6 5.9796 30.6 5.66664C30.6 5.35368 30.3463 5.09998 30.0334 5.09998H16.4334C16.1204 5.09998 15.8667 5.35368 15.8667 5.66664C15.8667 5.9796 16.1204 6.23331 16.4334 6.23331Z" fill="#616161"/>
<path d="M1.7 34C2.01296 34 2.26667 33.7463 2.26667 33.4334C2.26667 33.1204 2.01296 32.8667 1.7 32.8667H0.566667C0.253705 32.8667 0 33.1204 0 33.4334C0 33.7463 0.253705 34 0.566667 34H1.7Z" fill="#616161"/>
</g>
<defs>
<clipPath id="clip0_89_924">
<rect width="34" height="34" fill="white"/>
</clipPath>
</defs>
</svg>
