<svg width="34" height="34" viewBox="0 0 34 34" fill="none" xmlns="http://www.w3.org/2000/svg">
<g clip-path="url(#clip0_89_910)">
<path d="M33.5021 21.2168H13.2914L12.2545 14.9099C13.0505 14.9847 13.7292 15.5872 13.8649 16.4121C13.9764 17.0899 14.9462 16.8418 14.8475 16.25C14.4497 13.8323 18.0333 13.4055 18.4048 15.6657C18.5026 16.2597 19.4991 16.1845 19.3876 15.5041C19.0222 13.2823 22.3958 12.6152 22.918 14.7879C22.9583 15.5878 24.0712 15.3784 23.8969 14.5991C23.3444 11.4924 21.6328 8.77437 19.0641 6.93109C16.4714 5.07055 13.3135 4.32343 10.1644 4.82224C10.1615 4.82264 10.1586 4.82311 10.1569 4.82337L10.1411 4.82576C10.1407 4.82583 10.1401 4.82596 10.1397 4.82603C10.1285 4.82782 10.1172 4.82928 10.106 4.83114C10.1054 4.83121 10.1048 4.83127 10.1043 4.8314C10.101 4.83187 10.0972 4.83247 10.0941 4.83293C10.0941 4.83293 10.0939 4.83293 10.0939 4.833C10.0936 4.83306 10.0934 4.83306 10.0931 4.83313C3.54344 5.9099 -0.908962 12.1145 0.167937 18.6641C0.272772 19.3016 1.33692 19.1539 1.22764 18.4898C1.0681 17.5194 1.74338 16.5783 2.71385 16.4188C3.66042 16.263 4.63083 16.9673 4.78493 17.905C4.8879 18.5309 5.87909 18.421 5.76768 17.7434C5.40683 15.5487 8.69801 14.8158 9.28539 16.9767C9.4794 17.6913 10.3922 17.7629 10.2951 16.9064C10.2148 16.2015 10.656 15.4068 11.2757 15.0943L12.2823 21.2167H0.504684C0.229683 21.2167 0.00673448 21.4397 0.00673448 21.7147C0.00673448 21.9897 0.229683 22.2126 0.504684 22.2126H12.4459L12.9611 25.3461C11.9613 24.6556 10.9138 24.0292 9.76455 23.6388C8.10578 23.0753 6.21763 23.0717 4.44805 23.6286C2.67827 24.1854 1.1329 25.2694 0.096631 26.6809C-0.066099 26.9026 -0.0182958 27.2142 0.203325 27.377C0.425079 27.5397 0.736662 27.4919 0.899392 27.2703C1.81117 26.0283 3.17761 25.0723 4.74688 24.5786C6.31609 24.0848 7.98435 24.0859 9.44421 24.5818C10.9907 25.1072 12.3999 26.147 13.7626 27.1527C15.6834 28.5701 17.6697 30.0359 20.1277 30.1571C20.2368 30.1624 20.3451 30.165 20.4532 30.165C21.8183 30.165 23.105 29.753 24.216 29.3601C24.4752 29.2684 24.6111 28.984 24.5194 28.7247C24.4277 28.4654 24.1431 28.3294 23.8839 28.4213C22.7747 28.8136 21.4822 29.2266 20.1768 29.1624C18.0191 29.056 16.2388 27.7422 14.354 26.3513C14.2677 26.2877 14.1812 26.2239 14.0946 26.1601C14.0955 26.1285 14.0937 26.0963 14.0884 26.0639L13.4552 22.2126H33.5021C33.7771 22.2126 34 21.9897 34 21.7147C34 21.4397 33.7771 21.2168 33.5021 21.2168ZM13.4575 14.267C12.3324 13.6326 10.8808 13.8604 10.0068 14.8288C9.7368 12.6701 9.6167 10.6561 9.66516 9.02168C9.73713 6.59302 10.1628 5.87212 10.306 5.80838C10.3061 5.80838 10.3062 5.80838 10.3063 5.80832C10.4676 5.82412 11.1016 6.37326 11.9469 8.65074C12.5179 10.1892 13.0503 12.1433 13.4864 14.2828C13.4768 14.2773 13.467 14.2723 13.4575 14.267ZM14.4788 14.167C14.015 11.8729 13.4421 9.78401 12.8249 8.15598C12.4557 7.18232 12.0849 6.41236 11.7218 5.86435C12.8621 6.11904 14.0081 6.86928 15.0532 8.06615C16.2706 9.46041 17.2406 11.3296 17.8609 13.4468C17.3414 13.19 16.7418 13.1029 16.1721 13.1966C15.4829 13.31 14.8942 13.6682 14.4788 14.167ZM22.3234 12.6645C21.142 12.1257 19.7019 12.4945 18.9224 13.5432C17.9781 10.0586 16.1744 7.28736 14.0661 5.85028C15.6403 6.14201 17.1442 6.77912 18.4835 7.74023C20.2369 8.99851 21.5549 10.7012 22.3234 12.6645ZM3.00784 15.3987C2.29418 15.3987 1.51107 15.7252 1.01352 16.2317C1.17931 12.3897 3.35581 8.92475 6.65376 7.07503C6.11014 7.79434 5.64983 8.66595 5.29582 9.66869C5.0815 10.2758 6.02057 10.6074 6.23495 10.0003C6.85938 8.23174 7.83052 6.93521 8.99346 6.27074C8.81964 6.90487 8.71501 7.75178 8.67524 8.82689C8.61057 10.5736 8.73745 12.7474 9.03509 15.0819C7.90528 14.3697 6.40705 14.5637 5.49772 15.545C5.44819 14.4355 5.5037 13.3542 5.66424 12.314C5.76243 11.6777 4.77835 11.5256 4.68002 12.162C4.49711 13.3467 4.4428 14.5797 4.51623 15.8435C4.07518 15.5604 3.55459 15.3987 3.00784 15.3987Z" fill="#616161"/>
<path d="M28.4813 8.27969C30.0018 8.27969 31.2389 7.04265 31.2389 5.52205C31.2389 4.00144 30.0019 2.7644 28.4813 2.7644C26.9607 2.7644 25.7236 4.00144 25.7236 5.52205C25.7236 7.04265 26.9607 8.27969 28.4813 8.27969ZM28.4813 3.76037C29.4527 3.76037 30.243 4.55065 30.243 5.52212C30.243 6.49358 29.4527 7.28386 28.4813 7.28386C27.5098 7.28386 26.7195 6.49358 26.7195 5.52212C26.7195 4.55065 27.5099 3.76037 28.4813 3.76037Z" fill="#616161"/>
<path d="M28.4813 2.17821C28.7563 2.17821 28.9792 1.95526 28.9792 1.68026V0.501245C28.9792 0.226245 28.7563 0.0032959 28.4813 0.0032959C28.2063 0.0032959 27.9833 0.226245 27.9833 0.501245V1.68026C27.9833 1.95526 28.2063 2.17821 28.4813 2.17821Z" fill="#616161"/>
<path d="M27.9833 9.36379V10.5428C27.9833 10.8178 28.2063 11.0408 28.4813 11.0408C28.7563 11.0408 28.9792 10.8178 28.9792 10.5428V9.36379C28.9792 9.08879 28.7563 8.86584 28.4813 8.86584C28.2063 8.86584 27.9833 9.08879 27.9833 9.36379Z" fill="#616161"/>
<path d="M31.1978 3.30346C31.3252 3.30346 31.4527 3.25486 31.5499 3.15759L32.3836 2.32389C32.5781 2.12943 32.5781 1.81413 32.3836 1.61973C32.1891 1.42526 31.8738 1.42526 31.6794 1.61973L30.8457 2.45343C30.6513 2.64789 30.6513 2.96319 30.8457 3.15759C30.9429 3.25486 31.0704 3.30346 31.1978 3.30346Z" fill="#616161"/>
<path d="M25.4127 7.88645L24.579 8.72015C24.3845 8.91462 24.3845 9.22992 24.579 9.42432C24.6762 9.52152 24.8036 9.57018 24.931 9.57018C25.0584 9.57018 25.1859 9.52158 25.2831 9.42432L26.1168 8.59062C26.3113 8.39615 26.3113 8.08085 26.1168 7.88645C25.9224 7.69198 25.6071 7.69198 25.4127 7.88645Z" fill="#616161"/>
<path d="M31.8251 5.522C31.8251 5.797 32.0481 6.01995 32.3231 6.01995H33.5021C33.7771 6.01995 34 5.797 34 5.522C34 5.247 33.7771 5.02405 33.5021 5.02405H32.3231C32.0481 5.02405 31.8251 5.247 31.8251 5.522Z" fill="#616161"/>
<path d="M23.4605 6.01995H24.6395C24.9145 6.01995 25.1374 5.797 25.1374 5.522C25.1374 5.247 24.9145 5.02405 24.6395 5.02405H23.4605C23.1855 5.02405 22.9625 5.247 22.9625 5.522C22.9625 5.797 23.1855 6.01995 23.4605 6.01995Z" fill="#616161"/>
<path d="M30.8457 7.88645C30.6513 8.08092 30.6513 8.39615 30.8457 8.59062L31.6794 9.42432C31.7766 9.52158 31.9041 9.57018 32.0315 9.57018C32.1589 9.57018 32.2864 9.52158 32.3836 9.42432C32.5781 9.22985 32.5781 8.91462 32.3836 8.72015L31.5499 7.88645C31.3555 7.69198 31.0402 7.69198 30.8457 7.88645Z" fill="#616161"/>
<path d="M25.4127 3.15762C25.5099 3.25488 25.6373 3.30349 25.7647 3.30349C25.8921 3.30349 26.0196 3.25488 26.1168 3.15762C26.3113 2.96315 26.3113 2.64785 26.1168 2.45345L25.2831 1.61975C25.0887 1.42522 24.7734 1.42529 24.579 1.61975C24.3845 1.81422 24.3845 2.12952 24.579 2.32392L25.4127 3.15762Z" fill="#616161"/>
<path d="M2.28131 28.2632C1.64048 28.2632 1.63942 29.2591 2.28131 29.2591C2.92214 29.2591 2.9232 28.2632 2.28131 28.2632Z" fill="#616161"/>
<path d="M9.1568 31.0427C8.51597 31.0427 8.51491 32.0386 9.1568 32.0386C9.79763 32.0386 9.79869 31.0427 9.1568 31.0427Z" fill="#616161"/>
<path d="M10.8891 27.276C10.2483 27.276 10.2472 28.2719 10.8891 28.2719C11.5299 28.2719 11.531 27.276 10.8891 27.276Z" fill="#616161"/>
<path d="M24.0859 33.0007C23.4451 33.0007 23.444 33.9966 24.0859 33.9966C24.7268 33.9966 24.7278 33.0007 24.0859 33.0007Z" fill="#616161"/>
<path d="M29.9913 30.2316C29.3505 30.2316 29.3494 31.2275 29.9913 31.2275C30.6322 31.2275 30.6332 30.2316 29.9913 30.2316Z" fill="#616161"/>
<path d="M19.3159 25.6467C19.0409 25.6467 18.818 25.8697 18.818 26.1447C18.818 26.4197 19.0409 26.6426 19.3159 26.6426H23.148C23.423 26.6426 23.6459 26.4197 23.6459 26.1447C23.6459 25.8697 23.423 25.6467 23.148 25.6467H19.3159Z" fill="#616161"/>
<path d="M31.2389 24.1085C31.2389 23.8335 31.016 23.6106 30.741 23.6106H22.1764C21.9014 23.6106 21.6785 23.8335 21.6785 24.1085C21.6785 24.3835 21.9014 24.6065 22.1764 24.6065H30.741C31.016 24.6065 31.2389 24.3836 31.2389 24.1085Z" fill="#616161"/>
<path d="M33.8118 28.78C31.9123 27.1859 29.6839 26.7304 26.9991 27.3874C26.732 27.4528 26.5684 27.7223 26.6338 27.9894C26.6992 28.2566 26.9689 28.4202 27.2359 28.3547C29.5907 27.7784 31.5323 28.1671 33.1716 29.5428C33.2649 29.6211 33.3785 29.6594 33.4914 29.6594C33.6335 29.6594 33.7746 29.5989 33.8731 29.4815C34.0498 29.2709 34.0224 28.9568 33.8118 28.78Z" fill="#616161"/>
</g>
<defs>
<clipPath id="clip0_89_910">
<rect width="34" height="34" fill="white"/>
</clipPath>
</defs>
</svg>
