<svg width="34" height="34" viewBox="0 0 34 34" fill="none" xmlns="http://www.w3.org/2000/svg">
<path d="M30.0334 15.8667H28.9V11.3334C28.9 11.0614 28.7074 10.8291 28.4467 10.7781L23.2334 9.7354V8.7154L24.5877 9.12907C24.6444 9.14607 24.701 9.15174 24.752 9.15174C24.9957 9.15174 25.2224 8.99307 25.296 8.7494C25.3867 8.44907 25.2167 8.13174 24.922 8.04107L22.9217 7.42907C22.8934 7.41207 22.865 7.39507 22.8367 7.3894L20.0034 6.5394L9.80336 3.42274C9.50302 3.33207 9.18569 3.50207 9.09502 3.79674C9.00436 4.09707 9.17436 4.4144 9.46902 4.50507L10.7667 4.9074V9.7354L5.55336 10.7781C5.29269 10.8291 5.10002 11.0614 5.10002 11.3334V15.8667H3.96669C3.65502 15.8667 3.40002 16.1217 3.40002 16.4334V30.0334C3.40002 30.3451 3.65502 30.6001 3.96669 30.6001H14.7334H19.2667H30.0334C30.345 30.6001 30.6 30.3451 30.6 30.0334V16.4334C30.6 16.1217 30.345 15.8667 30.0334 15.8667ZM27.7667 11.7981V15.8667H23.2334V10.8914L27.7667 11.7981ZM22.1 8.36974V10.2001V15.8667H11.9V10.2001V5.29274L19.669 7.62174L22.1 8.36974ZM6.23336 11.7981L10.7667 10.8914V15.8667H6.23336V11.7981ZM15.3 29.4667V23.8001H18.7V29.4667H15.3ZM29.4667 29.4667H19.8334V23.8001H20.9667C21.2784 23.8001 21.5334 23.5451 21.5334 23.2334C21.5334 22.9217 21.2784 22.6667 20.9667 22.6667H19.2667H14.7334H13.0334C12.7217 22.6667 12.4667 22.9217 12.4667 23.2334C12.4667 23.5451 12.7217 23.8001 13.0334 23.8001H14.1667V29.4667H4.53336V17.0001H5.66669H11.3334H22.6667H28.3334H29.4667V29.4667Z" fill="#616161"/>
<path d="M26.6333 19.2666H23.2333C22.9216 19.2666 22.6666 19.5216 22.6666 19.8333V23.2333C22.6666 23.5449 22.9216 23.7999 23.2333 23.7999H26.6333C26.945 23.7999 27.2 23.5449 27.2 23.2333V19.8333C27.2 19.5216 26.945 19.2666 26.6333 19.2666ZM26.0666 22.6666H23.8V20.3999H26.0666V22.6666Z" fill="#616161"/>
<path d="M10.7667 19.2666H7.36672C7.05505 19.2666 6.80005 19.5216 6.80005 19.8333V23.2333C6.80005 23.5449 7.05505 23.7999 7.36672 23.7999H10.7667C11.0784 23.7999 11.3334 23.5449 11.3334 23.2333V19.8333C11.3334 19.5216 11.0784 19.2666 10.7667 19.2666ZM10.2 22.6666H7.93338V20.3999H10.2V22.6666Z" fill="#616161"/>
<path d="M14.1666 14.1668H19.8333C20.145 14.1668 20.4 13.9118 20.4 13.6001V10.2001C20.4 9.88842 20.145 9.63342 19.8333 9.63342H14.1666C13.855 9.63342 13.6 9.88842 13.6 10.2001V13.6001C13.6 13.9118 13.855 14.1668 14.1666 14.1668ZM19.2666 13.0334H17.5666V10.7668H19.2666V13.0334ZM14.7333 10.7668H16.4333V13.0334H14.7333V10.7668Z" fill="#616161"/>
</svg>
