<svg width="34" height="34" viewBox="0 0 34 34" fill="none" xmlns="http://www.w3.org/2000/svg">
<path fill-rule="evenodd" clip-rule="evenodd" d="M7.4362 14.2442V11.3335C7.4362 6.05227 11.7175 1.771 16.9987 1.771C22.2799 1.771 26.5612 6.05227 26.5612 11.3335V14.2442C28.1404 14.3621 29.1688 14.6599 29.9206 15.4116C31.1654 16.6564 31.1654 18.6599 31.1654 22.6668C31.1654 26.6738 31.1654 28.6772 29.9206 29.922C28.6758 31.1668 26.6723 31.1668 22.6654 31.1668H11.332C7.32509 31.1668 5.32162 31.1668 4.07683 29.922C2.83203 28.6772 2.83203 26.6738 2.83203 22.6668C2.83203 18.6599 2.83203 16.6564 4.07683 15.4116C4.82855 14.6599 5.85696 14.3621 7.4362 14.2442ZM9.5612 11.3335C9.5612 7.22588 12.8911 3.896 16.9987 3.896C21.1063 3.896 24.4362 7.22588 24.4362 11.3335V14.1719C23.8936 14.1668 23.305 14.1668 22.6654 14.1668H11.332C10.6924 14.1668 10.1038 14.1668 9.5612 14.1719V11.3335Z" fill="#161117"/>
</svg>
