<svg width="35" height="35" viewBox="0 0 35 35" fill="none" xmlns="http://www.w3.org/2000/svg">
<path fill-rule="evenodd" clip-rule="evenodd" d="M17.5 2.91663C11.0567 2.91663 5.83337 8.75373 5.83337 15.3125C5.83337 21.8198 9.55697 28.8931 15.3666 31.6085C16.7209 32.2415 18.2792 32.2415 19.6335 31.6085C25.4431 28.8931 29.1667 21.8198 29.1667 15.3125C29.1667 8.75373 23.9434 2.91663 17.5 2.91663ZM17.5 17.5C19.1109 17.5 20.4167 16.1941 20.4167 14.5833C20.4167 12.9725 19.1109 11.6666 17.5 11.6666C15.8892 11.6666 14.5834 12.9725 14.5834 14.5833C14.5834 16.1941 15.8892 17.5 17.5 17.5Z" fill="#161117"/>
</svg>
