<svg width="34" height="34" viewBox="0 0 34 34" fill="none" xmlns="http://www.w3.org/2000/svg">
<g clip-path="url(#clip0_89_970)">
<path d="M1.32971 22.9556V25.6954C1.32971 28.8618 3.65679 31.4946 6.69049 31.9741V33.9997H8.68274V32.0523H25.3175V33.9997H27.3098V31.9741C30.3435 31.4946 32.6705 28.8618 32.6705 25.6954V22.9556H1.32971Z" fill="#131212"/>
<path d="M3.32235 16.976V5.48223C3.32235 3.55785 4.88801 1.99225 6.8124 1.99225C8.59461 1.99225 10.068 3.33525 10.2762 5.06221C8.20168 5.52945 6.64705 7.38557 6.64705 9.59916V10.9275H15.95V9.59916C15.95 7.36963 14.373 5.50242 12.2762 5.05192C12.0557 2.22959 9.69031 0 6.8124 0C3.78945 0 1.3301 2.45929 1.3301 5.48223V16.976H0.000976562V20.9637H34.0002V16.976H3.32235Z" fill="#131212"/>
</g>
<defs>
<clipPath id="clip0_89_970">
<rect width="34" height="34" fill="white"/>
</clipPath>
</defs>
</svg>
