<svg width="34" height="34" viewBox="0 0 34 34" fill="none" xmlns="http://www.w3.org/2000/svg">
<path d="M28.6875 15.3202C28.0177 15.0261 27.294 14.8746 26.5625 14.8752H7.4375C6.70604 14.8745 5.98241 15.0258 5.3125 15.3195C4.36568 15.7336 3.56 16.4145 2.99392 17.279C2.42785 18.1436 2.1259 19.1544 2.125 20.1877V27.6252C2.125 27.907 2.23694 28.1773 2.4362 28.3765C2.63546 28.5758 2.90571 28.6877 3.1875 28.6877C3.46929 28.6877 3.73954 28.5758 3.9388 28.3765C4.13806 28.1773 4.25 27.907 4.25 27.6252V27.094C4.25172 26.9536 4.30825 26.8195 4.4075 26.7203C4.50676 26.621 4.64089 26.5645 4.78125 26.5627H29.2188C29.3591 26.5645 29.4932 26.621 29.5925 26.7203C29.6918 26.8195 29.7483 26.9536 29.75 27.094V27.6252C29.75 27.907 29.8619 28.1773 30.0612 28.3765C30.2605 28.5758 30.5307 28.6877 30.8125 28.6877C31.0943 28.6877 31.3645 28.5758 31.5638 28.3765C31.7631 28.1773 31.875 27.907 31.875 27.6252V20.1877C31.874 19.1545 31.572 18.1439 31.0059 17.2794C30.4398 16.415 29.6342 15.7342 28.6875 15.3202Z" fill="#131212"/>
<path d="M24.9686 5.31262H9.03113C8.04485 5.31262 7.09898 5.70442 6.40157 6.40182C5.70417 7.09922 5.31238 8.0451 5.31238 9.03137V13.8126C5.31241 13.8538 5.322 13.8944 5.34041 13.9312C5.35881 13.968 5.38552 14.0001 5.41843 14.0248C5.45133 14.0495 5.48954 14.0662 5.53002 14.0737C5.57051 14.0811 5.61217 14.079 5.65171 14.0676C6.23175 13.898 6.83305 13.8121 7.43738 13.8126H7.71828C7.78384 13.813 7.84724 13.7892 7.89628 13.7457C7.94532 13.7021 7.97653 13.642 7.9839 13.5769C8.04185 13.0577 8.28901 12.5781 8.67818 12.2296C9.06734 11.8811 9.57123 11.6882 10.0936 11.6876H13.8124C14.3351 11.6877 14.8395 11.8804 15.2291 12.2289C15.6187 12.5775 15.8661 13.0574 15.9241 13.5769C15.9315 13.642 15.9627 13.7021 16.0117 13.7457C16.0608 13.7892 16.1242 13.813 16.1897 13.8126H17.814C17.8796 13.813 17.943 13.7892 17.992 13.7457C18.0411 13.7021 18.0723 13.642 18.0796 13.5769C18.1376 13.0581 18.3844 12.5787 18.7732 12.2302C19.1619 11.8818 19.6653 11.6886 20.1874 11.6876H23.9061C24.4289 11.6877 24.9332 11.8804 25.3228 12.2289C25.7124 12.5775 25.9599 13.0574 26.0178 13.5769C26.0252 13.642 26.0564 13.7021 26.1055 13.7457C26.1545 13.7892 26.2179 13.813 26.2835 13.8126H26.5624C27.1667 13.8123 27.768 13.8984 28.348 14.0683C28.3876 14.0797 28.4294 14.0818 28.4699 14.0743C28.5104 14.0668 28.5487 14.05 28.5816 14.0252C28.6145 14.0004 28.6412 13.9683 28.6596 13.9314C28.6779 13.8945 28.6875 13.8538 28.6874 13.8126V9.03137C28.6874 8.0451 28.2956 7.09922 27.5982 6.40182C26.9008 5.70442 25.9549 5.31262 24.9686 5.31262Z" fill="#131212"/>
</svg>
