<svg width="34" height="34" viewBox="0 0 34 34" fill="none" xmlns="http://www.w3.org/2000/svg">
<path d="M18.4631 9.95356C18.4872 9.81479 18.5655 9.69129 18.6806 9.6102C18.7958 9.52911 18.9384 9.49707 19.0772 9.52112C21.6901 9.98179 24.0816 11.282 25.8889 13.2245C25.9381 13.2752 25.9766 13.3353 26.0023 13.4011C26.028 13.467 26.0403 13.5373 26.0385 13.6079C26.0366 13.6786 26.0207 13.7481 25.9917 13.8126C25.9626 13.877 25.921 13.935 25.8692 13.9831C25.8175 14.0313 25.7567 14.0686 25.6903 14.0929C25.624 14.1173 25.5534 14.1281 25.4828 14.1248C25.4122 14.1216 25.343 14.1043 25.2792 14.0739C25.2153 14.0435 25.1582 14.0007 25.1111 13.948C23.4619 12.1754 21.2798 10.9887 18.8955 10.5677C18.7568 10.5436 18.6332 10.4653 18.5522 10.3501C18.4711 10.235 18.439 10.0923 18.4631 9.95356ZM31.6434 27.675V28.253C31.6428 28.8228 31.4163 29.3691 31.0134 29.7721C30.6105 30.175 30.0643 30.4017 29.4945 30.4024H4.50555C3.93574 30.4017 3.38949 30.175 2.98663 29.7721C2.58377 29.3691 2.3572 28.8228 2.35664 28.253V27.675C2.3572 27.1052 2.58377 26.5589 2.98663 26.1559C3.38949 25.753 3.93574 25.5263 4.50555 25.5256H11.8899V22.0113H3.26933C3.12843 22.0113 2.9933 21.9554 2.89368 21.8557C2.79405 21.7561 2.73808 21.621 2.73808 21.4801C2.74265 17.7913 4.17485 14.2474 6.73452 11.5911C9.29419 8.93492 12.7826 7.37254 16.4688 7.23143V5.84381H13.8125C13.6716 5.84381 13.5365 5.78784 13.4369 5.68821C13.3372 5.58858 13.2813 5.45345 13.2813 5.31256C13.2813 5.17166 13.3372 5.03653 13.4369 4.93691C13.5365 4.83728 13.6716 4.78131 13.8125 4.78131H20.1875C20.3284 4.78131 20.4635 4.83728 20.5632 4.93691C20.6628 5.03653 20.7188 5.17166 20.7188 5.31256C20.7188 5.45345 20.6628 5.58858 20.5632 5.68821C20.4635 5.78784 20.3284 5.84381 20.1875 5.84381H17.5313V7.23143C21.2174 7.37254 24.7058 8.93492 27.2655 11.5911C29.8252 14.2474 31.2574 17.7913 31.262 21.4801C31.262 21.621 31.206 21.7561 31.1064 21.8557C31.0067 21.9554 30.8716 22.0113 30.7307 22.0113H22.108V25.5256H29.4924C30.0625 25.5257 30.6093 25.7521 31.0126 26.1552C31.416 26.5582 31.6428 27.1048 31.6434 27.675ZM3.8112 20.9488H30.1888C30.0521 17.5425 28.6027 14.3213 26.1443 11.9596C23.6859 9.59786 20.409 8.2789 17 8.2789C13.591 8.2789 10.3142 9.59786 7.85573 11.9596C5.3973 14.3213 3.94796 17.5425 3.8112 20.9488ZM12.9545 25.5256H21.0455V22.0113H12.9545V25.5256ZM30.5809 27.675C30.5806 27.3869 30.4661 27.1107 30.2624 26.9069C30.0587 26.7031 29.7826 26.5885 29.4945 26.5881H4.50555C4.21745 26.5885 3.94128 26.7031 3.73762 26.9069C3.53395 27.1107 3.41942 27.3869 3.41914 27.675V28.253C3.41942 28.5411 3.53395 28.8173 3.73762 29.0211C3.94128 29.2248 4.21745 29.3395 4.50555 29.3399H29.4945C29.7826 29.3395 30.0587 29.2248 30.2624 29.0211C30.4661 28.8173 30.5806 28.5411 30.5809 28.253V27.675ZM7.24467 6.17052L7.25317 6.18434L8.15151 7.50131C8.20033 7.57279 8.26588 7.63125 8.34245 7.67162C8.41902 7.71199 8.5043 7.73304 8.59086 7.73293C8.68758 7.73318 8.78253 7.70701 8.86548 7.65726C8.94842 7.60751 9.01621 7.53605 9.06153 7.45061C9.10685 7.36516 9.12799 7.26896 9.12265 7.17239C9.11732 7.07581 9.08572 6.98252 9.03126 6.90259L6.93442 3.82984C6.89511 3.77218 6.84482 3.72282 6.78644 3.6846C6.72805 3.64637 6.66271 3.62002 6.59414 3.60704C6.52557 3.59407 6.45511 3.59473 6.3868 3.60898C6.31848 3.62324 6.25364 3.65081 6.19598 3.69012C6.13832 3.72943 6.08897 3.77972 6.05074 3.8381C6.01252 3.89649 5.98616 3.96183 5.97319 4.0304C5.96021 4.09897 5.96087 4.16943 5.97513 4.23774C5.98938 4.30606 6.01695 4.3709 6.05626 4.42856L7.24467 6.17052ZM5.36564 11.0761C5.4812 11.0764 5.59371 11.039 5.6861 10.9696C5.7785 10.9002 5.84574 10.8025 5.87764 10.6915C5.90954 10.5804 5.90435 10.462 5.86286 10.3541C5.82137 10.2463 5.74584 10.1549 5.64773 10.0938L4.29995 9.24381L4.28773 9.23637L2.5022 8.11171C2.44318 8.07336 2.37712 8.04713 2.30787 8.03453C2.23861 8.02193 2.16755 8.02321 2.0988 8.03831C2.03005 8.05342 1.96498 8.08203 1.90739 8.12249C1.84979 8.16295 1.80081 8.21446 1.76329 8.27401C1.72577 8.33357 1.70045 8.39998 1.68882 8.46941C1.67719 8.53883 1.67947 8.60987 1.69553 8.6784C1.71159 8.74693 1.74111 8.81159 1.78237 8.86862C1.82363 8.92564 1.87582 8.9739 1.93589 9.01059L5.08089 10.9969C5.16641 11.0497 5.26515 11.0772 5.36564 11.0761ZM25.4108 7.73293C25.4973 7.73304 25.5826 7.71199 25.6592 7.67162C25.7357 7.63125 25.8013 7.57279 25.8501 7.50131L26.7485 6.18434L26.757 6.17052L27.9438 4.42856C27.9831 4.3709 28.0106 4.30606 28.0249 4.23774C28.0392 4.16943 28.0398 4.09897 28.0268 4.0304C28.0139 3.96183 27.9875 3.89649 27.9493 3.8381C27.9111 3.77972 27.8617 3.72943 27.804 3.69012C27.7464 3.65081 27.6815 3.62324 27.6132 3.60898C27.5449 3.59473 27.4745 3.59407 27.4059 3.60704C27.3373 3.62002 27.272 3.64637 27.2136 3.6846C27.1552 3.72282 27.1049 3.77218 27.0656 3.82984L24.9688 6.90259C24.9144 6.98237 24.8828 7.07547 24.8774 7.17185C24.872 7.26824 24.8929 7.36429 24.938 7.44967C24.9831 7.53504 25.0505 7.60653 25.1332 7.65644C25.2158 7.70635 25.3105 7.73279 25.407 7.73293H25.4108ZM32.232 8.27746C32.1568 8.15836 32.0374 8.074 31.9 8.04292C31.7627 8.01184 31.6186 8.03658 31.4994 8.11171L29.7139 9.23796L29.7017 9.2454L28.3523 10.0938C28.2325 10.169 28.1475 10.2886 28.116 10.4265C28.0845 10.5643 28.109 10.709 28.1842 10.8288C28.2593 10.9486 28.379 11.0335 28.5168 11.0651C28.6547 11.0966 28.7994 11.0721 28.9191 10.9969L32.0641 9.01324C32.1236 8.97605 32.1751 8.92745 32.2157 8.87025C32.2562 8.81305 32.2851 8.74839 32.3005 8.67999C32.316 8.61159 32.3178 8.5408 32.3057 8.47171C32.2937 8.40263 32.2681 8.33661 32.2304 8.27746H32.232Z" fill="black"/>
</svg>
