<svg width="34" height="34" viewBox="0 0 34 34" fill="none" xmlns="http://www.w3.org/2000/svg">
<g clip-path="url(#clip0_89_1098)">
<path d="M16.3172 16.8429C16.1961 16.8851 16.0775 16.9344 15.9622 16.9906C15.1201 17.4359 14.4703 18.1744 14.1357 19.0662C13.5861 20.3482 11.0383 24.6512 1.32268 26.1238C1.0084 26.1675 0.727225 26.342 0.548485 26.6042C0.372926 26.8632 0.3154 27.1844 0.39019 27.4882C0.606629 28.2728 0.993544 29 1.52334 29.618C1.55863 29.681 1.60576 29.7366 1.66212 29.7818C2.67458 30.8654 3.92793 31.6955 5.32075 32.2047C5.3358 32.2109 5.34973 32.2181 5.36534 32.2231C6.02489 32.4829 6.70099 32.6986 7.38917 32.8686C8.606 33.1694 9.84714 33.3615 11.098 33.4427C11.1202 33.4472 11.1427 33.4504 11.1654 33.4521C11.1715 33.4521 11.1777 33.4482 11.1832 33.4482C11.5121 33.4672 11.846 33.4806 12.1865 33.4806C14.3452 33.4806 16.7264 33.0453 18.6382 31.6206C19.5583 32.2482 20.7349 32.3636 21.7595 31.9266C22.6153 32.8832 23.8243 33.4493 25.1071 33.4939C26.3899 33.5385 27.6354 33.0578 28.5556 32.1629C29.8018 32.7509 31.2737 32.5809 32.3532 31.7245C33.4327 30.868 33.9328 29.4733 33.6437 28.126C33.3545 26.7787 32.3261 25.7121 30.9902 25.3741C30.5806 23.9496 29.4592 22.8409 28.0301 22.4477C26.601 22.0544 25.0702 22.4333 23.9895 23.4478C23.3668 23.1016 22.6444 22.9789 21.9423 23.1C21.897 22.2104 21.7989 21.3243 21.6486 20.4463C21.4705 19.3822 20.9311 18.4119 20.1213 17.699L23.0938 2.32209C23.1955 1.81828 23.0911 1.29474 22.804 0.868447C22.3667 0.209088 21.5739 -0.120149 20.7981 0.0354191C20.0224 0.190987 19.4178 0.800436 19.2685 1.57743L16.3172 16.8429ZM23.7354 24.6094C23.9719 24.7894 24.3082 24.7522 24.4995 24.5246C25.2795 23.5998 26.5214 23.2055 27.692 23.511C28.8625 23.8165 29.7534 24.7674 29.9819 25.9554C30.0272 26.1892 30.216 26.3683 30.4518 26.4013C31.4676 26.5443 32.2939 27.2915 32.5382 28.2878C32.7825 29.2841 32.3954 30.3288 31.5609 30.9254C30.7264 31.522 29.6127 31.5503 28.749 30.9969C28.5143 30.8469 28.205 30.893 28.0244 31.105C27.3108 31.9503 26.248 32.4202 25.1426 32.3794C24.0371 32.3386 23.0119 31.7916 22.3625 30.896C22.1911 30.6599 21.8666 30.596 21.6185 30.7494C20.9028 31.192 19.9954 31.1794 19.2923 30.717C18.5892 30.2547 18.218 29.4266 18.3407 28.5941C18.4634 27.7616 19.0578 27.0759 19.8644 26.8361C20.0981 26.7661 20.2591 26.5522 20.2618 26.3083C20.28 25.1247 21.2418 24.1732 22.4255 24.1679C22.8989 24.1664 23.3595 24.3216 23.7354 24.6094ZM19.1738 25.9058C17.9821 26.4319 17.2106 27.6091 17.204 28.9118C17.2048 29.6043 17.4262 30.2787 17.8361 30.8369C16.4771 31.7386 14.8992 32.2552 13.2701 32.3318C14.2158 31.7071 15.0685 30.9518 15.8028 30.0884C16.0001 29.8518 15.9683 29.5001 15.7317 29.3028C15.4951 29.1054 15.1434 29.1373 14.9461 29.3738C13.8634 30.6157 12.5366 31.6213 11.0484 32.3279C9.90538 32.2438 8.77166 32.0623 7.6595 31.7856C7.55973 31.7605 7.47055 31.7299 7.37357 31.7064C10.3522 30.6876 13.7639 28.9329 15.79 25.951C15.9573 25.6965 15.8895 25.3548 15.6376 25.1837C15.3857 25.0125 15.043 25.0752 14.8681 25.3245C12.6776 28.5506 8.63937 30.2422 5.56599 31.1017C4.71435 30.7645 3.91767 30.3024 3.20216 29.7305C5.37761 29.4188 7.49068 28.7677 9.46429 27.8009C9.64176 27.707 9.75503 27.5249 9.7608 27.3242C9.76657 27.1235 9.66395 26.9353 9.49217 26.8313C9.32038 26.7274 9.10597 26.7239 8.93088 26.8222C6.89367 27.9336 3.98917 28.4987 2.25127 28.7546C1.89329 28.3034 1.63152 27.7836 1.48209 27.2274C10.0484 25.9281 13.41 22.425 14.6451 20.4681C14.8559 20.6711 15.0859 20.8533 15.3318 21.0121C16.1497 21.5235 17.0985 21.7863 18.0629 21.7684C18.1259 21.7684 18.1884 21.7684 18.2519 21.7651C19.0685 21.7513 19.8793 21.6242 20.6609 21.3872C20.7573 22.0806 20.8159 22.7787 20.8365 23.4784C19.931 23.9807 19.315 24.8801 19.1738 25.9058ZM20.4625 20.2713C19.7375 20.512 18.98 20.6401 18.2162 20.6509C17.4169 20.6977 16.6226 20.4974 15.941 20.0773C15.6618 19.9014 15.412 19.6827 15.2008 19.4291C15.4369 18.8169 15.8814 18.3077 16.456 17.9911C17.0909 17.6978 17.8206 17.6887 18.4626 17.966C19.456 18.3753 20.1975 19.23 20.4625 20.2713ZM20.3632 1.78868C20.451 1.33908 20.8842 1.04382 21.3347 1.12651C21.5564 1.16966 21.7516 1.29947 21.8771 1.48714C21.9994 1.66895 22.0437 1.89218 22.0003 2.10694L19.1103 17.0446C19.0261 17.0051 18.943 16.9599 18.8578 16.9265C18.4202 16.7586 17.9568 16.668 17.4883 16.6589L20.3632 1.78868Z" fill="black"/>
<path d="M26.2035 25.9633C26.4294 25.695 26.7893 25.5805 27.1287 25.6689C27.4681 25.7574 27.7263 26.033 27.7926 26.3774C27.8431 26.6398 28.0727 26.8294 28.3399 26.8294C28.3755 26.8294 28.4109 26.826 28.4458 26.8194C28.591 26.7915 28.7191 26.707 28.802 26.5846C28.8849 26.4622 28.9158 26.3119 28.8878 26.1667C28.7401 25.4004 28.1652 24.7872 27.4101 24.5903C26.655 24.3934 25.8539 24.6477 25.3507 25.2443C25.1522 25.4797 25.1821 25.8316 25.4176 26.0302C25.6531 26.2287 26.0049 26.1988 26.2035 25.9633Z" fill="black"/>
<path d="M29.2623 19.2295C29.2623 20.3069 30.1357 21.1803 31.2131 21.1803C32.2906 21.1803 33.164 20.3069 33.164 19.2295C33.164 18.1521 32.2906 17.2787 31.2131 17.2787C30.1357 17.2787 29.2623 18.1521 29.2623 19.2295ZM32.0492 19.2295C32.0492 19.6913 31.6749 20.0656 31.2131 20.0656C30.7514 20.0656 30.3771 19.6913 30.3771 19.2295C30.3771 18.7678 30.7514 18.3934 31.2131 18.3934C31.6749 18.3934 32.0492 18.7678 32.0492 19.2295Z" fill="black"/>
<path d="M27.5902 17.2787C28.5137 17.2787 29.2624 16.5301 29.2624 15.6066C29.2624 14.6831 28.5137 13.9344 27.5902 13.9344C26.6667 13.9344 25.9181 14.6831 25.9181 15.6066C25.9181 16.5301 26.6667 17.2787 27.5902 17.2787ZM27.5902 15.0492C27.8981 15.0492 28.1476 15.2987 28.1476 15.6066C28.1476 15.9144 27.8981 16.164 27.5902 16.164C27.2824 16.164 27.0328 15.9144 27.0328 15.6066C27.0328 15.2987 27.2824 15.0492 27.5902 15.0492Z" fill="black"/>
<path d="M4.1803 12.8197C4.48813 12.8197 4.73768 12.5702 4.73768 12.2623V11.1476C4.73768 10.8398 4.48813 10.5902 4.1803 10.5902C3.87247 10.5902 3.62292 10.8398 3.62292 11.1476V12.2623C3.62292 12.5702 3.87247 12.8197 4.1803 12.8197Z" fill="black"/>
<path d="M4.73768 15.6066V14.4918C4.73768 14.184 4.48813 13.9344 4.1803 13.9344C3.87247 13.9344 3.62292 14.184 3.62292 14.4918V15.6066C3.62292 15.9144 3.87247 16.164 4.1803 16.164C4.48813 16.164 4.73768 15.9144 4.73768 15.6066Z" fill="black"/>
<path d="M1.95081 13.9345H3.06556C3.37339 13.9345 3.62294 13.6849 3.62294 13.3771C3.62294 13.0692 3.37339 12.8197 3.06556 12.8197H1.95081C1.64298 12.8197 1.39343 13.0692 1.39343 13.3771C1.39343 13.6849 1.64298 13.9345 1.95081 13.9345Z" fill="black"/>
<path d="M5.29505 13.9345H6.4098C6.71763 13.9345 6.96718 13.6849 6.96718 13.3771C6.96718 13.0692 6.71763 12.8197 6.4098 12.8197H5.29505C4.98722 12.8197 4.73767 13.0692 4.73767 13.3771C4.73767 13.6849 4.98722 13.9345 5.29505 13.9345Z" fill="black"/>
<path d="M6.29445 19.9503L5.45838 20.7864C5.31349 20.9263 5.25538 21.1335 5.30639 21.3284C5.3574 21.5233 5.50958 21.6755 5.70446 21.7265C5.89934 21.7775 6.10657 21.7194 6.24651 21.5745L7.08258 20.7384C7.29381 20.5197 7.29079 20.1721 7.07579 19.9571C6.86079 19.7421 6.51315 19.7391 6.29445 19.9503Z" fill="black"/>
<path d="M9.59076 17.442C9.3731 17.2244 9.02028 17.2244 8.80263 17.442L7.96656 18.2781C7.82167 18.418 7.76356 18.6252 7.81457 18.8201C7.86557 19.015 8.01776 19.1672 8.21264 19.2182C8.40751 19.2692 8.61475 19.2111 8.75469 19.0662L9.59076 18.2301C9.80835 18.0125 9.80835 17.6597 9.59076 17.442Z" fill="black"/>
<path d="M8.75477 19.9503C8.53607 19.7391 8.18843 19.7421 7.97343 19.9571C7.75843 20.1721 7.75541 20.5197 7.96664 20.7384L8.80271 21.5745C9.02141 21.7857 9.36905 21.7827 9.58405 21.5677C9.79905 21.3527 9.80207 21.0051 9.59084 20.7864L8.75477 19.9503Z" fill="black"/>
<path d="M7.08266 18.2782L6.2466 17.4421C6.02789 17.2309 5.68025 17.2339 5.46525 17.4489C5.25025 17.6639 5.24723 18.0115 5.45846 18.2302L6.29453 19.0663C6.51323 19.2775 6.86087 19.2745 7.07587 19.0595C7.29087 18.8445 7.29389 18.4969 7.08266 18.2782Z" fill="black"/>
<path d="M6.87028 5.61394L16.3457 7.28607C16.3779 7.29187 16.4105 7.29467 16.4432 7.29443C16.7312 7.29297 16.9706 7.07237 16.9957 6.78548C17.0207 6.4986 16.823 6.23989 16.5397 6.1886L7.06425 4.51647C6.76473 4.4703 6.48321 4.6719 6.43047 4.97033C6.37772 5.26876 6.57309 5.55465 6.87028 5.61394Z" fill="black"/>
<path d="M15.7883 10.0729C15.8205 10.0787 15.8531 10.0815 15.8858 10.0813C16.1738 10.0798 16.4132 9.85921 16.4383 9.57232C16.4633 9.28544 16.2656 9.02673 15.9823 8.97544L9.94085 7.90862C9.63763 7.85506 9.34841 8.05744 9.29485 8.36065C9.24129 8.66386 9.44367 8.95309 9.74688 9.00665L15.7883 10.0729Z" fill="black"/>
<path d="M7.47447 10.8761C7.44871 11.0217 7.48187 11.1716 7.56665 11.2927C7.65142 11.4139 7.78087 11.4964 7.9265 11.5221L15.2309 12.8113C15.263 12.8168 15.2954 12.8196 15.3279 12.8197C15.6171 12.8198 15.8583 12.5988 15.8834 12.3107C15.9085 12.0226 15.7092 11.7632 15.4243 11.7133L8.11991 10.4229C7.97422 10.3974 7.82434 10.4308 7.70327 10.5158C7.58221 10.6007 7.4999 10.7304 7.47447 10.8761Z" fill="black"/>
</g>
<defs>
<clipPath id="clip0_89_1098">
<rect width="34" height="34" fill="white"/>
</clipPath>
</defs>
</svg>
