<svg width="34" height="34" viewBox="0 0 34 34" fill="none" xmlns="http://www.w3.org/2000/svg">
<g clip-path="url(#clip0_89_1096)">
<path d="M9.27268 16.2273C9.27268 15.8002 8.92705 15.4546 8.49992 15.4546C8.0728 15.4546 7.72717 15.8002 7.72717 16.2273C7.72717 18.2565 9.96538 21.0426 10.2205 21.3542C10.3737 21.5399 10.5955 21.6365 10.8188 21.6365C10.9909 21.6365 11.1645 21.5791 11.3085 21.4614C11.6383 21.1904 11.6858 20.7038 11.4157 20.3732C10.5872 19.3636 9.27268 17.3456 9.27268 16.2273Z" fill="black"/>
<path d="M25.5 15.4546C25.0728 15.4546 24.7272 15.8002 24.7272 16.2273C24.7272 17.3419 23.4127 19.362 22.5841 20.374C22.314 20.7038 22.3622 21.1905 22.6921 21.4614C22.8354 21.5791 23.009 21.6365 23.1818 21.6365C23.4051 21.6365 23.6262 21.5399 23.7794 21.3542C24.0345 21.0426 26.2727 18.2565 26.2727 16.2273C26.2727 15.8002 25.9271 15.4546 25.5 15.4546Z" fill="black"/>
<path d="M17 15.4546C16.5729 15.4546 16.2273 15.8002 16.2273 16.2273V20.8637C16.2273 21.2908 16.5729 21.6365 17 21.6365C17.4272 21.6365 17.7728 21.2908 17.7728 20.8637V16.2273C17.7727 15.8002 17.4271 15.4546 17 15.4546Z" fill="black"/>
<path d="M25.5 3.09094C25.0317 3.09094 24.5424 3.15287 24.0342 3.24727C22.3323 1.26334 19.8129 0 17 0C14.1871 0 11.6677 1.26334 9.96587 3.2472C9.45761 3.15287 8.96826 3.09086 8.50005 3.09086C3.81305 3.09094 0 6.90399 0 11.5909C0 14.8025 1.81108 17.7222 4.65448 19.1657L4.63941 30.8434C4.63869 31.6863 4.96613 32.4787 5.56154 33.0748C6.15767 33.6718 6.94926 34 7.79221 34H26.2109C27.9495 34 29.3637 32.5858 29.3637 30.8472V19.1544C32.1965 17.7071 34.0001 14.792 34.0001 11.5909C34 6.90399 30.1869 3.09094 25.5 3.09094ZM27.8182 30.8473C27.8182 31.7332 27.0968 32.4546 26.2108 32.4546H7.79214C7.36277 32.4546 6.95904 32.2871 6.65492 31.983C6.35153 31.6789 6.18404 31.2752 6.18477 30.8451L6.18883 27.8182H27.8182V30.8473ZM28.2966 17.9516C28.2558 17.9682 28.2174 17.9878 28.1811 18.0112C28.0838 18.0715 28.0038 18.1516 27.9442 18.2436C27.8838 18.3349 27.8431 18.4406 27.8265 18.5537C27.8197 18.5968 27.8174 18.6398 27.8181 18.6835V26.2727H6.19078L6.20071 18.694C6.20143 18.6518 6.19918 18.6088 6.19317 18.5673C6.17658 18.4503 6.13355 18.3416 6.07089 18.2473C6.01199 18.159 5.93506 18.082 5.84146 18.0232C5.80299 17.999 5.76221 17.9779 5.71997 17.9605C3.18374 16.8514 1.54543 14.3535 1.54543 11.5909C1.54543 7.75592 4.66505 4.63637 8.49998 4.63637C8.64987 4.63637 8.80808 4.65448 8.96333 4.66672C8.18152 6.02547 7.72723 7.5956 7.72723 9.27273C7.72723 9.69986 8.07286 10.0455 8.49998 10.0455C8.92711 10.0455 9.27273 9.69986 9.27273 9.27273C9.27273 5.01213 12.7394 1.54543 17 1.54543C21.2606 1.54543 24.7273 5.01213 24.7273 9.27273C24.7273 9.69986 25.0729 10.0455 25.5 10.0455C25.9271 10.0455 26.2728 9.69986 26.2728 9.27273C26.2728 7.5956 25.8185 6.02554 25.0367 4.66672C25.1919 4.65448 25.3501 4.63637 25.5 4.63637C29.335 4.63637 32.4546 7.75599 32.4546 11.5909C32.4546 14.3438 30.8231 16.8385 28.2966 17.9516Z" fill="black"/>
</g>
<defs>
<clipPath id="clip0_89_1096">
<rect width="34" height="34" fill="white"/>
</clipPath>
</defs>
</svg>
