<svg width="34" height="34" viewBox="0 0 34 34" fill="none" xmlns="http://www.w3.org/2000/svg">
<g clip-path="url(#clip0_89_1109)">
<path d="M33.3958 6.43002C32.9552 5.90927 32.3383 5.59118 31.6585 5.53441L7.71538 3.53519C7.03552 3.47841 6.37451 3.68978 5.85369 4.13025C5.33499 4.56899 5.01737 5.18279 4.9588 5.85926L4.47709 10.3786H2.55364C1.14557 10.3786 0 11.5242 0 12.9322V27.9202C0 29.3283 1.14557 30.4738 2.55364 30.4738H26.5802C27.9883 30.4738 29.1339 29.3283 29.1339 27.9202V25.4889L29.9865 25.5601C30.0584 25.566 30.1299 25.569 30.2008 25.569C31.5136 25.569 32.6326 24.5591 32.7438 23.2277L33.991 8.29178C34.0477 7.61198 33.8363 6.95085 33.3958 6.43002ZM2.55364 11.7067H26.5802C27.2559 11.7067 27.8058 12.2565 27.8058 12.9322V14.2979H1.32812V12.9322C1.32812 12.2565 1.8779 11.7067 2.55364 11.7067ZM1.32812 15.6261H27.8058V18.3812H1.32812V15.6261ZM26.5802 29.1457H2.55364C1.8779 29.1457 1.32812 28.5959 1.32812 27.9202V19.7093H27.8058V27.9202C27.8058 28.5959 27.2559 29.1457 26.5802 29.1457ZM32.6674 8.18121L31.4203 23.1172C31.364 23.7906 30.7703 24.293 30.097 24.2365L29.1339 24.1561V12.9322C29.1339 11.5242 27.9883 10.3786 26.5802 10.3786H5.81278L6.28021 5.99314C6.28075 5.98809 6.28121 5.98311 6.28161 5.978C6.33785 5.30457 6.93126 4.80228 7.60488 4.85872L31.5481 6.85794C31.8743 6.88517 32.1705 7.03784 32.3818 7.28779C32.5932 7.53774 32.6947 7.85496 32.6674 8.18121Z" fill="#747474"/>
<path d="M25.0273 21.6836H18.6362C18.2695 21.6836 17.9722 21.9809 17.9722 22.3477V26.5172C17.9722 26.884 18.2695 27.1813 18.6362 27.1813H25.0273C25.3941 27.1813 25.6914 26.884 25.6914 26.5172V22.3477C25.6914 21.9809 25.3941 21.6836 25.0273 21.6836ZM24.3632 25.8532H19.3003V23.0117H24.3632V25.8532Z" fill="#747474"/>
</g>
<defs>
<clipPath id="clip0_89_1109">
<rect width="34" height="34" fill="white"/>
</clipPath>
</defs>
</svg>
