<svg width="34" height="34" viewBox="0 0 34 34" fill="none" xmlns="http://www.w3.org/2000/svg">
<path d="M31.1666 19.8333V17C31.1666 15.8113 31.1666 14.7549 31.1484 13.8125H2.85159C2.83331 14.7549 2.83331 15.8113 2.83331 17V19.8333C2.83331 25.1759 2.83331 27.8472 4.49304 29.5069C6.15277 31.1666 8.82406 31.1666 14.1666 31.1666H19.8333C25.1759 31.1666 27.8472 31.1666 29.5069 29.5069C31.1666 27.8472 31.1666 25.1759 31.1666 19.8333Z" fill="#747474"/>
<path d="M10.9791 3.54163C10.9791 2.95482 10.5034 2.47913 9.91665 2.47913C9.32984 2.47913 8.85415 2.95482 8.85415 3.54163V5.77891C6.81509 5.94219 5.47649 6.34291 4.49304 7.32635C3.50959 8.3098 3.10887 9.64841 2.94559 11.6875H31.0544C30.8911 9.64841 30.4904 8.3098 29.5069 7.32635C28.5235 6.34291 27.1849 5.94219 25.1458 5.77891V3.54163C25.1458 2.95482 24.6701 2.47913 24.0833 2.47913C23.4965 2.47913 23.0208 2.95482 23.0208 3.54163V5.6849C22.0784 5.66663 21.0219 5.66663 19.8333 5.66663H14.1666C12.978 5.66663 11.9216 5.66663 10.9791 5.6849V3.54163Z" fill="#747474"/>
</svg>
