<svg width="34" height="34" viewBox="0 0 34 34" fill="none" xmlns="http://www.w3.org/2000/svg">
<path fill-rule="evenodd" clip-rule="evenodd" d="M16.5833 0.224493L12.0061 5.71709H4.56328C4.17775 5.71709 3.8845 6.06326 3.94788 6.44354L4.84922 11.8516L0.144622 17.4971C-0.079085 17.7655 -0.0387026 18.1654 0.234166 18.3837L4.84922 22.0757V28.6087C4.84922 28.9533 5.12854 29.2326 5.4731 29.2326H12.0061L15.6086 33.7357C15.8584 34.0479 16.3332 34.0479 16.5829 33.7357L20.1854 29.2326H27.7409C28.0854 29.2326 28.3647 28.9533 28.3647 28.6087V22.0757L32.9798 18.3837C33.2527 18.1654 33.293 17.7655 33.0693 17.4971L28.3647 11.8516V6.34097C28.3647 5.99641 28.0854 5.71709 27.7409 5.71709H21.2078L17.5817 0.277825C17.3503 -0.0691639 16.8503 -0.0958772 16.5833 0.224493ZM20.1852 11.8514L9.9611 24.1203L10.7599 24.786L20.984 12.517L20.1852 11.8514ZM16.0957 11.8515C16.0957 12.9808 15.1802 13.8963 14.0509 13.8963C12.9216 13.8963 12.0061 12.9808 12.0061 11.8515C12.0061 10.7221 12.9216 9.80665 14.0509 9.80665C15.1802 9.80665 16.0957 10.7221 16.0957 11.8515ZM20.1852 26.165C21.3146 26.165 22.2301 25.2495 22.2301 24.1202C22.2301 22.9909 21.3146 22.0754 20.1852 22.0754C19.0559 22.0754 18.1404 22.9909 18.1404 24.1202C18.1404 25.2495 19.0559 26.165 20.1852 26.165Z" fill="white"/>
</svg>
