<svg width="34" height="34" viewBox="0 0 34 34" fill="none" xmlns="http://www.w3.org/2000/svg">
<g clip-path="url(#clip0_89_1090)">
<path d="M17 14.3438C12.2225 14.3438 3.1875 15.0099 3.1875 17.5312C3.1875 20.0526 12.2225 20.7188 17 20.7188C21.7775 20.7188 30.8125 20.0526 30.8125 17.5312C30.8125 15.0099 21.7775 14.3438 17 14.3438ZM17 19.6562C8.58766 19.6562 4.25 18.1688 4.25 17.5312C4.25 16.8937 8.58766 15.4062 17 15.4062C25.4123 15.4062 29.75 16.8937 29.75 17.5312C29.75 18.1688 25.4123 19.6562 17 19.6562Z" fill="black"/>
<path d="M17 12.2188C9.01637 12.2188 0.53125 14.0781 0.53125 17.5312V28.1562C0.53125 31.6094 9.01637 33.4688 17 33.4688C24.9836 33.4688 33.4688 31.6094 33.4688 28.1562V17.5312C33.4688 14.0808 24.9836 12.2188 17 12.2188ZM1.59375 28.1562V19.5091C2.23469 20.0318 2.95116 20.4543 3.71875 20.7623V30.2228C2.35184 29.5747 1.59375 28.8517 1.59375 28.1562ZM29.2188 21.1687V30.6648C28.5226 30.9187 27.8132 31.1347 27.0938 31.3119V21.7775C27.8513 21.5969 28.5632 21.394 29.2188 21.1687ZM26.0312 31.5563C25.3651 31.6979 24.6567 31.8236 23.9062 31.9334V22.3709C24.6378 22.2647 25.3486 22.1462 26.0312 22.0086V31.5563ZM22.8438 32.0726C22.1634 32.1537 21.4551 32.2212 20.7188 32.275V22.7125C21.437 22.6594 22.1473 22.5941 22.8438 22.5122V32.0726ZM19.6562 32.3383C18.9678 32.3737 18.2594 32.3946 17.5312 32.4009V22.8384C18.2394 22.831 18.9497 22.8092 19.6562 22.7726V32.3383ZM16.4688 32.4009C15.7416 32.3939 15.0333 32.373 14.3438 32.3383V22.7742C15.0503 22.8108 15.7606 22.8326 16.4688 22.84V32.4009ZM13.2812 32.2734C12.546 32.2203 11.8377 32.1528 11.1562 32.071V22.5085C11.8527 22.5903 12.563 22.6573 13.2812 22.7088V32.2734ZM10.0938 31.9318C9.34292 31.8221 8.63458 31.6963 7.96875 31.5547V22.0097C8.65141 22.1473 9.36222 22.2679 10.0938 22.372V31.9318ZM6.90625 31.3119C6.18676 31.1347 5.47739 30.9187 4.78125 30.6648V21.1687C5.43681 21.394 6.14869 21.5969 6.90625 21.7775V31.3119ZM30.2812 30.2228V20.7623C31.0488 20.4543 31.7653 20.0318 32.4062 19.5091V28.1562C32.4062 28.8517 31.6482 29.5747 30.2812 30.2228ZM17 21.7812C7.92094 21.7812 1.59375 19.5415 1.59375 17.5312C1.59375 15.521 7.92094 13.2812 17 13.2812C26.0791 13.2812 32.4062 15.521 32.4062 17.5312C32.4062 19.5415 26.0791 21.7812 17 21.7812Z" fill="black"/>
<path d="M10.0736 4.72492L10.9198 4.16073L10.3302 3.27673L9.4844 3.84092C9.21245 4.02219 8.9841 4.26155 8.81584 4.54174C8.64758 4.82193 8.54359 5.13597 8.51137 5.46121C8.47915 5.78645 8.51951 6.11479 8.62952 6.42255C8.73954 6.73031 8.91649 7.00982 9.14759 7.24092L9.75747 7.85186C9.87755 7.97185 9.96951 8.11701 10.0267 8.27685C10.0839 8.43669 10.1049 8.60724 10.0881 8.77617C10.0714 8.94511 10.0174 9.10823 9.93 9.25376C9.84259 9.3993 9.72396 9.52361 9.58268 9.61773L8.7364 10.1819L9.32609 11.0659L10.1718 10.5017C10.4438 10.3205 10.6721 10.0811 10.8404 9.80091C11.0087 9.52072 11.1127 9.20668 11.1449 8.88144C11.1771 8.5562 11.1367 8.22786 11.0267 7.92011C10.9167 7.61235 10.7398 7.33284 10.5087 7.10173L9.89878 6.4908C9.77869 6.3708 9.68674 6.22565 9.62955 6.0658C9.57237 5.90596 9.55138 5.73542 9.5681 5.56648C9.58482 5.39754 9.63883 5.23442 9.72624 5.08889C9.81365 4.94336 9.93228 4.81905 10.0736 4.72492Z" fill="black"/>
<path d="M16.9798 2.06867L17.8261 1.50448L17.2364 0.620483L16.3907 1.18467C16.1187 1.36594 15.8904 1.6053 15.7221 1.88549C15.5538 2.16568 15.4498 2.47972 15.4176 2.80496C15.3854 3.1302 15.4258 3.45854 15.5358 3.7663C15.6458 4.07406 15.8227 4.35357 16.0538 4.58467L16.6637 5.19561C16.7838 5.3156 16.8758 5.46076 16.9329 5.6206C16.9901 5.78044 17.0111 5.95099 16.9944 6.11993C16.9777 6.28886 16.9237 6.45198 16.8362 6.59751C16.7488 6.74305 16.6302 6.86736 16.4889 6.96148L15.6427 7.52567L16.2323 8.40967L17.0781 7.84548C17.35 7.66421 17.5784 7.42485 17.7467 7.14466C17.9149 6.86447 18.0189 6.55043 18.0511 6.22519C18.0833 5.89995 18.043 5.57161 17.933 5.26386C17.8229 4.9561 17.646 4.67659 17.4149 4.44548L16.805 3.83455C16.6849 3.71455 16.593 3.5694 16.5358 3.40955C16.4786 3.24971 16.4576 3.07917 16.4743 2.91023C16.4911 2.74129 16.5451 2.57817 16.6325 2.43264C16.7199 2.28711 16.8385 2.1628 16.9798 2.06867Z" fill="black"/>
<path d="M24.4173 4.72492L25.2636 4.16073L24.6739 3.27673L23.8282 3.84092C23.5562 4.02219 23.3279 4.26155 23.1596 4.54174C22.9913 4.82193 22.8873 5.13597 22.8551 5.46121C22.8229 5.78645 22.8633 6.11479 22.9733 6.42255C23.0833 6.73031 23.2602 7.00982 23.4913 7.24092L24.1012 7.85186C24.2213 7.97185 24.3133 8.11701 24.3704 8.27685C24.4276 8.43669 24.4486 8.60724 24.4319 8.77617C24.4152 8.94511 24.3612 9.10823 24.2737 9.25376C24.1863 9.3993 24.0677 9.52361 23.9264 9.61773L23.0802 10.1819L23.6698 11.0659L24.5156 10.5017C24.7875 10.3205 25.0159 10.0811 25.1842 9.80091C25.3524 9.52072 25.4564 9.20668 25.4886 8.88144C25.5208 8.5562 25.4805 8.22786 25.3705 7.92011C25.2604 7.61235 25.0835 7.33284 24.8524 7.10173L24.2425 6.4908C24.1224 6.3708 24.0305 6.22565 23.9733 6.0658C23.9161 5.90596 23.8951 5.73542 23.9119 5.56648C23.9286 5.39754 23.9826 5.23442 24.07 5.08889C24.1574 4.94336 24.276 4.81905 24.4173 4.72492Z" fill="black"/>
</g>
<defs>
<clipPath id="clip0_89_1090">
<rect width="34" height="34" fill="white"/>
</clipPath>
</defs>
</svg>
