<svg width="34" height="34" viewBox="0 0 34 34" fill="none" xmlns="http://www.w3.org/2000/svg">
<g clip-path="url(#clip0_89_1099)">
<path d="M33.1385 18.3391H28.6403L25.428 14.8111C25.1222 14.4753 24.6083 14.4345 24.2534 14.7178L22.2606 16.3088L17.0034 8.00472C16.8455 7.75525 16.5707 7.604 16.2755 7.604C15.9803 7.604 15.7055 7.75525 15.5476 8.00472L11.0586 15.0953L9.37555 12.6324C9.21502 12.3975 8.9488 12.2569 8.6642 12.2569C8.3796 12.2569 8.11348 12.3975 7.95285 12.6324L4.0531 18.3391H0.861547C0.385686 18.3391 0 18.7248 0 19.2006C0 19.6765 0.385686 20.0622 0.861547 20.0622H2.87556L2.18996 21.0653C1.92144 21.4582 2.02234 21.9942 2.4152 22.2627C2.56387 22.3644 2.73312 22.413 2.90054 22.413C3.17557 22.413 3.44581 22.2816 3.61266 22.0375L3.94483 21.5514L8.6643 14.6455L10.0551 16.6808L6.97155 21.5515L4.74186 25.0735C4.48732 25.4756 4.60689 26.0077 5.00894 26.2622C5.15196 26.3527 5.31134 26.3959 5.46901 26.3959C5.75437 26.3959 6.0337 26.2541 6.19768 25.9951L6.60711 25.3483L16.2756 10.0764L24.1305 22.4838L24.3267 22.7936C24.5811 23.1955 25.1133 23.3151 25.5154 23.0606C25.8813 22.829 26.0122 22.3676 25.8411 21.9834C25.8241 21.9455 25.8054 21.908 25.7825 21.8719L23.1879 17.7735L24.6976 16.5682L29.8715 22.2505L30.4745 22.9127C30.6445 23.0995 30.8777 23.1943 31.1117 23.1943C31.3188 23.1943 31.5264 23.1201 31.6915 22.9698C32.0433 22.6494 32.0689 22.1045 31.7486 21.7527L30.2093 20.0622H33.1386C33.6144 20.0622 34.0001 19.6765 34.0001 19.2006C34.0001 18.7248 33.6143 18.3391 33.1385 18.3391Z" fill="black"/>
</g>
<defs>
<clipPath id="clip0_89_1099">
<rect width="34" height="34" fill="white"/>
</clipPath>
</defs>
</svg>
