<svg width="34" height="34" viewBox="0 0 34 34" fill="none" xmlns="http://www.w3.org/2000/svg">
<path d="M19.2049 6.25035C19.3846 5.90594 19.4802 5.52382 19.4837 5.13537C19.4837 3.75378 18.3637 2.63379 16.9821 2.63379C15.6005 2.63379 14.4805 3.75378 14.4805 5.13537C14.484 5.52382 14.5796 5.90594 14.7593 6.25035C8.78408 6.55054 3.3235 8.08008 3.3235 10.746C3.32153 11.1408 3.63994 11.4624 4.03466 11.4644C4.05976 11.4644 4.08478 11.4633 4.10971 11.4608H29.926C30.3207 11.4608 30.6407 11.1408 30.6407 10.746C30.6407 8.08008 25.2016 6.55054 19.2049 6.25035ZM17.0178 4.07041C17.602 4.07041 18.0757 4.54401 18.0757 5.12822C18.0757 5.71243 17.602 6.18603 17.0178 6.18603C16.4336 6.18603 15.96 5.71243 15.96 5.12822C15.96 4.54401 16.4336 4.07041 17.0178 4.07041ZM5.26043 10.0599C6.58269 8.87344 10.8854 7.6155 17.0178 7.6155V7.64409C23.1503 7.64409 27.453 8.90202 28.7753 10.0599H5.26043Z" fill="black"/>
<path d="M6.61134 14.9058C6.21663 14.9058 5.89661 15.2258 5.89661 15.6205V23.3039C5.89661 23.6986 6.21663 24.0186 6.61134 24.0186C7.00606 24.0186 7.32608 23.6986 7.32608 23.3039V15.6205C7.32608 15.2258 7.00606 14.9058 6.61134 14.9058Z" fill="black"/>
<path d="M33.2853 15.0988H30.6407V13.0547C30.6407 12.66 30.3207 12.34 29.926 12.34H4.10973C3.71502 12.34 3.395 12.66 3.395 13.0547V15.0988H0.714736C0.320023 15.0988 0 15.4189 0 15.8136C0 16.2083 0.320023 16.5283 0.714736 16.5283H3.40214V27.0778C3.40214 30.2441 5.66786 31.3662 7.79777 31.3662H26.3094C29.4757 31.3662 30.5979 29.1506 30.5979 27.0778V16.5283H33.2853C33.68 16.5283 34 16.2083 34 15.8136C34 15.4189 33.68 15.0988 33.2853 15.0988ZM29.2113 27.0778C29.2113 28.3858 28.711 29.9368 26.3523 29.9368H7.76918C6.66134 29.9368 4.80303 29.5651 4.80303 27.0778V13.7694H29.2113V27.0778Z" fill="black"/>
</svg>
