<svg width="34" height="34" viewBox="0 0 34 34" fill="none" xmlns="http://www.w3.org/2000/svg">
<path d="M32.583 26.9163C32.583 27.292 32.4338 27.6523 32.1681 27.918C31.9024 28.1837 31.5421 28.3329 31.1664 28.3329H14.1664C13.7907 28.3329 13.4303 28.1837 13.1646 27.918C12.899 27.6523 12.7497 27.292 12.7497 26.9163C12.7497 24.6619 13.6452 22.4999 15.2393 20.9059C16.8334 19.3118 18.9954 18.4163 21.2497 18.4163H24.083C26.3374 18.4163 28.4994 19.3118 30.0935 20.9059C31.6875 22.4999 32.583 24.6619 32.583 26.9163ZM22.6664 5.66626C21.5456 5.66626 20.45 5.9986 19.5182 6.62127C18.5863 7.24393 17.86 8.12894 17.4311 9.16439C17.0022 10.1998 16.8899 11.3392 17.1086 12.4384C17.3272 13.5377 17.8669 14.5474 18.6594 15.3399C19.4519 16.1324 20.4616 16.6721 21.5609 16.8907C22.6601 17.1094 23.7995 16.9971 24.8349 16.5682C25.8704 16.1393 26.7554 15.413 27.378 14.4812C28.0007 13.5493 28.333 12.4537 28.333 11.3329C28.333 9.83003 27.736 8.38869 26.6733 7.32599C25.6106 6.26328 24.1693 5.66626 22.6664 5.66626ZM9.91638 5.66626C8.79562 5.66626 7.70003 5.9986 6.76815 6.62127C5.83627 7.24393 5.10996 8.12894 4.68106 9.16439C4.25217 10.1998 4.13995 11.3392 4.3586 12.4384C4.57725 13.5377 5.11695 14.5474 5.90944 15.3399C6.70194 16.1324 7.71164 16.6721 8.81087 16.8907C9.9101 17.1094 11.0495 16.9971 12.0849 16.5682C13.1204 16.1393 14.0054 15.413 14.628 14.4812C15.2507 13.5493 15.583 12.4537 15.583 11.3329C15.583 9.83003 14.986 8.38869 13.9233 7.32599C12.8606 6.26328 11.4193 5.66626 9.91638 5.66626ZM9.91638 26.9163C9.91427 25.4282 10.2074 23.9545 10.7789 22.5806C11.3504 21.2066 12.1888 19.9597 13.2455 18.9121C12.3807 18.5856 11.4641 18.4176 10.5397 18.4163H9.29305C7.20518 18.42 5.20389 19.2511 3.72754 20.7274C2.25119 22.2038 1.42013 24.2051 1.41638 26.2929V26.9163C1.41638 27.292 1.56564 27.6523 1.83131 27.918C2.09699 28.1837 2.45733 28.3329 2.83305 28.3329H10.1714C10.0064 27.8786 9.92021 27.3995 9.91638 26.9163Z" fill="#131212"/>
</svg>
