<svg width="34" height="34" viewBox="0 0 34 34" fill="none" xmlns="http://www.w3.org/2000/svg">
<g clip-path="url(#clip0_89_1094)">
<path d="M32.8664 32.1144C32.507 32.4739 32.0291 32.6718 31.5209 32.6718C31.0126 32.6718 30.5347 32.4739 30.1753 32.1144C28.9156 30.8546 26.8658 30.8547 25.606 32.1144C25.2466 32.4739 24.7687 32.6718 24.2605 32.6718C23.7522 32.6718 23.2743 32.4739 22.9149 32.1144C21.6552 30.8546 19.6054 30.8547 18.3456 32.1144C17.9861 32.4739 17.5083 32.6718 17 32.6718C16.4917 32.6718 16.0139 32.4739 15.6544 32.1144C14.3947 30.8546 12.3449 30.8546 11.0851 32.1144C10.7257 32.4739 10.2478 32.6718 9.73955 32.6718C9.23127 32.6718 8.75341 32.4739 8.39402 32.1144C7.1343 30.8546 5.08447 30.8547 3.82468 32.1144C3.46529 32.4739 2.98743 32.6718 2.47915 32.6718C1.97088 32.6718 1.49302 32.4739 1.13363 32.1144C0.874379 31.8552 0.453895 31.8552 0.194512 32.1144C-0.0648042 32.3737 -0.0648706 32.7941 0.194512 33.0536C0.804786 33.6638 1.61614 33.9999 2.47915 33.9999C3.34217 33.9999 4.15352 33.6638 4.76379 33.0536C5.50582 32.3116 6.71302 32.3116 7.45491 33.0536C8.06518 33.6638 8.87653 33.9999 9.73955 33.9999C10.6026 33.9999 11.414 33.6638 12.0243 33.0536C12.7661 32.3116 13.9733 32.3116 14.7153 33.0536C15.3256 33.6638 16.137 33.9999 17 33.9999C17.863 33.9999 18.6744 33.6638 19.2847 33.0536C20.0266 32.3116 21.2338 32.3116 21.9758 33.0536C22.586 33.6638 23.3974 33.9999 24.2605 33.9999C25.1235 33.9999 25.9348 33.6638 26.5451 33.0536C27.2871 32.3116 28.4943 32.3116 29.2362 33.0536C29.8465 33.6638 30.6578 33.9999 31.5209 33.9999C32.3839 33.9999 33.1953 33.6638 33.8056 33.0536C34.0649 32.7942 34.0649 32.3738 33.8056 32.1144C33.5462 31.8552 33.1257 31.8552 32.8664 32.1144Z" fill="black"/>
<path d="M32.8665 26.7652C32.5071 27.1245 32.0292 27.3226 31.521 27.3226C31.0127 27.3226 30.5348 27.1246 30.1754 26.7652C28.9156 25.5054 26.8659 25.5054 25.6061 26.7652C25.2467 27.1245 24.7688 27.3226 24.2606 27.3226C23.7523 27.3226 23.2744 27.1246 22.915 26.7652C21.6553 25.5054 19.6055 25.5054 18.3457 26.7652C17.6037 27.5071 16.3965 27.5071 15.6546 26.7652C14.3949 25.5054 12.345 25.5054 11.0852 26.7652C10.7258 27.1245 10.248 27.3226 9.73971 27.3226C9.23144 27.3226 8.75358 27.1246 8.39419 26.7652C7.13439 25.5054 5.0847 25.5054 3.82484 26.7652C3.46545 27.1245 2.98759 27.3226 2.47932 27.3226C1.97104 27.3226 1.49318 27.1246 1.13379 26.7652C0.874477 26.5059 0.453992 26.5059 0.194609 26.7652C-0.064707 27.0245 -0.064707 27.445 0.194609 27.7043C1.45447 28.9641 3.50423 28.9642 4.76396 27.7043C5.50598 26.9624 6.71318 26.9624 7.45507 27.7043C8.7148 28.9642 10.7646 28.9641 12.0244 27.7043C12.7663 26.9623 13.9736 26.9624 14.7155 27.7043C15.9753 28.9641 18.025 28.9641 19.2848 27.7043C20.0266 26.9624 21.234 26.9623 21.9759 27.7043C22.6059 28.3343 23.433 28.6492 24.2606 28.6492C25.0879 28.6491 25.9154 28.3342 26.5452 27.7043C27.2872 26.9624 28.4944 26.9624 29.2363 27.7043C30.496 28.9642 32.5459 28.9641 33.8057 27.7043C34.065 27.445 34.065 27.0245 33.8057 26.7652C33.5463 26.5058 33.1258 26.5058 32.8665 26.7652Z" fill="black"/>
<path d="M0.664112 6.90625H11.3776V21.1577C11.2764 21.2371 11.1783 21.3226 11.0851 21.4158C10.7257 21.7752 10.2479 21.9732 9.73959 21.9732C9.23132 21.9732 8.75346 21.7753 8.39406 21.4158C7.13427 20.156 5.08458 20.156 3.82472 21.4158C3.46533 21.7752 2.98747 21.9732 2.47919 21.9732C1.97092 21.9732 1.49306 21.7753 1.13367 21.4158C0.874354 21.1566 0.45387 21.1566 0.194487 21.4158C-0.0648291 21.6751 -0.0648291 22.0956 0.194487 22.355C1.45435 23.6147 3.50411 23.6149 4.76383 22.355C5.50586 21.613 6.71306 21.613 7.45495 22.355C8.71467 23.6149 10.7645 23.6148 12.0243 22.355C12.7662 21.613 13.9735 21.613 14.7153 22.355C15.9751 23.6148 18.0248 23.6148 19.2847 22.355C20.0265 21.613 21.2338 21.6129 21.9757 22.355C22.6057 22.9849 23.4329 23.2999 24.2604 23.2998C25.0877 23.2998 25.9153 22.9849 26.5451 22.355C27.2871 21.613 28.4943 21.613 29.2362 22.355C30.4959 23.6149 32.5458 23.6148 33.8055 22.355C34.0649 22.0957 34.0649 21.6752 33.8055 21.4158C33.5462 21.1566 33.1257 21.1566 32.8664 21.4158C32.507 21.7752 32.0291 21.9732 31.5208 21.9732C31.0126 21.9732 30.5347 21.7753 30.1753 21.4158C30.0821 21.3226 29.9841 21.2371 29.8829 21.1577V6.90625H33.336C33.7028 6.90625 34 6.60888 34 6.24219C34 5.87549 33.7028 5.57812 33.336 5.57812H29.8475C29.5149 2.4472 26.8583 0 23.6407 0C20.423 0 17.7664 2.4472 17.4338 5.57812H15.3267C14.994 2.4472 12.3375 0 9.11982 0C5.90217 0 3.24566 2.4472 2.91303 5.57812H0.664112C0.297351 5.57812 4.9805e-05 5.87549 4.9805e-05 6.24219C4.9805e-05 6.60888 0.297351 6.90625 0.664112 6.90625ZM6.96182 5.57812C7.2461 4.65621 8.10593 3.98438 9.11982 3.98438C10.1337 3.98438 10.9936 4.65621 11.2778 5.57812H6.96182ZM25.8985 6.90625V8.76562H15.362V6.90625H25.8985ZM25.8985 11.4219H15.362V10.0938H25.8985V11.4219ZM15.362 12.75H25.8985V14.6094H15.362V12.75ZM21.4827 5.57812C21.767 4.65621 22.6268 3.98438 23.6407 3.98438C24.6546 3.98438 25.5145 4.65621 25.7987 5.57812H21.4827ZM24.2604 21.9732C23.7522 21.9732 23.2743 21.7753 22.9149 21.4158C21.6551 20.1561 19.6054 20.156 18.3456 21.4158C17.6036 22.1578 16.3964 22.1578 15.6545 21.4158C15.5612 21.3226 15.4633 21.2371 15.362 21.1577V18.5938H17.6419C18.0087 18.5938 18.306 18.2964 18.306 17.9297C18.306 17.563 18.0087 17.2656 17.6419 17.2656H15.362V15.9375H25.8985V17.2656H23.6186C23.2518 17.2656 22.9545 17.563 22.9545 17.9297C22.9545 18.2964 23.2518 18.5938 23.6186 18.5938H25.8985V21.1577C25.7972 21.2371 25.6992 21.3226 25.606 21.4158C25.2466 21.7752 24.7687 21.9732 24.2604 21.9732ZM23.6407 1.32812C26.3503 1.32812 28.5547 3.53255 28.5547 6.24219V20.5403C28.1171 20.449 27.6643 20.449 27.2266 20.5403V6.24219C27.2266 4.26494 25.618 2.65625 23.6407 2.65625C21.8903 2.65625 20.4298 3.91717 20.1174 5.57812H18.7727C19.0981 3.18159 21.1564 1.32812 23.6407 1.32812ZM9.11982 1.32812C11.8295 1.32812 14.0339 3.53255 14.0339 6.24219V20.5402C13.5962 20.4489 13.1434 20.4489 12.7058 20.5402V6.24219C12.7058 4.26494 11.0971 2.65625 9.11982 2.65625C7.36948 2.65625 5.90894 3.91717 5.5965 5.57812H4.25191C4.57723 3.18159 6.63556 1.32812 9.11982 1.32812Z" fill="black"/>
<path d="M20.6305 17.2656C20.4552 17.2656 20.2845 17.3366 20.1603 17.4602C20.0368 17.5837 19.9664 17.755 19.9664 17.9297C19.9664 18.1043 20.0368 18.2757 20.1603 18.3991C20.2845 18.5226 20.4552 18.5938 20.6305 18.5938C20.8051 18.5938 20.9765 18.5227 21.1 18.3991C21.2235 18.2757 21.2946 18.1043 21.2946 17.9297C21.2946 17.755 21.2235 17.5837 21.1 17.4602C20.9765 17.3367 20.8051 17.2656 20.6305 17.2656Z" fill="black"/>
</g>
<defs>
<clipPath id="clip0_89_1094">
<rect width="34" height="34" fill="white"/>
</clipPath>
</defs>
</svg>
