<svg width="35" height="35" viewBox="0 0 35 35" fill="none" xmlns="http://www.w3.org/2000/svg">
<g clip-path="url(#clip0_89_979)">
<path fill-rule="evenodd" clip-rule="evenodd" d="M17.3526 19.4872C20.802 19.4872 23.6089 16.6804 23.6089 13.2296C23.6089 9.77949 20.802 6.97266 17.3526 6.97266C13.9032 6.97266 11.0936 9.77949 11.0936 13.2296C11.0929 16.6804 13.9032 19.4872 17.3526 19.4872ZM17.5003 1.43555C26.3569 1.43555 33.5647 8.64199 33.5647 17.5C33.5647 21.6979 31.9446 25.524 29.2984 28.389C28.3468 26.155 26.804 24.232 24.8106 22.8033C22.6183 21.2345 20.0398 20.3834 17.3553 20.3431C17.3519 20.3424 17.3492 20.3424 17.3458 20.3431C14.703 20.3827 12.16 21.2099 9.99031 22.7343C8.01951 24.1192 6.47664 25.9895 5.4991 28.1675C2.97253 25.3285 1.43582 21.5906 1.43582 17.5C1.43582 8.64199 8.64363 1.43555 17.5003 1.43555ZM29.3435 5.65742C32.5072 8.82109 34.249 13.0266 34.249 17.5C34.249 21.9734 32.5065 26.1796 29.3435 29.3426C26.1805 32.5062 21.9751 34.248 17.5003 34.248C13.0282 34.248 8.81999 32.5062 5.65701 29.3426C2.49334 26.1796 0.750854 21.9734 0.750854 17.5C0.750854 13.0266 2.49333 8.82109 5.65632 5.65742C8.81999 2.49443 13.0282 0.751953 17.5003 0.751953C21.9751 0.751953 26.1805 2.49443 29.3435 5.65742Z" fill="#161117"/>
</g>
<defs>
<clipPath id="clip0_89_979">
<rect width="35" height="35" fill="white"/>
</clipPath>
</defs>
</svg>
