<svg width="34" height="34" viewBox="0 0 34 34" fill="none" xmlns="http://www.w3.org/2000/svg">
<path d="M27.8834 0.607737C27.0016 -0.230308 25.6078 -0.196386 24.7678 0.683451L21.3063 4.31739C18.6668 3.91576 15.9872 4.72823 14.0151 6.52796L13.9984 6.51222C13.7466 6.27241 13.348 6.28209 13.1082 6.53387C13.1082 6.53387 13.1082 6.53387 13.1081 6.53394L12.1125 7.5789C11.7996 7.90553 11.6304 8.34383 11.6427 8.79599C11.6458 8.91389 11.6018 9.02824 11.5203 9.11348L11.5119 9.12222C9.09406 11.6615 6.93236 14.433 5.05817 17.3963L1.67003 22.757C1.11114 23.6455 1.25439 24.8045 2.01286 25.5302L8.35038 31.5668C9.11192 32.2892 10.2766 32.376 11.1369 31.7746L16.3265 28.1297C19.1952 26.114 21.8582 23.8204 24.2769 21.2824L24.2853 21.2737C24.367 21.1885 24.4789 21.1389 24.5969 21.1357C25.0491 21.1258 25.4786 20.9356 25.7897 20.6072L26.7854 19.5619C27.0253 19.3101 27.0156 18.9116 26.7638 18.6717C26.7638 18.6717 26.7638 18.6717 26.7638 18.6717L26.7471 18.6559C28.449 16.5987 29.1302 13.8826 28.6008 11.2656L32.0623 7.63164C32.9003 6.74983 32.8665 5.35605 31.9866 4.51596L27.8834 0.607737ZM26.3406 1.25894C26.5912 1.2513 26.8344 1.3452 27.0149 1.51929L31.118 5.42791C31.4951 5.78798 31.5096 6.38527 31.1505 6.76329L30.9334 6.99153L25.4625 1.77996L25.6797 1.55172C25.852 1.36975 26.09 1.26429 26.3406 1.25894ZM29.6304 8.35855L24.1597 3.14784L24.594 2.69199L30.0649 7.90317L29.6304 8.35855ZM27.8935 10.1825L22.4227 4.97135L23.2912 4.05948L28.7624 9.27105L27.8935 10.1825ZM24.8778 19.7387C24.7966 19.8245 24.6844 19.8742 24.5662 19.8767C24.1142 19.8864 23.6848 20.0765 23.3739 20.4047L23.3655 20.4135C21.004 22.8916 18.4038 25.1311 15.603 27.0992L10.4134 30.7441C10.0447 31.002 9.54551 30.9647 9.21912 30.6551L2.88137 24.6184C2.55647 24.3073 2.49524 23.8107 2.73482 23.43L6.12336 18.0695C7.95284 15.1763 10.0631 12.4705 12.4233 9.99127L12.4317 9.98254C12.7445 9.65591 12.9137 9.21769 12.9015 8.76553C12.8983 8.64739 12.9425 8.53296 13.0242 8.44764L13.5856 7.85823L25.4393 19.1492L24.8778 19.7387ZM25.8332 17.7853L21.6652 13.8152L14.9289 7.39859C16.6469 5.8674 18.967 5.19865 21.2364 5.58052L27.3425 11.3968C27.8342 13.645 27.2791 15.9948 25.8332 17.7853Z" fill="black"/>
<path d="M18.9879 6.5181C18.3024 6.75532 17.6486 7.07572 17.0412 7.472C16.75 7.66207 16.668 8.05221 16.8581 8.34342C17.0481 8.63462 17.4383 8.71663 17.7295 8.52656C18.2507 8.18648 18.8115 7.91156 19.3996 7.70803C19.7283 7.59431 19.9024 7.23581 19.7888 6.90714C19.6751 6.57847 19.3165 6.40422 18.9879 6.51795V6.5181Z" fill="black"/>
<path d="M9.99359 15.7475C9.71427 15.5404 9.31988 15.599 9.11281 15.8784C8.33269 16.931 7.58217 18.0262 6.88217 19.1335C6.69635 19.4275 6.78403 19.8164 7.07799 20.0022C7.37195 20.188 7.76083 20.1003 7.94665 19.8064C8.63004 18.7252 9.36286 17.6559 10.1246 16.6282C10.3316 16.3488 10.2729 15.9546 9.99359 15.7475Z" fill="black"/>
<path d="M11.9815 13.2885C11.7151 13.065 11.3181 13.0998 11.0945 13.3662C10.9577 13.5293 10.8218 13.6933 10.687 13.858C10.4667 14.1271 10.5063 14.5238 10.7755 14.744C11.0446 14.9643 11.4413 14.9247 11.6615 14.6556C11.7931 14.4947 11.9257 14.3347 12.0594 14.1755C12.2828 13.9091 12.248 13.512 11.9815 13.2885Z" fill="black"/>
<path d="M11.9767 4.86289C12.149 4.86313 12.3138 4.79253 12.4325 4.66771L12.5072 4.589C13.1771 3.88208 14.102 3.4725 15.0757 3.45172C15.4234 3.44322 15.6985 3.15446 15.69 2.80674C15.6815 2.45902 15.3927 2.18395 15.045 2.19245C13.7374 2.22071 12.4954 2.77085 11.5959 3.72034L11.5215 3.7985C11.2815 4.05019 11.291 4.44875 11.5427 4.68864C11.6597 4.80025 11.8153 4.8625 11.9771 4.86258L11.9767 4.86289Z" fill="black"/>
<path d="M14.3001 0.61405C14.2907 0.266885 14.0026 -0.0074788 13.6553 0.000155532C12.3476 0.0284104 11.1056 0.578554 10.206 1.52812L10.1315 1.60636C9.89166 1.85813 9.90134 2.25669 10.1531 2.49658C10.4049 2.73639 10.8035 2.72671 11.0433 2.47494L11.1179 2.39671C11.7876 1.6897 12.7123 1.28005 13.6859 1.25903C14.0336 1.25061 14.3086 0.961924 14.3001 0.614286C14.3001 0.614129 14.3001 0.614129 14.3001 0.61405Z" fill="black"/>
<path d="M19.6859 29.2053C19.422 28.9789 19.0245 29.0094 18.7982 29.2734L18.7279 29.3553C18.0958 30.0961 17.1936 30.5532 16.2225 30.6247C15.8757 30.6511 15.616 30.9535 15.6423 31.3002C15.6673 31.6283 15.9406 31.8819 16.2697 31.8822C16.2858 31.8822 16.302 31.8815 16.3183 31.8803C17.6229 31.7842 18.8347 31.1702 19.6837 30.1752L19.754 30.0931C19.9804 29.8292 19.9499 29.4317 19.6859 29.2053Z" fill="black"/>
<path d="M17.1439 33.4183C17.169 33.7462 17.4422 33.9996 17.7711 34C17.7872 34 17.8034 33.9993 17.8197 33.9982C19.1241 33.9021 20.336 33.2881 21.1849 32.293L21.2553 32.2111C21.4849 31.95 21.4593 31.5521 21.1982 31.3225C20.937 31.0929 20.5392 31.1185 20.3096 31.3797C20.3063 31.3834 20.303 31.3873 20.2997 31.3912L20.2293 31.4732C19.5972 32.2139 18.695 32.671 17.7238 32.7425C17.3771 32.769 17.1175 33.0715 17.1439 33.4183Z" fill="black"/>
</svg>
