<svg width="34" height="34" viewBox="0 0 34 34" fill="none" xmlns="http://www.w3.org/2000/svg">
<path d="M28.9825 14.4533C29.0884 14.709 29.3357 14.8634 29.5962 14.8634C29.6809 14.8634 29.767 14.8471 29.8501 14.8126L31.6649 14.0609C32.0038 13.9206 32.1646 13.5321 32.0243 13.1933C31.8839 12.8545 31.4955 12.6936 31.1566 12.8339L29.3418 13.5857C29.003 13.726 28.8421 14.1144 28.9825 14.4533Z" fill="black"/>
<path d="M33.3359 20.0621H27.2044C26.8611 14.7316 22.4158 10.4996 17 10.4996C11.5842 10.4996 7.139 14.7316 6.79555 20.0621H0.664062C0.297367 20.0621 0 20.3595 0 20.7262C0 21.0929 0.297367 21.3903 0.664062 21.3903H14.0117C14.3784 21.3903 14.6758 21.0929 14.6758 20.7262C14.6758 20.3595 14.3784 20.0621 14.0117 20.0621H8.12633C8.46713 15.4645 12.3168 11.8278 17 11.8278C21.6832 11.8278 25.5329 15.4645 25.8737 20.0621H19.9883C19.6216 20.0621 19.3242 20.3595 19.3242 20.7262C19.3242 21.0929 19.6216 21.3903 19.9883 21.3903H33.3359C33.7026 21.3903 34 21.0929 34 20.7262C34 20.3595 33.7026 20.0621 33.3359 20.0621Z" fill="black"/>
<path d="M17 8.90928C17.3667 8.90928 17.6641 8.61191 17.6641 8.24522V1.97461C17.6641 1.60791 17.3667 1.31055 17 1.31055C16.6333 1.31055 16.3359 1.60791 16.3359 1.97461V8.24529C16.3359 8.61198 16.6333 8.90928 17 8.90928Z" fill="black"/>
<path d="M21.9633 8.74377C22.0464 8.77817 22.1325 8.7945 22.2171 8.7945C22.4777 8.7945 22.7249 8.64011 22.8309 8.38438L23.5826 6.56949C23.723 6.23062 23.5621 5.84221 23.2232 5.70183C22.8844 5.56178 22.496 5.72248 22.3556 6.06122L21.6039 7.8761C21.4635 8.21491 21.6245 8.60338 21.9633 8.74377Z" fill="black"/>
<path d="M25.8253 12.5649C25.9953 12.5649 26.1652 12.5001 26.2949 12.3704L30.7923 7.873C31.0516 7.61368 31.0516 7.1932 30.7923 6.93382C30.5329 6.67457 30.1126 6.67457 29.8531 6.93382L25.3557 11.4312C25.0964 11.6906 25.0964 12.111 25.3557 12.3704C25.4854 12.5001 25.6554 12.5649 25.8253 12.5649Z" fill="black"/>
<path d="M11.169 8.38429C11.275 8.64002 11.5222 8.79442 11.7828 8.79442C11.8675 8.79442 11.9535 8.77808 12.0367 8.74368C12.3755 8.6033 12.5364 8.21482 12.3961 7.87602L11.6443 6.06113C11.504 5.72233 11.1156 5.56163 10.7767 5.70174C10.4378 5.84213 10.277 6.2306 10.4173 6.56941L11.169 8.38429Z" fill="black"/>
<path d="M2.33502 15.3705L4.14984 16.1222C4.23298 16.1567 4.31904 16.173 4.40371 16.173C4.66429 16.173 4.91152 16.0186 5.01744 15.7629C5.15782 15.424 4.99692 15.0356 4.65811 14.8953L2.8433 14.1436C2.50436 14.0033 2.11608 14.1642 1.97563 14.5029C1.83531 14.8417 1.99622 15.2302 2.33502 15.3705Z" fill="black"/>
<path d="M7.70505 12.3704C7.83474 12.5001 8.00467 12.5649 8.1746 12.5649C8.34454 12.5649 8.51447 12.5001 8.64416 12.3704C8.90348 12.1111 8.90348 11.6906 8.64416 11.4312L4.14673 6.93382C3.88735 6.67457 3.467 6.67457 3.20755 6.93382C2.94823 7.19313 2.94823 7.61362 3.20755 7.873L7.70505 12.3704Z" fill="black"/>
<path d="M28.199 24.9518C27.7011 25.4498 27.0391 25.724 26.3349 25.724C25.6307 25.724 24.9687 25.4498 24.4708 24.9518C22.9251 23.4062 20.41 23.4062 18.8642 24.9518C18.3663 25.4498 17.7043 25.724 17.0001 25.724C16.2959 25.724 15.6339 25.4498 15.136 24.9518C13.5902 23.4062 11.0751 23.4062 9.52939 24.9518C9.03148 25.4498 8.36941 25.724 7.6653 25.724C6.96113 25.724 6.29913 25.4498 5.80121 24.9518C5.5419 24.6927 5.12154 24.6926 4.86203 24.9518C4.60271 25.2111 4.60271 25.6316 4.86203 25.891C5.61076 26.6397 6.60639 27.0521 7.6653 27.0521C8.72422 27.0521 9.71978 26.6397 10.4686 25.891C11.4965 24.8631 13.169 24.8631 14.1969 25.891C14.9456 26.6397 15.9412 27.0521 17.0002 27.0521C18.0591 27.0521 19.0546 26.6397 19.8034 25.891C20.8313 24.8631 22.5038 24.8631 23.5317 25.891C24.2805 26.6397 25.2761 27.0521 26.335 27.0521C27.3939 27.0521 28.3895 26.6397 29.1383 25.891C29.3976 25.6317 29.3976 25.2112 29.1383 24.9518C28.8787 24.6926 28.4582 24.6926 28.199 24.9518Z" fill="black"/>
<path d="M23.5315 30.5909C23.0336 31.0889 22.3716 31.3631 21.6675 31.3631C20.9633 31.3631 20.3012 31.0889 19.8033 30.5909C19.0546 29.8422 18.0589 29.4298 17 29.4298C15.9411 29.4298 14.9456 29.8422 14.1968 30.5909C13.6988 31.0889 13.0368 31.3631 12.3326 31.3631C11.6284 31.3631 10.9664 31.0889 10.4685 30.5909C10.2091 30.3317 9.78878 30.3317 9.52933 30.5909C9.27001 30.8502 9.27001 31.2707 9.52933 31.5301C11.0751 33.0758 13.5902 33.0757 15.1359 31.5301C15.6339 31.0321 16.2959 30.7579 17 30.7579C17.7042 30.7579 18.3662 31.0321 18.8641 31.5301C19.637 32.303 20.6522 32.6894 21.6675 32.6894C22.6826 32.6894 23.6978 32.303 24.4707 31.5301C24.73 31.2708 24.73 30.8503 24.4707 30.5909C24.2114 30.3317 23.791 30.3317 23.5315 30.5909Z" fill="black"/>
<path d="M17.4694 21.1958C17.5929 21.0723 17.6641 20.901 17.6641 20.7263C17.6641 20.5517 17.593 20.3803 17.4694 20.2569C17.346 20.1334 17.1746 20.0623 17 20.0623C16.8246 20.0623 16.654 20.1333 16.5305 20.2569C16.407 20.3803 16.3359 20.5517 16.3359 20.7263C16.3359 20.901 16.4069 21.0723 16.5305 21.1958C16.6541 21.3193 16.8254 21.3904 17 21.3904C17.1746 21.3904 17.346 21.3193 17.4694 21.1958Z" fill="black"/>
</svg>
