<svg width="34" height="34" viewBox="0 0 34 34" fill="none" xmlns="http://www.w3.org/2000/svg">
<path d="M16.9336 30.9785C18.1439 30.9785 19.125 29.9974 19.125 28.7871C19.125 27.5768 18.1439 26.5957 16.9336 26.5957C15.7233 26.5957 14.7422 27.5768 14.7422 28.7871C14.7422 29.9974 15.7233 30.9785 16.9336 30.9785Z" fill="black"/>
<path d="M33.6434 10.2839C29.2786 5.60076 23.368 3.02155 16.9997 3.02148C10.6321 3.02155 4.72146 5.60076 0.356515 10.2839C-0.143524 10.8205 -0.113973 11.6609 0.422589 12.161C0.959217 12.6611 1.79959 12.6316 2.29969 12.095C6.15656 7.95679 11.3771 5.6778 17.0002 5.67773C22.6228 5.6778 27.8434 7.95679 31.7003 12.095C31.9618 12.3756 32.3165 12.5176 32.6721 12.5176C32.9964 12.5176 33.3214 12.3995 33.5774 12.161C34.1139 11.6609 34.1436 10.8205 33.6434 10.2839Z" fill="black"/>
<path d="M28.7668 15.7686C25.5403 12.5178 21.3614 10.7275 16.9999 10.7277C12.6373 10.7277 8.45837 12.518 5.23289 15.7687C4.71625 16.2894 4.7195 17.1303 5.2402 17.647C5.76089 18.1636 6.60179 18.1604 7.11843 17.6397C9.84141 14.8954 13.3507 13.384 16.9999 13.3839C20.6481 13.3838 24.1574 14.8952 26.8814 17.6398C27.141 17.9014 27.4825 18.0323 27.8241 18.0323C28.1622 18.0323 28.5006 17.9039 28.7597 17.6468C29.2803 17.1301 29.2835 16.2892 28.7668 15.7686Z" fill="black"/>
<path d="M23.4514 21.2694C21.7235 19.5575 19.2467 18.4941 16.9875 18.4941C16.9872 18.4941 16.9867 18.4941 16.9865 18.4941H16.8908C16.8904 18.4941 16.8902 18.4941 16.8898 18.4941C14.6305 18.4941 12.1535 19.5576 10.4257 21.2694C9.90466 21.7856 9.90075 22.6265 10.417 23.1476C10.6767 23.4097 11.0186 23.541 11.3605 23.541C11.6983 23.541 12.0362 23.4129 12.2952 23.1564C13.5252 21.9377 15.3286 21.1504 16.8899 21.1504C16.8901 21.1504 16.8904 21.1504 16.8906 21.1504H16.9867C16.9869 21.1504 16.987 21.1504 16.9873 21.1504C18.5484 21.1504 20.3519 21.9378 21.5818 23.1564C22.1029 23.6726 22.9439 23.6688 23.4601 23.1476C23.9764 22.6266 23.9725 21.7856 23.4514 21.2694Z" fill="black"/>
</svg>
