<svg width="34" height="34" viewBox="0 0 34 34" fill="none" xmlns="http://www.w3.org/2000/svg">
<path d="M26.9167 4.25H7.08337C5.0799 4.25 4.07817 4.25 3.45577 4.83395C2.83337 5.41789 2.83337 6.35774 2.83337 8.23744V9.21468C2.83337 10.685 2.83337 11.4201 3.20114 12.0295C3.56891 12.6389 4.24079 13.0172 5.58457 13.7736L9.71135 16.0967C10.6129 16.6042 11.0637 16.858 11.3865 17.1382C12.0587 17.7218 12.4725 18.4075 12.66 19.2485C12.75 19.6523 12.75 20.1249 12.75 21.07L12.75 24.8518C12.75 26.1403 12.75 26.7845 13.1069 27.2868C13.4638 27.7891 14.0977 28.0369 15.3654 28.5325C18.0268 29.5729 19.3575 30.0931 20.3038 29.5012C21.25 28.9093 21.25 27.5568 21.25 24.8518V21.07C21.25 20.1249 21.25 19.6523 21.3401 19.2485C21.5276 18.4075 21.9414 17.7218 22.6136 17.1382C22.9363 16.858 23.3871 16.6042 24.2887 16.0967L28.4155 13.7736C29.7593 13.0172 30.4312 12.6389 30.7989 12.0295C31.1667 11.4201 31.1667 10.685 31.1667 9.21468V8.23744C31.1667 6.35774 31.1667 5.41789 30.5443 4.83395C29.9219 4.25 28.9202 4.25 26.9167 4.25Z" stroke="#5F5F5F" stroke-width="1.5"/>
<line x1="6.65328" y1="14.2606" x2="20.8199" y2="4.34391" stroke="#5F5F5F" stroke-width="1.5"/>
</svg>
